<?xml version="1.0" encoding="UTF-8"?>
<svg id="Layer_2" data-name="Layer 2" xmlns="http://www.w3.org/2000/svg" viewBox="0 0 236.7 331.38">
  <defs>
    <style>
      .cls-1 {
        fill: #fb212e;
      }

      .cls-2 {
        fill: #ede8da;
      }

      .cls-3 {
        fill: #3a2b0e;
      }

      .cls-4 {
        fill: #fff;
      }
    </style>
  </defs>
  <g id="_Layer_" data-name="&amp;lt;Layer&amp;gt;">
    <g id="_10_Diamonds" data-name="10 Diamonds">
      <path id="BG" class="cls-4" d="M14.2,0h208.3c7.84,0,14.2,6.36,14.2,14.2v302.98c0,7.84-6.36,14.2-14.2,14.2H14.2c-7.84,0-14.2-6.36-14.2-14.2V14.2C0,6.36,6.36,0,14.2,0Z"/>
      <g>
        <path class="cls-2" d="M204.29,172.12l-43.32-3.74,43.32,1.73v-1.98l-43.2-1.86h43.2v-1.97h-43.3l43.3-2.14v-1.97l-43.43,2.28,43.43-4.3v-1.98l-43.54,4.31,43.54-6.35v-1.99l-43.88,6.4,43.88-8.49v-2.01l-44.21,8.56,44.21-10.69v-2.03l-44.51,10.76,44.51-12.96v-2.06l-47.7,13.89,47.7-16.47v-2.09l-51.42,17.75,51.42-20.9v-2.13l-58,23.57,58-28.04v-2.19l-63.82,30.86,63.82-37.33v-2.28l-66.9,39.13,66.9-47.38v-2.42l-68.02,48.18,68.02-57.67v-2.59l-69.3,58.76,69.3-69.97v-2.8l-70.71,71.4,70.71-85.06v-3.08l-72.21,86.87,72.18-104.02c-.02-1.16-.06-2.25-.11-3.31l-73.68,106.2L200.88,23.39c-.38-.72-.78-1.34-1.21-1.86l-70.93,124L190.03,12.79c-.55-.27-1.15-.52-1.82-.76l-61.26,132.66L175.5,9.86c-.66-.04-1.36-.07-2.06-.1l-48.34,134.28L160.65,9.62h-2.04l-35.42,133.91L146.4,9.62h-2l-23.15,133.56,11.33-133.56h-1.98l-11.47,133.41V9.62h-1.97v133.41L105.35,9.62h-1.98l11.97,133.59L91.54,9.62h-2l23.87,133.93L77.3,9.62h-2.04l36.24,134.44L62.43,9.79c-.71.04-1.38.08-2.05.13l49.26,134.81L47.74,12.32c-.66.26-1.26.54-1.79.83l61.91,132.42L36.52,22.22c-.4.58-.77,1.24-1.12,2.01l66.94,115.75L32.83,36.02c-.09,1.01-.17,2.07-.23,3.2l65.71,98.27L32.41,50.15v3.28l61.96,82.12L32.41,61.62v3.07l58.69,70.02-58.69-63.59v2.9l56.29,60.98-56.29-55.59v2.77l54.89,54.22-54.89-49.42v2.65l53.57,48.23-53.57-43.92v2.55l52.29,42.87-52.29-38.98v2.46l51.13,38.12-51.13-34.56v2.38l50.04,33.83-50.04-30.56v2.31l48.96,29.9-48.96-26.87v2.25l48,26.34-48-23.53v2.2l47.21,23.14-47.21-20.5v2.15l46.39,20.14-46.39-17.64v2.11l45.68,17.37-45.68-15v2.08l45.04,14.78-45.04-12.51v2.05l44.59,12.39-44.59-10.19v2.02l44.13,10.09-44.13-7.96v2l43.71,7.89-43.71-5.82v1.99l43.48,5.79-43.48-3.76v1.98l43.27,3.74-43.27-1.73v1.98l43.26,1.86h-43.26v1.97h43.3l-43.3,2.14v1.97l43.37-2.28-43.37,4.29v1.98l43.59-4.32-43.59,6.36v1.99l43.82-6.4-43.82,8.48v2.01l44.26-8.56-44.26,10.7v2.03l44.45-10.75-44.45,12.94v2.06l47.7-13.88-47.7,16.47v2.09l51.46-17.77-51.46,20.91v2.13l57.81-23.49-57.81,27.95v2.19l63.97-30.93-63.97,37.42v2.28l66.9-39.13-66.9,47.38v2.42l68.03-48.18-68.03,57.68v2.59l69.29-58.75-69.29,69.97v2.8l70.7-71.39-70.7,85.04v3.08l72.22-86.88-72.19,104.04c.02,1.15.06,2.25.11,3.31l73.69-106.21-70.42,123.11c.38.72.78,1.34,1.21,1.87l70.92-123.99-61.28,132.73c.55.26,1.15.52,1.82.76l61.26-132.66-48.54,134.84c.66.04,1.36.07,2.06.1l48.34-134.28-35.55,134.41h2.04l35.42-133.91-23.2,133.91h2l23.15-133.57-11.33,133.57h1.98l11.47-133.41v133.41h1.97v-133.4l11.8,133.4h1.98l-11.97-133.59,23.81,133.59h2l-23.87-133.92,36.11,133.92h2.04l-36.25-134.44,49.07,134.27c.71-.04,1.38-.08,2.05-.13l-49.26-134.81,61.91,132.42c.66-.26,1.26-.53,1.79-.83l-61.91-132.43,71.34,123.36c.39-.58.77-1.24,1.12-2.01l-66.92-115.72,69.49,103.93c.09-1.01.17-2.07.23-3.19l-65.74-98.31,65.93,87.38v-3.27l-61.93-82.08,61.93,73.89v-3.07l-58.69-70.02,58.69,63.59v-2.9l-56.29-60.98,56.29,55.59v-2.77l-54.89-54.22,54.89,49.42v-2.65l-53.57-48.23,53.57,43.92v-2.55l-52.32-42.9,52.32,39v-2.46l-51.14-38.12,51.14,34.56v-2.38l-50.01-33.8,50.01,30.53v-2.31l-48.98-29.91,48.98,26.88v-2.25l-48.04-26.37,48.04,23.55v-2.2l-47.16-23.11,47.16,20.47v-2.15l-46.41-20.14,46.41,17.65v-2.11l-45.68-17.37,45.68,14.99v-2.08l-45.09-14.8,45.09,12.52v-2.05l-44.54-12.37,44.54,10.18v-2.02l-44.13-10.09,44.13,7.96v-2.01l-43.76-7.9,43.76,5.82v-1.99l-43.43-5.78,43.43,3.75v-1.98Z"/>
        <path class="cls-3" d="M167.47,322.74h-98.24c-18.14,0-27.24-3.01-28.37-9.44-6.43-1.13-9.44-10.23-9.44-28.37V46.44c0-18.14,3.01-27.24,9.44-28.37,1.13-6.43,10.23-9.44,28.37-9.44h98.24c18.14,0,27.24,3.01,28.37,9.44,6.43,1.13,9.44,10.23,9.44,28.37v238.5c0,18.14-3.01,27.24-9.44,28.37-1.13,6.43-10.23,9.44-28.37,9.44ZM42.85,313.4c.68,2.83,4.53,7.38,26.37,7.38h98.24c21.85,0,25.69-4.54,26.37-7.38-2.16-.24-3.94-1.8-3.94-3.55,0-1.62,1.44-2.48,2.48-2.48,1.76,0,3.32,1.78,3.55,3.94,2.83-.68,7.38-4.53,7.38-26.37V46.44c0-21.85-4.54-25.69-7.38-26.37-.23,2.16-1.79,3.94-3.55,3.94-1.04,0-2.48-.86-2.48-2.48,0-1.76,1.79-3.31,3.94-3.55-.68-2.83-4.53-7.38-26.37-7.38h-98.24c-21.85,0-25.69,4.54-26.37,7.38,2.16.23,3.94,1.79,3.94,3.55,0,1.62-1.44,2.48-2.48,2.48-1.76,0-3.32-1.79-3.55-3.94-2.83.68-7.37,4.53-7.37,26.37v238.5c0,21.85,4.54,25.69,7.37,26.37.24-2.16,1.8-3.94,3.55-3.94,1.04,0,2.48.86,2.48,2.48,0,1.76-1.78,3.32-3.94,3.55ZM192.38,309.34s-.51.07-.51.5c0,.51.78,1.41,2.09,1.58-.17-1.31-1.07-2.09-1.58-2.09ZM44.32,309.34c-.51,0-1.41.78-1.58,2.09,1.31-.17,2.09-1.07,2.09-1.58,0-.43-.51-.5-.51-.5ZM193.96,19.95c-1.31.17-2.09,1.07-2.09,1.58,0,.43.51.51.51.51.51,0,1.41-.78,1.58-2.09ZM42.74,19.95c.17,1.31,1.07,2.09,1.58,2.09,0,0,.51-.07.51-.51,0-.51-.78-1.41-2.09-1.58Z"/>
      </g>
      <g id="Illustration">
        <g>
          <path class="cls-4" d="M118.35,98.27c.38,0,.73-.22.89-.56.03-.07,3.41-7.14,9.23-14.42,5.81-7.26,11.45-11.47,11.5-11.51.25-.19.4-.48.4-.79s-.15-.61-.4-.8c-.06-.04-5.69-4.25-11.51-11.51-5.82-7.27-9.2-14.34-9.23-14.41-.16-.34-.51-.56-.89-.56s-.73.22-.89.56c-.03.07-3.41,7.14-9.23,14.41-5.81,7.26-11.45,11.47-11.5,11.51-.25.19-.4.48-.4.8s.15.61.4.79c.06.04,5.69,4.25,11.5,11.51,5.82,7.28,9.2,14.35,9.23,14.42.16.34.51.56.89.56Z"/>
          <path class="cls-1" d="M95.34,70.99c0,.63.3,1.21.8,1.58.05.04,5.58,4.16,11.32,11.34,5.74,7.18,9.08,14.15,9.11,14.22.33.69,1.02,1.13,1.78,1.13s1.46-.44,1.78-1.13c.03-.07,3.37-7.04,9.11-14.22,5.72-7.15,11.27-11.3,11.32-11.34.5-.38.8-.96.8-1.59s-.3-1.21-.8-1.59c-.05-.04-5.58-4.16-11.32-11.34-5.74-7.18-9.08-14.15-9.11-14.22-.33-.69-1.02-1.13-1.78-1.13s-1.46.44-1.78,1.13c-.03.07-3.37,7.04-9.11,14.22-5.72,7.15-11.27,11.3-11.32,11.34-.5.38-.8.96-.8,1.59ZM97.31,70.99s5.72-4.23,11.69-11.69c5.97-7.46,9.35-14.61,9.35-14.61,0,0,3.38,7.15,9.35,14.61,5.97,7.46,11.69,11.69,11.69,11.69,0,0-5.72,4.23-11.69,11.69-5.97,7.46-9.35,14.61-9.35,14.61,0,0-3.38-7.15-9.35-14.61-5.97-7.46-11.69-11.69-11.69-11.69Z"/>
          <path class="cls-1" d="M122.83,60.67c-.66-2.51-1.2-4.97-1.61-7.03,1.37,2.12,3.01,4.47,4.94,6.88,3.39,4.24,6.67,7.43,8.96,9.47h-9.26c-.33-.79-1.66-4.09-3.03-9.32ZM113.87,60.67c.66-2.51,1.2-4.97,1.61-7.03-1.37,2.12-3.01,4.47-4.94,6.88-3.39,4.24-6.67,7.43-8.96,9.47h9.26c.33-.79,1.66-4.09,3.03-9.32ZM112.93,70.05c.76-2.01,1.71-4.55,2.85-8.87,1.63-6.26,2.58-12.25,2.58-12.25,0,0,.24,1.5.66,3.79.45,2.26,1.1,5.34,1.92,8.47.99,3.82,2.18,7.23,2.81,8.86.24.62.24,1.28,0,1.89-.63,1.62-1.81,4.98-2.81,8.86-1.66,6.26-2.58,12.26-2.58,12.26,0,0-.24-1.5-.69-3.79-.45-2.26-1.08-5.34-1.89-8.47-1.22-4.61-2.3-7.49-2.85-8.88-.24-.61-.24-1.26,0-1.87ZM116.83,73.1c.38.53,1.51,2.49,1.51,2.49,0,0,1.13-1.97,1.51-2.49.38-.53,1.78-2.11,1.78-2.11,0,0-1.4-1.58-1.78-2.11-.38-.53-1.51-2.49-1.51-2.49,0,0-1.13,1.96-1.51,2.49-.38.53-1.78,2.11-1.78,2.11,0,0,1.4,1.58,1.78,2.11ZM101.58,71.97c2.29,2.04,5.57,5.23,8.96,9.47,1.93,2.42,3.57,4.76,4.94,6.88-.41-2.06-.95-4.52-1.61-7.03-1.37-5.23-2.7-8.54-3.03-9.33h-9.26ZM122.83,81.3c-.66,2.51-1.2,4.97-1.61,7.03,1.37-2.12,3.01-4.47,4.94-6.88,3.39-4.24,6.67-7.43,8.96-9.47h-9.26c-.33.79-1.66,4.1-3.03,9.33Z"/>
        </g>
        <g>
          <path class="cls-4" d="M118.35,161.41c.38,0,.73-.22.89-.56.03-.07,3.41-7.14,9.23-14.42,5.81-7.26,11.45-11.47,11.5-11.51.25-.19.4-.48.4-.79s-.15-.61-.4-.8c-.06-.04-5.69-4.25-11.51-11.51-5.82-7.27-9.2-14.34-9.23-14.41-.16-.34-.51-.56-.89-.56s-.73.22-.89.56c-.03.07-3.41,7.14-9.23,14.41-5.81,7.26-11.45,11.47-11.5,11.51-.25.19-.4.48-.4.8s.15.61.4.79c.06.04,5.69,4.25,11.5,11.51,5.82,7.28,9.2,14.35,9.23,14.42.16.34.51.56.89.56Z"/>
          <path class="cls-1" d="M95.34,134.12c0,.63.3,1.21.8,1.58.05.04,5.58,4.16,11.32,11.34,5.74,7.18,9.08,14.15,9.11,14.22.33.69,1.02,1.13,1.78,1.13s1.46-.44,1.78-1.13c.03-.07,3.37-7.04,9.11-14.22,5.72-7.15,11.27-11.3,11.32-11.34.5-.38.8-.96.8-1.59s-.3-1.21-.8-1.59c-.05-.04-5.58-4.16-11.32-11.34-5.74-7.18-9.08-14.15-9.11-14.22-.33-.69-1.02-1.13-1.78-1.13s-1.46.44-1.78,1.13c-.03.07-3.37,7.04-9.11,14.22-5.72,7.15-11.27,11.3-11.32,11.34-.5.37-.8.96-.8,1.59ZM97.31,134.12s5.72-4.23,11.69-11.69c5.97-7.46,9.35-14.61,9.35-14.61,0,0,3.38,7.15,9.35,14.61,5.97,7.46,11.69,11.69,11.69,11.69,0,0-5.72,4.23-11.69,11.69-5.97,7.46-9.35,14.61-9.35,14.61,0,0-3.38-7.15-9.35-14.61-5.97-7.46-11.69-11.69-11.69-11.69Z"/>
          <path class="cls-1" d="M122.83,123.81c-.66-2.51-1.2-4.97-1.61-7.03,1.37,2.12,3.01,4.47,4.94,6.88,3.39,4.24,6.67,7.43,8.96,9.47h-9.26c-.33-.79-1.66-4.09-3.03-9.32ZM113.87,123.81c.66-2.51,1.2-4.97,1.61-7.03-1.37,2.12-3.01,4.47-4.94,6.88-3.39,4.24-6.67,7.43-8.96,9.47h9.26c.33-.79,1.66-4.09,3.03-9.32ZM112.93,133.19c.76-2.01,1.71-4.55,2.85-8.87,1.63-6.26,2.58-12.26,2.58-12.26,0,0,.24,1.5.66,3.79.45,2.26,1.1,5.34,1.92,8.47.99,3.82,2.18,7.23,2.81,8.86.24.62.24,1.28,0,1.89-.63,1.62-1.81,4.98-2.81,8.86-1.66,6.26-2.58,12.26-2.58,12.26,0,0-.24-1.5-.69-3.79-.45-2.26-1.08-5.34-1.89-8.47-1.22-4.61-2.3-7.49-2.85-8.88-.24-.61-.24-1.26,0-1.87ZM116.83,136.24c.38.53,1.51,2.49,1.51,2.49,0,0,1.13-1.97,1.51-2.49.38-.53,1.78-2.11,1.78-2.11,0,0-1.4-1.58-1.78-2.11-.38-.53-1.51-2.49-1.51-2.49,0,0-1.13,1.96-1.51,2.49-.38.53-1.78,2.11-1.78,2.11,0,0,1.4,1.58,1.78,2.11ZM101.58,135.1c2.29,2.04,5.57,5.23,8.96,9.47,1.93,2.42,3.57,4.76,4.94,6.88-.41-2.06-.95-4.52-1.61-7.03-1.37-5.23-2.7-8.54-3.03-9.33h-9.26ZM122.83,144.43c-.66,2.51-1.2,4.97-1.61,7.03,1.37-2.12,3.01-4.47,4.94-6.88,3.39-4.24,6.67-7.43,8.96-9.47h-9.26c-.33.79-1.66,4.1-3.03,9.33Z"/>
        </g>
        <g>
          <path class="cls-4" d="M118.35,169.97c-.38,0-.73.22-.89.56-.03.07-3.41,7.14-9.23,14.42-5.81,7.26-11.45,11.47-11.5,11.51-.25.19-.4.48-.4.79s.15.61.4.79c.06.04,5.69,4.25,11.51,11.51,5.82,7.27,9.2,14.34,9.23,14.41.16.34.51.56.89.56s.73-.22.89-.56c.03-.07,3.41-7.14,9.23-14.41,5.81-7.26,11.45-11.47,11.5-11.51.25-.19.4-.48.4-.79s-.15-.61-.4-.79c-.06-.04-5.69-4.25-11.5-11.51-5.82-7.28-9.2-14.35-9.23-14.42-.16-.34-.51-.56-.89-.56Z"/>
          <path class="cls-1" d="M141.36,197.26c0-.63-.3-1.21-.8-1.58-.05-.04-5.58-4.16-11.32-11.34-5.74-7.18-9.08-14.15-9.11-14.22-.33-.69-1.02-1.13-1.78-1.13s-1.46.44-1.78,1.13c-.03.07-3.37,7.04-9.11,14.22-5.72,7.15-11.27,11.3-11.32,11.34-.5.38-.8.96-.8,1.59s.3,1.21.8,1.59c.05.04,5.58,4.16,11.32,11.34,5.74,7.18,9.08,14.15,9.11,14.22.33.69,1.02,1.13,1.78,1.13s1.46-.44,1.78-1.13c.03-.07,3.37-7.04,9.11-14.22,5.72-7.15,11.27-11.3,11.32-11.34.5-.38.8-.96.8-1.59ZM139.39,197.26s-5.72,4.23-11.69,11.69c-5.97,7.46-9.35,14.61-9.35,14.61,0,0-3.38-7.15-9.35-14.61-5.97-7.46-11.69-11.69-11.69-11.69,0,0,5.72-4.23,11.69-11.69,5.97-7.46,9.35-14.61,9.35-14.61,0,0,3.38,7.15,9.35,14.61,5.97,7.46,11.69,11.69,11.69,11.69Z"/>
          <path class="cls-1" d="M113.87,207.57c.66,2.51,1.2,4.97,1.61,7.03-1.37-2.12-3.01-4.47-4.94-6.88-3.39-4.24-6.67-7.43-8.96-9.47h9.26c.33.79,1.66,4.09,3.03,9.32ZM122.83,207.57c-.66,2.51-1.2,4.97-1.61,7.03,1.37-2.12,3.01-4.47,4.94-6.88,3.39-4.24,6.67-7.43,8.96-9.47h-9.26c-.33.79-1.66,4.09-3.03,9.32ZM123.77,198.19c-.76,2.01-1.71,4.55-2.85,8.87-1.63,6.26-2.58,12.25-2.58,12.25,0,0-.24-1.5-.66-3.79-.45-2.26-1.1-5.34-1.92-8.47-.99-3.82-2.18-7.23-2.81-8.86-.24-.62-.24-1.28,0-1.89.63-1.62,1.81-4.98,2.81-8.86,1.66-6.26,2.58-12.26,2.58-12.26,0,0,.24,1.5.69,3.79.45,2.26,1.08,5.34,1.89,8.47,1.22,4.61,2.3,7.49,2.85,8.88.24.61.24,1.26,0,1.87ZM119.87,195.14c-.38-.53-1.51-2.49-1.51-2.49,0,0-1.13,1.97-1.51,2.49-.38.53-1.78,2.11-1.78,2.11,0,0,1.4,1.58,1.78,2.11.38.53,1.51,2.49,1.51,2.49,0,0,1.13-1.96,1.51-2.49.38-.53,1.78-2.11,1.78-2.11,0,0-1.4-1.58-1.78-2.11ZM135.12,196.27c-2.29-2.04-5.57-5.23-8.96-9.47-1.93-2.42-3.57-4.76-4.94-6.88.41,2.06.95,4.52,1.61,7.03,1.37,5.23,2.7,8.54,3.03,9.33h9.26ZM113.87,186.94c.66-2.51,1.2-4.97,1.61-7.03-1.37,2.12-3.01,4.47-4.94,6.88-3.39,4.24-6.67,7.43-8.96,9.47h9.26c.33-.79,1.66-4.1,3.03-9.33Z"/>
        </g>
        <g>
          <path class="cls-4" d="M78.9,129.84c.38,0,.73-.22.89-.56.03-.07,3.41-7.14,9.23-14.42,5.81-7.26,11.45-11.47,11.5-11.51.25-.19.4-.48.4-.79s-.15-.61-.4-.79c-.06-.04-5.69-4.25-11.51-11.51-5.82-7.27-9.2-14.34-9.23-14.41-.16-.34-.51-.56-.89-.56s-.73.22-.89.56c-.03.07-3.41,7.14-9.23,14.41-5.81,7.26-11.45,11.47-11.5,11.51-.25.19-.4.48-.4.79s.15.61.4.79c.06.04,5.69,4.25,11.5,11.51,5.82,7.28,9.2,14.35,9.23,14.42.16.34.51.56.89.56Z"/>
          <path class="cls-1" d="M55.89,102.55c0,.63.3,1.22.8,1.58.05.04,5.58,4.16,11.32,11.34,5.74,7.18,9.08,14.15,9.11,14.22.33.69,1.02,1.13,1.78,1.13s1.46-.44,1.78-1.13c.03-.07,3.37-7.04,9.11-14.22,5.72-7.15,11.27-11.3,11.32-11.34.5-.38.8-.96.8-1.59s-.3-1.21-.8-1.59c-.05-.04-5.58-4.16-11.32-11.34-5.74-7.18-9.08-14.15-9.11-14.22-.33-.69-1.02-1.13-1.78-1.13s-1.46.44-1.78,1.13c-.03.07-3.37,7.05-9.11,14.22-5.72,7.15-11.27,11.3-11.32,11.34-.5.38-.8.96-.8,1.59ZM57.86,102.55s5.72-4.23,11.69-11.69c5.97-7.46,9.35-14.61,9.35-14.61,0,0,3.38,7.15,9.35,14.61,5.97,7.46,11.69,11.69,11.69,11.69,0,0-5.72,4.23-11.69,11.69-5.97,7.46-9.35,14.61-9.35,14.61,0,0-3.38-7.15-9.35-14.61-5.97-7.46-11.69-11.69-11.69-11.69Z"/>
          <path class="cls-1" d="M83.38,92.24c-.66-2.51-1.2-4.97-1.61-7.03,1.37,2.12,3.01,4.47,4.94,6.88,3.39,4.24,6.67,7.43,8.96,9.47h-9.26c-.33-.79-1.66-4.09-3.03-9.32ZM74.42,92.24c.66-2.51,1.2-4.97,1.61-7.03-1.37,2.12-3.01,4.47-4.94,6.88-3.39,4.24-6.67,7.43-8.96,9.47h9.26c.33-.79,1.66-4.09,3.03-9.32ZM73.48,101.62c.76-2.01,1.71-4.55,2.85-8.87,1.63-6.26,2.58-12.25,2.58-12.25,0,0,.24,1.5.66,3.79.45,2.26,1.1,5.34,1.92,8.47.99,3.82,2.18,7.23,2.81,8.86.24.62.24,1.28,0,1.89-.63,1.62-1.81,4.98-2.81,8.86-1.66,6.26-2.58,12.25-2.58,12.25,0,0-.24-1.5-.69-3.79-.45-2.26-1.08-5.34-1.89-8.47-1.22-4.61-2.3-7.49-2.85-8.88-.24-.61-.24-1.26,0-1.87ZM77.38,104.67c.38.53,1.51,2.49,1.51,2.49,0,0,1.13-1.97,1.51-2.49.38-.53,1.78-2.11,1.78-2.11,0,0-1.4-1.58-1.78-2.11-.38-.53-1.51-2.49-1.51-2.49,0,0-1.13,1.96-1.51,2.49-.38.53-1.78,2.11-1.78,2.11,0,0,1.4,1.58,1.78,2.11ZM62.13,103.54c2.29,2.04,5.57,5.23,8.96,9.47,1.93,2.42,3.57,4.76,4.94,6.88-.41-2.06-.95-4.52-1.61-7.03-1.37-5.23-2.7-8.54-3.03-9.33h-9.26ZM83.38,112.87c-.66,2.51-1.2,4.97-1.61,7.03,1.37-2.12,3.01-4.47,4.94-6.88,3.39-4.24,6.67-7.43,8.96-9.47h-9.26c-.33.79-1.66,4.1-3.03,9.33Z"/>
        </g>
        <g>
          <path class="cls-4" d="M78.9,192.98c.38,0,.73-.22.89-.56.03-.07,3.41-7.14,9.23-14.42,5.81-7.26,11.45-11.47,11.5-11.51.25-.19.4-.48.4-.79s-.15-.61-.4-.8c-.06-.04-5.69-4.25-11.51-11.51-5.82-7.27-9.2-14.34-9.23-14.41-.16-.34-.51-.56-.89-.56s-.73.22-.89.56c-.03.07-3.41,7.14-9.23,14.41-5.81,7.26-11.45,11.47-11.5,11.51-.25.19-.4.48-.4.8s.15.61.4.79c.06.04,5.69,4.25,11.5,11.51,5.82,7.28,9.2,14.35,9.23,14.42.16.34.51.56.89.56Z"/>
          <path class="cls-1" d="M55.89,165.69c0,.63.3,1.21.8,1.58.05.04,5.58,4.16,11.32,11.34,5.74,7.18,9.08,14.15,9.11,14.22.33.69,1.02,1.13,1.78,1.13s1.46-.44,1.78-1.13c.03-.07,3.37-7.04,9.11-14.22,5.72-7.15,11.27-11.3,11.32-11.34.5-.38.8-.96.8-1.59s-.3-1.21-.8-1.59c-.05-.04-5.58-4.16-11.32-11.34-5.74-7.18-9.08-14.15-9.11-14.22-.33-.69-1.02-1.13-1.78-1.13s-1.46.44-1.78,1.13c-.03.07-3.37,7.05-9.11,14.22-5.72,7.15-11.27,11.3-11.32,11.34-.5.38-.8.96-.8,1.59ZM57.86,165.69s5.72-4.23,11.69-11.69c5.97-7.46,9.35-14.61,9.35-14.61,0,0,3.38,7.15,9.35,14.61,5.97,7.46,11.69,11.69,11.69,11.69,0,0-5.72,4.23-11.69,11.69-5.97,7.46-9.35,14.61-9.35,14.61,0,0-3.38-7.15-9.35-14.61-5.97-7.46-11.69-11.69-11.69-11.69Z"/>
          <path class="cls-1" d="M83.38,155.38c-.66-2.51-1.2-4.97-1.61-7.03,1.37,2.12,3.01,4.47,4.94,6.88,3.39,4.24,6.67,7.43,8.96,9.47h-9.26c-.33-.79-1.66-4.09-3.03-9.32ZM74.42,155.38c.66-2.51,1.2-4.97,1.61-7.03-1.37,2.12-3.01,4.47-4.94,6.88-3.39,4.24-6.67,7.43-8.96,9.47h9.26c.33-.79,1.66-4.09,3.03-9.32ZM73.48,164.76c.76-2.01,1.71-4.55,2.85-8.87,1.63-6.26,2.58-12.26,2.58-12.26,0,0,.24,1.5.66,3.79.45,2.26,1.1,5.34,1.92,8.47.99,3.82,2.18,7.23,2.81,8.86.24.62.24,1.28,0,1.89-.63,1.62-1.81,4.98-2.81,8.86-1.66,6.26-2.58,12.26-2.58,12.26,0,0-.24-1.5-.69-3.79-.45-2.26-1.08-5.34-1.89-8.47-1.22-4.61-2.3-7.49-2.85-8.88-.24-.61-.24-1.26,0-1.87ZM77.38,167.81c.38.53,1.51,2.49,1.51,2.49,0,0,1.13-1.97,1.51-2.49.38-.53,1.78-2.11,1.78-2.11,0,0-1.4-1.58-1.78-2.11-.38-.53-1.51-2.49-1.51-2.49,0,0-1.13,1.96-1.51,2.49-.38.53-1.78,2.11-1.78,2.11,0,0,1.4,1.58,1.78,2.11ZM62.13,166.67c2.29,2.04,5.57,5.23,8.96,9.47,1.93,2.42,3.57,4.76,4.94,6.88-.41-2.06-.95-4.52-1.61-7.03-1.37-5.23-2.7-8.54-3.03-9.33h-9.26ZM83.38,176c-.66,2.51-1.2,4.97-1.61,7.03,1.37-2.12,3.01-4.47,4.94-6.88,3.39-4.24,6.67-7.43,8.96-9.47h-9.26c-.33.79-1.66,4.1-3.03,9.33Z"/>
        </g>
        <g>
          <path class="cls-4" d="M78.9,201.54c-.38,0-.73.22-.89.56-.03.07-3.41,7.14-9.23,14.42-5.81,7.26-11.45,11.47-11.5,11.51-.25.19-.4.48-.4.79s.15.61.4.79c.06.04,5.69,4.25,11.51,11.51,5.82,7.27,9.2,14.34,9.23,14.41.16.34.51.56.89.56s.73-.22.89-.56c.03-.07,3.41-7.14,9.23-14.41,5.81-7.26,11.45-11.47,11.5-11.51.25-.19.4-.48.4-.79s-.15-.61-.4-.79c-.06-.04-5.69-4.25-11.5-11.51-5.82-7.28-9.2-14.35-9.23-14.42-.16-.34-.51-.56-.89-.56Z"/>
          <path class="cls-1" d="M101.91,228.82c0-.63-.3-1.21-.8-1.58-.05-.04-5.58-4.16-11.32-11.34-5.74-7.18-9.08-14.15-9.11-14.22-.33-.69-1.02-1.13-1.78-1.13s-1.46.44-1.78,1.13c-.03.07-3.37,7.04-9.11,14.22-5.72,7.15-11.27,11.3-11.32,11.34-.5.37-.8.96-.8,1.59s.3,1.21.8,1.59c.05.04,5.58,4.16,11.32,11.34,5.74,7.18,9.08,14.15,9.11,14.22.33.69,1.02,1.13,1.78,1.13s1.46-.44,1.78-1.13c.03-.07,3.37-7.05,9.11-14.22,5.72-7.15,11.27-11.3,11.32-11.34.5-.38.8-.96.8-1.59ZM99.94,228.82s-5.72,4.23-11.69,11.69c-5.97,7.46-9.35,14.61-9.35,14.61,0,0-3.38-7.15-9.35-14.61-5.97-7.46-11.69-11.69-11.69-11.69,0,0,5.72-4.23,11.69-11.69,5.97-7.46,9.35-14.61,9.35-14.61,0,0,3.38,7.15,9.35,14.61,5.97,7.46,11.69,11.69,11.69,11.69Z"/>
          <path class="cls-1" d="M74.42,239.13c.66,2.51,1.2,4.97,1.61,7.03-1.37-2.12-3.01-4.47-4.94-6.88-3.39-4.24-6.67-7.43-8.96-9.47h9.26c.33.79,1.66,4.09,3.03,9.32ZM83.38,239.13c-.66,2.51-1.2,4.97-1.61,7.03,1.37-2.12,3.01-4.47,4.94-6.88,3.39-4.24,6.67-7.43,8.96-9.47h-9.26c-.33.79-1.66,4.09-3.03,9.32ZM84.32,229.76c-.76,2.01-1.71,4.55-2.85,8.87-1.63,6.26-2.58,12.26-2.58,12.26,0,0-.24-1.5-.66-3.79-.45-2.26-1.1-5.34-1.92-8.47-.99-3.82-2.18-7.23-2.81-8.86-.24-.62-.24-1.28,0-1.89.63-1.62,1.81-4.98,2.81-8.86,1.66-6.26,2.58-12.25,2.58-12.25,0,0,.24,1.5.69,3.79.45,2.26,1.08,5.34,1.89,8.47,1.22,4.61,2.3,7.49,2.85,8.88.24.61.24,1.26,0,1.87ZM80.42,226.71c-.38-.53-1.51-2.49-1.51-2.49,0,0-1.13,1.97-1.51,2.49-.38.53-1.78,2.11-1.78,2.11,0,0,1.4,1.58,1.78,2.11.38.53,1.51,2.49,1.51,2.49,0,0,1.13-1.96,1.51-2.49.38-.53,1.78-2.11,1.78-2.11,0,0-1.4-1.58-1.78-2.11ZM95.67,227.84c-2.29-2.04-5.57-5.23-8.96-9.47-1.93-2.42-3.57-4.76-4.94-6.88.41,2.06.95,4.52,1.61,7.03,1.37,5.23,2.7,8.54,3.03,9.33h9.26ZM74.42,218.51c.66-2.51,1.2-4.97,1.61-7.03-1.37,2.12-3.01,4.47-4.94,6.88-3.39,4.24-6.67,7.43-8.96,9.47h9.26c.33-.79,1.66-4.1,3.03-9.33Z"/>
        </g>
        <g>
          <path class="cls-4" d="M157.8,129.84c.38,0,.73-.22.89-.56.03-.07,3.41-7.14,9.23-14.42,5.81-7.26,11.45-11.47,11.5-11.51.25-.19.4-.48.4-.79s-.15-.61-.4-.79c-.06-.04-5.69-4.25-11.51-11.51-5.82-7.27-9.2-14.34-9.23-14.41-.16-.34-.51-.56-.89-.56s-.73.22-.89.56c-.03.07-3.41,7.14-9.23,14.41-5.81,7.26-11.45,11.47-11.5,11.51-.25.19-.4.48-.4.79s.15.61.4.79c.06.04,5.69,4.25,11.5,11.51,5.82,7.28,9.2,14.35,9.23,14.42.16.34.51.56.89.56Z"/>
          <path class="cls-1" d="M134.79,102.55c0,.63.3,1.22.8,1.58.05.04,5.58,4.16,11.32,11.34,5.74,7.18,9.08,14.15,9.11,14.22.33.69,1.02,1.13,1.78,1.13s1.46-.44,1.78-1.13c.03-.07,3.37-7.04,9.11-14.22,5.72-7.15,11.27-11.3,11.32-11.34.5-.38.8-.96.8-1.59s-.3-1.21-.8-1.59c-.05-.04-5.58-4.16-11.32-11.34-5.74-7.18-9.08-14.15-9.11-14.22-.33-.69-1.02-1.13-1.78-1.13s-1.46.44-1.78,1.13c-.03.07-3.37,7.05-9.11,14.22-5.72,7.15-11.27,11.3-11.32,11.34-.5.38-.8.96-.8,1.59ZM136.76,102.55s5.72-4.23,11.69-11.69c5.97-7.46,9.35-14.61,9.35-14.61,0,0,3.38,7.15,9.35,14.61,5.97,7.46,11.69,11.69,11.69,11.69,0,0-5.72,4.23-11.69,11.69-5.97,7.46-9.35,14.61-9.35,14.61,0,0-3.38-7.15-9.35-14.61-5.97-7.46-11.69-11.69-11.69-11.69Z"/>
          <path class="cls-1" d="M162.28,92.24c-.66-2.51-1.2-4.97-1.61-7.03,1.37,2.12,3.01,4.47,4.94,6.88,3.39,4.24,6.67,7.43,8.96,9.47h-9.26c-.33-.79-1.66-4.09-3.03-9.32ZM153.32,92.24c.66-2.51,1.2-4.97,1.61-7.03-1.37,2.12-3.01,4.47-4.94,6.88-3.39,4.24-6.67,7.43-8.96,9.47h9.26c.33-.79,1.66-4.09,3.03-9.32ZM152.38,101.62c.76-2.01,1.71-4.55,2.85-8.87,1.63-6.26,2.58-12.25,2.58-12.25,0,0,.24,1.5.66,3.79.45,2.26,1.1,5.34,1.92,8.47.99,3.82,2.18,7.23,2.81,8.86.24.62.24,1.28,0,1.89-.63,1.62-1.81,4.98-2.81,8.86-1.66,6.26-2.58,12.25-2.58,12.25,0,0-.24-1.5-.69-3.79-.45-2.26-1.08-5.34-1.89-8.47-1.22-4.61-2.3-7.49-2.85-8.88-.24-.61-.24-1.26,0-1.87ZM156.28,104.67c.38.53,1.51,2.49,1.51,2.49,0,0,1.13-1.97,1.51-2.49.38-.53,1.78-2.11,1.78-2.11,0,0-1.4-1.58-1.78-2.11-.38-.53-1.51-2.49-1.51-2.49,0,0-1.13,1.96-1.51,2.49-.38.53-1.78,2.11-1.78,2.11,0,0,1.4,1.58,1.78,2.11ZM141.03,103.54c2.29,2.04,5.57,5.23,8.96,9.47,1.93,2.42,3.57,4.76,4.94,6.88-.41-2.06-.95-4.52-1.61-7.03-1.37-5.23-2.7-8.54-3.03-9.33h-9.26ZM162.28,112.87c-.66,2.51-1.2,4.97-1.61,7.03,1.37-2.12,3.01-4.47,4.94-6.88,3.39-4.24,6.67-7.43,8.96-9.47h-9.26c-.33.79-1.66,4.1-3.03,9.33Z"/>
        </g>
        <g>
          <path class="cls-4" d="M157.8,138.4c-.38,0-.73.22-.89.56-.03.07-3.41,7.14-9.23,14.42-5.81,7.26-11.45,11.47-11.5,11.51-.25.19-.4.48-.4.79s.15.61.4.8c.06.04,5.69,4.25,11.51,11.51,5.82,7.27,9.2,14.34,9.23,14.41.16.34.51.56.89.56s.73-.22.89-.56c.03-.07,3.41-7.14,9.23-14.41,5.81-7.26,11.45-11.47,11.5-11.51.25-.19.4-.48.4-.8s-.15-.61-.4-.79c-.06-.04-5.69-4.25-11.5-11.51-5.82-7.28-9.2-14.35-9.23-14.42-.16-.34-.51-.56-.89-.56Z"/>
          <path class="cls-1" d="M180.81,165.69c0-.63-.3-1.21-.8-1.58-.05-.04-5.58-4.16-11.32-11.34-5.74-7.18-9.08-14.15-9.11-14.22-.33-.69-1.02-1.13-1.78-1.13s-1.46.44-1.78,1.13c-.03.07-3.37,7.04-9.11,14.22-5.72,7.15-11.27,11.3-11.32,11.34-.5.38-.8.96-.8,1.59s.3,1.21.8,1.59c.05.04,5.58,4.16,11.32,11.34,5.74,7.18,9.08,14.15,9.11,14.22.33.69,1.02,1.13,1.78,1.13s1.46-.44,1.78-1.13c.03-.07,3.37-7.05,9.11-14.22,5.72-7.15,11.27-11.3,11.32-11.34.5-.38.8-.96.8-1.59ZM178.84,165.69s-5.72,4.23-11.69,11.69c-5.97,7.46-9.35,14.61-9.35,14.61,0,0-3.38-7.15-9.35-14.61-5.97-7.46-11.69-11.69-11.69-11.69,0,0,5.72-4.23,11.69-11.69,5.97-7.46,9.35-14.61,9.35-14.61,0,0,3.38,7.15,9.35,14.61,5.97,7.46,11.69,11.69,11.69,11.69Z"/>
          <path class="cls-1" d="M153.32,176c.66,2.51,1.2,4.97,1.61,7.03-1.37-2.12-3.01-4.47-4.94-6.88-3.39-4.24-6.67-7.43-8.96-9.47h9.26c.33.79,1.66,4.09,3.03,9.32ZM162.28,176c-.66,2.51-1.2,4.97-1.61,7.03,1.37-2.12,3.01-4.47,4.94-6.88,3.39-4.24,6.67-7.43,8.96-9.47h-9.26c-.33.79-1.66,4.09-3.03,9.32ZM163.22,166.62c-.76,2.01-1.71,4.55-2.85,8.87-1.63,6.26-2.58,12.26-2.58,12.26,0,0-.24-1.5-.66-3.79-.45-2.26-1.1-5.34-1.92-8.47-.99-3.82-2.18-7.23-2.81-8.86-.24-.62-.24-1.28,0-1.89.63-1.62,1.81-4.98,2.81-8.86,1.66-6.26,2.58-12.26,2.58-12.26,0,0,.24,1.5.69,3.79.45,2.26,1.08,5.34,1.89,8.47,1.22,4.61,2.3,7.49,2.85,8.88.24.61.24,1.26,0,1.87ZM159.32,163.57c-.38-.53-1.51-2.49-1.51-2.49,0,0-1.13,1.97-1.51,2.49-.38.53-1.78,2.11-1.78,2.11,0,0,1.4,1.58,1.78,2.11.38.53,1.51,2.49,1.51,2.49,0,0,1.13-1.96,1.51-2.49.38-.53,1.78-2.11,1.78-2.11,0,0-1.4-1.58-1.78-2.11ZM174.57,164.7c-2.29-2.04-5.57-5.23-8.96-9.47-1.93-2.42-3.57-4.76-4.94-6.88.41,2.06.95,4.51,1.61,7.03,1.37,5.23,2.7,8.54,3.03,9.33h9.26ZM153.32,155.38c.66-2.51,1.2-4.97,1.61-7.03-1.37,2.12-3.01,4.47-4.94,6.88-3.39,4.24-6.67,7.43-8.96,9.47h9.26c.33-.79,1.66-4.1,3.03-9.33Z"/>
        </g>
        <g>
          <path class="cls-4" d="M157.8,201.54c-.38,0-.73.22-.89.56-.03.07-3.41,7.14-9.23,14.42-5.81,7.26-11.45,11.47-11.5,11.51-.25.19-.4.48-.4.79s.15.61.4.79c.06.04,5.69,4.25,11.51,11.51,5.82,7.27,9.2,14.34,9.23,14.41.16.34.51.56.89.56s.73-.22.89-.56c.03-.07,3.41-7.14,9.23-14.41,5.81-7.26,11.45-11.47,11.5-11.51.25-.19.4-.48.4-.79s-.15-.61-.4-.79c-.06-.04-5.69-4.25-11.5-11.51-5.82-7.28-9.2-14.35-9.23-14.42-.16-.34-.51-.56-.89-.56Z"/>
          <path class="cls-1" d="M180.81,228.82c0-.63-.3-1.21-.8-1.58-.05-.04-5.58-4.16-11.32-11.34-5.74-7.18-9.08-14.15-9.11-14.22-.33-.69-1.02-1.13-1.78-1.13s-1.46.44-1.78,1.13c-.03.07-3.37,7.04-9.11,14.22-5.72,7.15-11.27,11.3-11.32,11.34-.5.37-.8.96-.8,1.59s.3,1.21.8,1.59c.05.04,5.58,4.16,11.32,11.34,5.74,7.18,9.08,14.15,9.11,14.22.33.69,1.02,1.13,1.78,1.13s1.46-.44,1.78-1.13c.03-.07,3.37-7.05,9.11-14.22,5.72-7.15,11.27-11.3,11.32-11.34.5-.38.8-.96.8-1.59ZM178.84,228.82s-5.72,4.23-11.69,11.69c-5.97,7.46-9.35,14.61-9.35,14.61,0,0-3.38-7.15-9.35-14.61-5.97-7.46-11.69-11.69-11.69-11.69,0,0,5.72-4.23,11.69-11.69,5.97-7.46,9.35-14.61,9.35-14.61,0,0,3.38,7.15,9.35,14.61,5.97,7.46,11.69,11.69,11.69,11.69Z"/>
          <path class="cls-1" d="M153.32,239.13c.66,2.51,1.2,4.97,1.61,7.03-1.37-2.12-3.01-4.47-4.94-6.88-3.39-4.24-6.67-7.43-8.96-9.47h9.26c.33.79,1.66,4.09,3.03,9.32ZM162.28,239.13c-.66,2.51-1.2,4.97-1.61,7.03,1.37-2.12,3.01-4.47,4.94-6.88,3.39-4.24,6.67-7.43,8.96-9.47h-9.26c-.33.79-1.66,4.09-3.03,9.32ZM163.22,229.76c-.76,2.01-1.71,4.55-2.85,8.87-1.63,6.26-2.58,12.26-2.58,12.26,0,0-.24-1.5-.66-3.79-.45-2.26-1.1-5.34-1.92-8.47-.99-3.82-2.18-7.23-2.81-8.86-.24-.62-.24-1.28,0-1.89.63-1.62,1.81-4.98,2.81-8.86,1.66-6.26,2.58-12.25,2.58-12.25,0,0,.24,1.5.69,3.79.45,2.26,1.08,5.34,1.89,8.47,1.22,4.61,2.3,7.49,2.85,8.88.24.61.24,1.26,0,1.87ZM159.32,226.71c-.38-.53-1.51-2.49-1.51-2.49,0,0-1.13,1.97-1.51,2.49-.38.53-1.78,2.11-1.78,2.11,0,0,1.4,1.58,1.78,2.11.38.53,1.51,2.49,1.51,2.49,0,0,1.13-1.96,1.51-2.49.38-.53,1.78-2.11,1.78-2.11,0,0-1.4-1.58-1.78-2.11ZM174.57,227.84c-2.29-2.04-5.57-5.23-8.96-9.47-1.93-2.42-3.57-4.76-4.94-6.88.41,2.06.95,4.52,1.61,7.03,1.37,5.23,2.7,8.54,3.03,9.33h9.26ZM153.32,218.51c.66-2.51,1.2-4.97,1.61-7.03-1.37,2.12-3.01,4.47-4.94,6.88-3.39,4.24-6.67,7.43-8.96,9.47h9.26c.33-.79,1.66-4.1,3.03-9.33Z"/>
        </g>
        <g>
          <path class="cls-4" d="M118.35,233.1c-.38,0-.73.22-.89.56-.03.07-3.41,7.14-9.23,14.42-5.81,7.26-11.45,11.47-11.5,11.51-.25.19-.4.48-.4.79s.15.61.4.8c.06.04,5.69,4.25,11.51,11.51,5.82,7.27,9.2,14.34,9.23,14.41.16.34.51.56.89.56s.73-.22.89-.56c.03-.07,3.41-7.14,9.23-14.41,5.81-7.26,11.45-11.47,11.5-11.51.25-.19.4-.48.4-.8s-.15-.61-.4-.79c-.06-.04-5.69-4.25-11.5-11.51-5.82-7.28-9.2-14.35-9.23-14.42-.16-.34-.51-.56-.89-.56Z"/>
          <path class="cls-1" d="M141.36,260.39c0-.63-.3-1.21-.8-1.58-.05-.04-5.58-4.16-11.32-11.34-5.74-7.18-9.08-14.15-9.11-14.22-.33-.69-1.02-1.13-1.78-1.13s-1.46.44-1.78,1.13c-.03.07-3.37,7.04-9.11,14.22-5.72,7.15-11.27,11.3-11.32,11.34-.5.38-.8.96-.8,1.59s.3,1.21.8,1.59c.05.04,5.58,4.16,11.32,11.34,5.74,7.18,9.08,14.15,9.11,14.22.33.69,1.02,1.13,1.78,1.13s1.46-.44,1.78-1.13c.03-.07,3.37-7.04,9.11-14.22,5.72-7.15,11.27-11.3,11.32-11.34.5-.38.8-.96.8-1.59ZM139.39,260.39s-5.72,4.23-11.69,11.69c-5.97,7.46-9.35,14.61-9.35,14.61,0,0-3.38-7.15-9.35-14.61-5.97-7.46-11.69-11.69-11.69-11.69,0,0,5.72-4.23,11.69-11.69,5.97-7.46,9.35-14.61,9.35-14.61,0,0,3.38,7.15,9.35,14.61,5.97,7.46,11.69,11.69,11.69,11.69Z"/>
          <path class="cls-1" d="M113.87,270.7c.66,2.51,1.2,4.97,1.61,7.03-1.37-2.12-3.01-4.47-4.94-6.88-3.39-4.24-6.67-7.43-8.96-9.47h9.26c.33.79,1.66,4.09,3.03,9.32ZM122.83,270.7c-.66,2.51-1.2,4.97-1.61,7.03,1.37-2.12,3.01-4.47,4.94-6.88,3.39-4.24,6.67-7.43,8.96-9.47h-9.26c-.33.79-1.66,4.09-3.03,9.32ZM123.77,261.33c-.76,2.01-1.71,4.55-2.85,8.87-1.63,6.26-2.58,12.26-2.58,12.26,0,0-.24-1.5-.66-3.79-.45-2.26-1.1-5.34-1.92-8.47-.99-3.82-2.18-7.23-2.81-8.86-.24-.62-.24-1.28,0-1.89.63-1.62,1.81-4.98,2.81-8.86,1.66-6.26,2.58-12.26,2.58-12.26,0,0,.24,1.5.69,3.79.45,2.26,1.08,5.34,1.89,8.47,1.22,4.61,2.3,7.49,2.85,8.88.24.61.24,1.26,0,1.87ZM119.87,258.27c-.38-.53-1.51-2.49-1.51-2.49,0,0-1.13,1.97-1.51,2.49-.38.53-1.78,2.11-1.78,2.11,0,0,1.4,1.58,1.78,2.11.38.53,1.51,2.49,1.51,2.49,0,0,1.13-1.96,1.51-2.49.38-.53,1.78-2.11,1.78-2.11,0,0-1.4-1.58-1.78-2.11ZM135.12,259.41c-2.29-2.04-5.57-5.23-8.96-9.47-1.93-2.42-3.57-4.76-4.94-6.88.41,2.06.95,4.52,1.61,7.03,1.37,5.23,2.7,8.54,3.03,9.33h9.26ZM113.87,250.08c.66-2.51,1.2-4.97,1.61-7.03-1.37,2.12-3.01,4.47-4.94,6.88-3.39,4.24-6.67,7.43-8.96,9.47h9.26c.33-.79,1.66-4.1,3.03-9.33Z"/>
        </g>
      </g>
      <g id="_10" data-name="10">
        <g>
          <path class="cls-1" d="M228.46,317.74c.51-.26.99-.4,1.45-.4.87,0,1.37.23,1.5.7-2.12,1.03-4.07,3.95-4.31,4.67h-2.85l.15-.79c.01-.08.32-1.2.4-7.98.04-2.06.06-3.92.06-5.57,0-10.31-.37-11.54-1.02-13.16h5.44l-.27.81c-.47,1.45-.7,5.6-.7,12.46,0,3.92.05,7,.15,9.26Z"/>
          <path class="cls-1" d="M215.1,294.85c2.38,0,4.23,1.56,5.55,4.67,1.2,2.84,1.8,6.57,1.8,11.18,0,.42.55,12.37-7.35,12.37-2.53,0-4.42-1.16-5.67-3.49-1.12-2.11-1.68-5.07-1.68-8.88,0-4.39.79-15.86,7.35-15.86ZM218.29,311.75c0-10.07-1.07-15.1-3.19-15.1s-3.19,5.03-3.19,15.1c0,1.89-.21,9.53,3.19,9.53,1.7,0,2.71-1.78,3.04-5.36.1-1.2.15-2.59.15-4.17Z"/>
        </g>
        <g>
          <path class="cls-1" d="M8.24,13.64c-.51.26-.99.4-1.45.4-.87,0-1.37-.23-1.5-.7,2.12-1.02,4.08-3.97,4.31-4.67h2.84l-.15.79c-.02.08-.32,1.2-.4,7.98-.04,2.06-.06,3.92-.06,5.57,0,10.39.38,11.56,1.02,13.16h-5.44l.27-.81c.47-1.45.7-5.6.7-12.46,0-3.92-.05-7-.15-9.26Z"/>
          <path class="cls-1" d="M21.6,36.52c-2.38,0-4.23-1.56-5.55-4.67-1.2-2.84-1.8-6.57-1.8-11.18,0-.4-.57-12.37,7.35-12.37,2.53,0,4.42,1.16,5.67,3.49,1.12,2.11,1.68,5.07,1.68,8.88,0,4.38-.79,15.86-7.35,15.86ZM18.41,19.62c0,10.07,1.06,15.1,3.19,15.1s3.19-5.03,3.19-15.1c0-1.87.21-9.53-3.19-9.53-1.7,0-2.71,1.79-3.04,5.36-.1,1.2-.15,2.59-.15,4.17Z"/>
        </g>
      </g>
      <g id="Diamonds">
        <path class="cls-1" d="M219.82,288.94s3.17-5.61,4.22-7.12c1.06-1.51,4.99-6.03,4.99-6.03,0,0-3.93-4.52-4.99-6.03-1.05-1.51-4.22-7.12-4.22-7.12,0,0-3.17,5.61-4.22,7.12-1.06,1.51-4.99,6.03-4.99,6.03,0,0,3.93,4.52,4.99,6.03,1.05,1.51,4.22,7.12,4.22,7.12Z"/>
        <path class="cls-1" d="M16.88,42.44s-3.17,5.61-4.22,7.12c-1.06,1.51-4.99,6.03-4.99,6.03,0,0,3.93,4.52,4.99,6.03,1.05,1.51,4.22,7.12,4.22,7.12,0,0,3.17-5.61,4.22-7.12,1.06-1.51,4.99-6.03,4.99-6.03,0,0-3.93-4.52-4.99-6.03-1.05-1.51-4.22-7.12-4.22-7.12Z"/>
      </g>
    </g>
  </g>
</svg>