<?xml version="1.0" encoding="UTF-8"?>
<svg id="Layer_2" data-name="Layer 2" xmlns="http://www.w3.org/2000/svg" viewBox="0 0 236.7 331.38">
  <defs>
    <style>
      .cls-1 {
        fill: #ede8da;
      }

      .cls-2 {
        fill: #3a2b0e;
      }

      .cls-3 {
        fill: #fff;
      }

      .cls-4 {
        fill: #3d2b07;
      }
    </style>
  </defs>
  <g id="_Layer_" data-name="&amp;lt;Layer&amp;gt;">
    <g id="_7_Clubs" data-name="7 Clubs">
      <path id="BG" class="cls-3" d="M14.2,0h208.3c7.84,0,14.2,6.36,14.2,14.2v302.97c0,7.84-6.36,14.2-14.2,14.2H14.2c-7.84,0-14.2-6.36-14.2-14.2V14.2C0,6.36,6.36,0,14.2,0Z"/>
      <g>
        <path class="cls-1" d="M204.29,172.12l-43.32-3.74,43.32,1.73v-1.98l-43.2-1.86h43.2v-1.97h-43.3l43.3-2.14v-1.97l-43.43,2.28,43.43-4.3v-1.99l-43.54,4.31,43.54-6.35v-1.99l-43.88,6.4,43.88-8.49v-2.01l-44.21,8.56,44.21-10.69v-2.03l-44.51,10.77,44.51-12.96v-2.06l-47.7,13.89,47.7-16.47v-2.09l-51.42,17.75,51.42-20.9v-2.13l-58,23.57,58-28.04v-2.19l-63.82,30.86,63.82-37.33v-2.28l-66.9,39.13,66.9-47.39v-2.41l-68.02,48.18,68.02-57.67v-2.59l-69.3,58.76,69.3-69.97v-2.8l-70.71,71.4,70.71-85.06v-3.09l-72.21,86.87,72.17-104.02c-.02-1.16-.06-2.25-.11-3.31l-73.68,106.2L200.88,23.39c-.38-.72-.78-1.34-1.21-1.86l-70.93,124L190.03,12.79c-.55-.26-1.15-.52-1.82-.76l-61.26,132.66L175.5,9.86c-.66-.04-1.36-.07-2.06-.1l-48.34,134.28L160.65,9.62h-2.04l-35.42,133.91L146.4,9.62h-2l-23.15,133.56,11.33-133.56h-1.98l-11.47,133.41V9.62h-1.97v133.41L105.36,9.62h-1.98l11.97,133.59L91.54,9.62h-2l23.87,133.93L77.3,9.62h-2.04l36.24,134.44L62.43,9.8c-.71.04-1.39.08-2.05.13l49.26,134.81L47.74,12.32c-.66.26-1.26.54-1.79.83l61.91,132.42L36.52,22.22c-.39.58-.77,1.24-1.12,2.01l66.94,115.75L32.83,36.02c-.09,1.01-.17,2.07-.23,3.2l65.71,98.27L32.41,50.15v3.27l61.97,82.13L32.41,61.62v3.07l58.69,70.02-58.69-63.59v2.9l56.29,60.98-56.29-55.59v2.77l54.89,54.22-54.89-49.42v2.65l53.57,48.23-53.57-43.92v2.55l52.29,42.87-52.29-38.98v2.46l51.13,38.12-51.13-34.56v2.38l50.04,33.83-50.04-30.56v2.31l48.96,29.9-48.96-26.87v2.25l48,26.34-48-23.53v2.2l47.21,23.14-47.21-20.5v2.15l46.39,20.14-46.39-17.64v2.11l45.68,17.37-45.68-14.99v2.08l45.05,14.79-45.05-12.51v2.05l44.59,12.38-44.59-10.19v2.02l44.13,10.09-44.13-7.96v2l43.71,7.89-43.71-5.82v1.99l43.48,5.79-43.48-3.76v1.98l43.27,3.74-43.27-1.73v1.98l43.26,1.86h-43.26v1.97h43.3l-43.3,2.14v1.97l43.37-2.28-43.37,4.29v1.98l43.59-4.32-43.59,6.36v2l43.82-6.4-43.82,8.48v2.01l44.26-8.56-44.26,10.7v2.03l44.45-10.75-44.45,12.94v2.06l47.7-13.88-47.7,16.47v2.09l51.46-17.77-51.46,20.91v2.13l57.81-23.49-57.81,27.95v2.19l63.97-30.93-63.97,37.42v2.28l66.9-39.13-66.9,47.39v2.41l68.02-48.18-68.02,57.68v2.59l69.29-58.75-69.29,69.97v2.8l70.7-71.39-70.7,85.04v3.08l72.22-86.88-72.18,104.04c.02,1.15.06,2.25.11,3.31l73.69-106.21-70.42,123.11c.38.72.78,1.34,1.21,1.87l70.92-123.99-61.28,132.73c.55.26,1.15.52,1.82.76l61.26-132.67-48.54,134.84c.66.04,1.36.07,2.06.1l48.34-134.28-35.56,134.42h2.04l35.42-133.91-23.21,133.91h2l23.15-133.57-11.33,133.57h1.98l11.47-133.41v133.41h1.97v-133.4l11.79,133.4h1.98l-11.97-133.59,23.81,133.59h2l-23.87-133.92,36.11,133.92h2.04l-36.25-134.44,49.07,134.27c.71-.04,1.39-.08,2.05-.13l-49.26-134.81,61.91,132.42c.65-.26,1.26-.53,1.79-.83l-61.91-132.43,71.34,123.36c.39-.58.77-1.24,1.12-2.01l-66.92-115.72,69.49,103.93c.09-1.01.17-2.08.23-3.2l-65.74-98.31,65.93,87.38v-3.27l-61.93-82.08,61.93,73.89v-3.07l-58.69-70.02,58.69,63.59v-2.9l-56.29-60.98,56.29,55.59v-2.77l-54.89-54.22,54.89,49.42v-2.65l-53.57-48.23,53.57,43.92v-2.55l-52.32-42.9,52.32,39v-2.46l-51.13-38.12,51.13,34.56v-2.38l-50.01-33.8,50.01,30.53v-2.31l-48.98-29.91,48.98,26.88v-2.25l-48.04-26.37,48.04,23.55v-2.2l-47.15-23.11,47.15,20.47v-2.15l-46.4-20.15,46.4,17.65v-2.11l-45.68-17.37,45.68,14.99v-2.08l-45.09-14.8,45.09,12.53v-2.05l-44.54-12.37,44.54,10.18v-2.02l-44.13-10.09,44.13,7.97v-2.01l-43.76-7.9,43.76,5.83v-1.99l-43.43-5.78,43.43,3.75v-1.98Z"/>
        <path class="cls-2" d="M167.47,322.75h-98.24c-18.14,0-27.24-3.01-28.37-9.44-6.43-1.14-9.44-10.23-9.44-28.37V46.44c0-18.14,3.01-27.24,9.44-28.37,1.13-6.43,10.23-9.44,28.37-9.44h98.24c18.14,0,27.24,3.01,28.37,9.44,6.43,1.13,9.44,10.22,9.44,28.37v238.5c0,18.14-3.01,27.23-9.44,28.37-1.13,6.43-10.23,9.44-28.37,9.44ZM42.85,313.4c.68,2.83,4.53,7.38,26.37,7.38h98.24c21.85,0,25.69-4.55,26.37-7.38-2.16-.24-3.94-1.79-3.94-3.55,0-1.62,1.44-2.48,2.48-2.48,1.76,0,3.32,1.79,3.55,3.94,2.83-.68,7.38-4.53,7.38-26.37V46.44c0-21.85-4.54-25.69-7.38-26.37-.23,2.16-1.79,3.94-3.55,3.94-1.04,0-2.48-.86-2.48-2.48,0-1.76,1.79-3.31,3.94-3.55-.68-2.83-4.53-7.38-26.37-7.38h-98.24c-21.85,0-25.69,4.55-26.37,7.38,2.16.24,3.94,1.79,3.94,3.55,0,1.62-1.44,2.48-2.48,2.48-1.76,0-3.32-1.79-3.55-3.94-2.83.68-7.37,4.53-7.37,26.37v238.5c0,21.85,4.54,25.69,7.37,26.37.24-2.16,1.8-3.94,3.55-3.94,1.04,0,2.48.86,2.48,2.48,0,1.76-1.78,3.32-3.94,3.55ZM192.38,309.34s-.51.07-.51.51c0,.51.78,1.41,2.09,1.58-.17-1.31-1.07-2.09-1.58-2.09ZM44.32,309.34c-.51,0-1.41.78-1.58,2.09,1.31-.17,2.09-1.07,2.09-1.58,0-.43-.51-.51-.51-.51ZM193.96,19.95c-1.31.17-2.09,1.07-2.09,1.58,0,.43.51.51.51.51.51,0,1.41-.78,1.58-2.09ZM42.74,19.95c.17,1.31,1.07,2.09,1.58,2.09,0,0,.51-.07.51-.51,0-.51-.78-1.41-2.09-1.58Z"/>
      </g>
      <g id="Illustration">
        <g>
          <path class="cls-3" d="M155.49,103.54c-.96,0-1.86-.2-2.73-.4-.89-.2-1.81-.41-2.85-.41s-1.95.21-2.85.41c-.87.2-1.77.4-2.73.4-.33,0-.64-.16-.82-.44-.18-.27-.22-.62-.09-.93,2.43-5.75,3.97-11.84,4.57-18.09.1-1.01-.32-1.7-.68-2.1-.54-.6-1.34-.96-2.14-.96-.57,0-1.38.18-2.03,1.03-.84,1.09-1.76,2.13-2.73,3.11-1.68,1.68-3.91,2.6-6.28,2.6-4.91,0-8.88-3.97-8.88-8.88s3.91-8.87,8.88-8.87c2.37,0,4.6.92,6.28,2.6.97.97,1.89,2.02,2.73,3.11.69.89,1.6,1.02,2.07,1.02.65,0,1.3-.23,1.73-.61.52-.46.84-1.26.82-2.04-.02-.55-.21-1.34-1.02-1.97-1.08-.83-2.13-1.75-3.11-2.73-1.67-1.67-2.6-3.9-2.6-6.28,0-4.85,3.91-8.87,8.88-8.87s8.87,4.03,8.87,8.87c0,2.37-.92,4.6-2.6,6.28-.98.98-2.02,1.89-3.11,2.73-.82.63-1.01,1.42-1.03,1.97-.02.78.3,1.58.82,2.04.44.39,1.09.61,1.74.61.48,0,1.38-.13,2.07-1.02.83-1.08,1.75-2.12,2.73-3.11,1.68-1.68,3.91-2.6,6.28-2.6,4.97,0,8.87,4.03,8.87,8.87s-3.97,8.88-8.87,8.88c-2.37,0-4.6-.92-6.28-2.6-.98-.99-1.9-2.03-2.73-3.11-.65-.85-1.47-1.03-2.03-1.03-.8,0-1.59.35-2.14.96-.36.4-.78,1.09-.68,2.1.6,6.26,2.14,12.34,4.57,18.09.13.31.1.65-.09.93-.18.28-.49.44-.82.44Z"/>
          <path class="cls-2" d="M165.7,69.02c-2.63,0-5.11,1.03-6.97,2.89-1,1.01-1.95,2.08-2.82,3.21-.33.43-.76.64-1.29.64-.41,0-.82-.14-1.09-.37-.25-.22-.5-.7-.48-1.26.02-.5.23-.91.64-1.23,1.12-.87,2.2-1.82,3.2-2.82,1.86-1.86,2.89-4.34,2.89-6.97,0-5.45-4.41-9.86-9.86-9.86s-9.86,4.41-9.86,9.86c0,2.64,1.03,5.11,2.89,6.97,1,1,2.08,1.95,3.2,2.82.41.32.63.73.64,1.23.02.57-.23,1.04-.48,1.26-.26.23-.68.37-1.09.37-.53,0-.96-.22-1.29-.64-.87-1.12-1.81-2.2-2.82-3.21-1.86-1.86-4.34-2.89-6.97-2.89-5.45,0-9.86,4.41-9.86,9.86s4.41,9.86,9.86,9.86c2.64,0,5.11-1.02,6.97-2.89,1-1,1.95-2.08,2.81-3.2.33-.43.75-.64,1.25-.64s1.06.24,1.41.63c.33.37.48.82.43,1.35-.59,6.15-2.1,12.14-4.5,17.8-.26.61-.19,1.31.17,1.86.37.55.98.88,1.64.88,1.07,0,2.03-.21,2.95-.42.88-.2,1.71-.38,2.63-.38s1.75.18,2.63.38c.92.21,1.87.42,2.95.42.66,0,1.28-.33,1.64-.88.37-.55.43-1.25.17-1.86-2.39-5.66-3.9-11.64-4.49-17.8-.05-.52.09-.98.43-1.35.35-.39.89-.63,1.41-.63s.92.22,1.25.64c.86,1.12,1.81,2.2,2.81,3.2,1.86,1.86,4.34,2.89,6.97,2.89,5.45,0,9.86-4.41,9.86-9.86s-4.41-9.86-9.86-9.86ZM165.7,86.77c-2.18,0-4.15-.88-5.58-2.31-.95-.95-1.83-1.95-2.65-3.01-.76-.98-1.79-1.41-2.81-1.41-2.03,0-4.04,1.7-3.8,4.14.62,6.46,2.22,12.64,4.64,18.37-1.79,0-3.4-.81-5.58-.81s-3.79.81-5.58.81c2.43-5.74,4.02-11.91,4.64-18.37.23-2.45-1.77-4.14-3.8-4.14-1.03,0-2.06.43-2.82,1.41-.82,1.06-1.7,2.07-2.65,3.01-1.43,1.43-3.4,2.31-5.58,2.31-4.36,0-7.89-3.53-7.89-7.89s3.53-7.89,7.89-7.89c2.18,0,4.15.88,5.58,2.31.95.95,1.83,1.95,2.65,3.01.77.99,1.83,1.41,2.85,1.41.9,0,1.77-.32,2.38-.86,1.4-1.23,1.76-3.98-.26-5.53-1.06-.82-2.07-1.71-3.01-2.65-1.43-1.43-2.31-3.4-2.31-5.58,0-4.36,3.53-7.89,7.89-7.89s7.89,3.53,7.89,7.89c0,2.18-.88,4.15-2.31,5.58-.95.95-1.95,1.83-3.01,2.65-2.01,1.55-1.66,4.3-.25,5.53.61.54,1.48.86,2.38.86,1.02,0,2.09-.42,2.85-1.41.82-1.06,1.7-2.07,2.65-3.01,1.43-1.43,3.4-2.31,5.58-2.31,4.36,0,7.89,3.53,7.89,7.89s-3.53,7.89-7.89,7.89Z"/>
          <path class="cls-2" d="M149.92,91.2c.61,3,1.44,5.95,2.48,8.83-.74-.14-1.56-.26-2.48-.26s-1.74.12-2.48.26c1.04-2.88,1.86-5.83,2.48-8.83ZM137.78,79.87c-2.35,0-4.24-.44-4.24-.99s1.9-.99,4.24-.99c1.5,0,2.45.15,3.69.44-1.96-2-3.69-3.96-5.18-4.59-.67-.28-1.4-.44-2.17-.44-3.08,0-5.58,2.5-5.58,5.58s2.49,5.58,5.58,5.58c.77,0,1.5-.15,2.17-.44,1.49-.63,3.22-2.59,5.18-4.59-1.21.28-2.18.43-3.68.43ZM149.92,76.01c-.51,1.51-1.36,2.36-2.87,2.87,1.51.51,2.36,1.36,2.87,2.87.51-1.51,1.36-2.36,2.87-2.87-1.51-.51-2.36-1.36-2.87-2.87ZM149.92,57.49c-3.08,0-5.58,2.5-5.58,5.58,0,.77.16,1.5.44,2.17.63,1.49,2.59,3.22,4.59,5.18-.28-1.23-.44-2.19-.44-3.68,0-2.34.44-4.24.99-4.24s.99,1.9.99,4.24c0,1.5-.16,2.47-.44,3.68,2-1.96,3.96-3.69,4.59-5.18.28-.67.44-1.4.44-2.17,0-3.09-2.5-5.58-5.58-5.58ZM165.73,73.3c-.77,0-1.5.15-2.17.44-1.49.63-3.22,2.59-5.19,4.59,1.24-.28,2.19-.44,3.69-.44,2.34,0,4.24.44,4.24.99s-1.89.99-4.24.99c-1.51,0-2.47-.16-3.68-.43,1.96,2,3.69,3.96,5.18,4.59.67.28,1.4.44,2.17.44,3.09,0,5.58-2.5,5.58-5.58s-2.5-5.58-5.58-5.58Z"/>
        </g>
        <g>
          <path class="cls-3" d="M92.36,103.54c-.96,0-1.86-.2-2.73-.4-.89-.2-1.81-.41-2.85-.41s-1.95.21-2.85.41c-.87.2-1.77.4-2.73.4-.33,0-.64-.16-.82-.44-.18-.27-.22-.62-.09-.93,2.43-5.75,3.97-11.84,4.57-18.09.1-1.01-.32-1.7-.68-2.1-.54-.6-1.34-.96-2.14-.96-.57,0-1.38.18-2.03,1.03-.84,1.09-1.76,2.13-2.73,3.11-1.68,1.68-3.91,2.6-6.28,2.6-4.91,0-8.88-3.97-8.88-8.88s3.91-8.87,8.88-8.87c2.37,0,4.6.92,6.28,2.6.97.97,1.89,2.02,2.73,3.11.69.89,1.59,1.02,2.07,1.02.65,0,1.3-.23,1.73-.61.52-.46.84-1.26.82-2.04-.02-.55-.21-1.34-1.02-1.97-1.08-.83-2.13-1.75-3.11-2.73-1.67-1.67-2.6-3.9-2.6-6.28,0-4.85,3.91-8.87,8.88-8.87s8.87,4.03,8.87,8.87c0,2.37-.92,4.6-2.6,6.28-.98.98-2.02,1.89-3.11,2.73-.82.63-1.01,1.42-1.03,1.97-.02.78.3,1.58.82,2.04.44.39,1.09.61,1.74.61.48,0,1.38-.13,2.07-1.02.83-1.08,1.75-2.12,2.73-3.11,1.68-1.68,3.91-2.6,6.28-2.6,4.97,0,8.87,4.03,8.87,8.87s-3.97,8.88-8.87,8.88c-2.37,0-4.6-.92-6.28-2.6-.98-.99-1.9-2.03-2.73-3.11-.65-.85-1.47-1.03-2.03-1.03-.8,0-1.6.35-2.14.96-.36.4-.78,1.09-.68,2.1.6,6.26,2.14,12.34,4.57,18.09.13.31.09.65-.09.93-.18.28-.49.44-.82.44Z"/>
          <path class="cls-2" d="M102.56,69.02c-2.63,0-5.11,1.03-6.97,2.89-1,1.01-1.95,2.08-2.82,3.21-.33.43-.76.64-1.29.64-.41,0-.82-.14-1.09-.37-.25-.22-.5-.7-.48-1.26.02-.5.23-.91.64-1.23,1.12-.87,2.2-1.82,3.2-2.82,1.86-1.86,2.89-4.34,2.89-6.97,0-5.45-4.41-9.86-9.86-9.86s-9.86,4.41-9.86,9.86c0,2.64,1.03,5.11,2.89,6.97,1,1,2.08,1.95,3.2,2.82.41.32.63.73.64,1.23.02.57-.23,1.04-.48,1.26-.26.23-.68.37-1.09.37-.53,0-.96-.22-1.29-.64-.87-1.12-1.81-2.2-2.82-3.21-1.86-1.86-4.34-2.89-6.97-2.89-5.45,0-9.86,4.41-9.86,9.86s4.41,9.86,9.86,9.86c2.64,0,5.11-1.02,6.97-2.89,1-1,1.95-2.08,2.82-3.2.33-.43.75-.64,1.25-.64s1.06.24,1.41.63c.33.37.48.82.43,1.35-.59,6.15-2.1,12.14-4.5,17.8-.26.61-.19,1.31.17,1.86.37.55.98.88,1.64.88,1.07,0,2.03-.21,2.95-.42.88-.2,1.71-.38,2.63-.38s1.75.18,2.63.38c.92.21,1.87.42,2.95.42.66,0,1.28-.33,1.64-.88.37-.55.43-1.25.17-1.86-2.39-5.66-3.9-11.64-4.49-17.8-.05-.52.09-.98.43-1.35.35-.39.89-.63,1.41-.63s.92.22,1.25.64c.86,1.12,1.81,2.2,2.81,3.2,1.86,1.86,4.34,2.89,6.97,2.89,5.45,0,9.86-4.41,9.86-9.86s-4.41-9.86-9.86-9.86ZM102.56,86.77c-2.18,0-4.15-.88-5.58-2.31-.95-.95-1.83-1.95-2.65-3.01-.76-.98-1.79-1.41-2.81-1.41-2.03,0-4.04,1.7-3.8,4.14.62,6.46,2.22,12.64,4.64,18.37-1.79,0-3.4-.81-5.58-.81s-3.79.81-5.58.81c2.43-5.74,4.02-11.91,4.64-18.37.24-2.45-1.77-4.14-3.8-4.14-1.03,0-2.06.43-2.81,1.41-.82,1.06-1.7,2.07-2.65,3.01-1.43,1.43-3.4,2.31-5.58,2.31-4.36,0-7.89-3.53-7.89-7.89s3.53-7.89,7.89-7.89c2.18,0,4.15.88,5.58,2.31.95.95,1.83,1.95,2.65,3.01.77.99,1.83,1.41,2.85,1.41.9,0,1.77-.32,2.38-.86,1.4-1.23,1.76-3.98-.26-5.53-1.06-.82-2.06-1.71-3.01-2.65-1.43-1.43-2.31-3.4-2.31-5.58,0-4.36,3.53-7.89,7.89-7.89s7.89,3.53,7.89,7.89c0,2.18-.88,4.15-2.31,5.58-.95.95-1.95,1.83-3.01,2.65-2.01,1.55-1.66,4.3-.25,5.53.61.54,1.48.86,2.38.86,1.02,0,2.09-.42,2.85-1.41.82-1.06,1.7-2.07,2.65-3.01,1.43-1.43,3.4-2.31,5.58-2.31,4.36,0,7.89,3.53,7.89,7.89s-3.53,7.89-7.89,7.89Z"/>
          <path class="cls-2" d="M86.78,91.2c.61,3,1.44,5.95,2.48,8.83-.74-.14-1.56-.26-2.48-.26s-1.74.12-2.48.26c1.04-2.88,1.86-5.83,2.48-8.83ZM74.64,79.87c-2.35,0-4.24-.44-4.24-.99s1.9-.99,4.24-.99c1.5,0,2.45.15,3.69.44-1.96-2-3.69-3.96-5.18-4.59-.67-.28-1.4-.44-2.17-.44-3.08,0-5.58,2.5-5.58,5.58s2.49,5.58,5.58,5.58c.77,0,1.5-.15,2.17-.44,1.49-.63,3.22-2.59,5.18-4.59-1.21.28-2.18.43-3.68.43ZM86.78,76.01c-.51,1.51-1.36,2.36-2.87,2.87,1.51.51,2.36,1.36,2.87,2.87.51-1.51,1.36-2.36,2.87-2.87-1.51-.51-2.36-1.36-2.87-2.87ZM86.78,57.49c-3.08,0-5.58,2.5-5.58,5.58,0,.77.16,1.5.44,2.17.63,1.49,2.59,3.22,4.59,5.18-.28-1.23-.44-2.19-.44-3.68,0-2.34.44-4.24.99-4.24s.99,1.9.99,4.24c0,1.5-.16,2.47-.44,3.68,2-1.96,3.96-3.69,4.59-5.18.28-.67.44-1.4.44-2.17,0-3.09-2.5-5.58-5.58-5.58ZM102.59,73.3c-.77,0-1.5.15-2.17.44-1.49.63-3.22,2.59-5.19,4.59,1.24-.28,2.19-.44,3.69-.44,2.34,0,4.24.44,4.24.99s-1.89.99-4.24.99c-1.51,0-2.47-.16-3.68-.43,1.96,2,3.69,3.96,5.18,4.59.67.28,1.4.44,2.17.44,3.09,0,5.58-2.5,5.58-5.58s-2.5-5.58-5.58-5.58Z"/>
        </g>
        <g>
          <path class="cls-3" d="M81.2,163.57c.96,0,1.86.2,2.73.4.89.2,1.81.41,2.85.41s1.95-.21,2.85-.41c.87-.2,1.77-.4,2.73-.4.33,0,.64.17.82.44.18.28.22.62.09.93-2.43,5.75-3.97,11.84-4.57,18.09-.1,1.01.32,1.7.68,2.1.54.6,1.34.96,2.14.96.57,0,1.38-.18,2.03-1.03.84-1.09,1.76-2.13,2.73-3.11,1.68-1.67,3.91-2.6,6.28-2.6,4.91,0,8.88,3.97,8.88,8.88s-3.91,8.87-8.88,8.87c-2.37,0-4.6-.92-6.28-2.59-.97-.97-1.89-2.02-2.73-3.11-.69-.9-1.59-1.03-2.07-1.03-.65,0-1.3.23-1.73.62-.52.46-.84,1.25-.82,2.03.02.56.21,1.35,1.02,1.98,1.08.83,2.13,1.75,3.11,2.73,1.67,1.68,2.6,3.91,2.6,6.28,0,4.85-3.91,8.87-8.88,8.87s-8.87-4.03-8.87-8.87c0-2.37.92-4.6,2.6-6.28.98-.97,2.02-1.89,3.11-2.73.82-.63,1.01-1.42,1.03-1.98.02-.78-.3-1.58-.82-2.03-.44-.39-1.09-.62-1.74-.62-.48,0-1.38.13-2.07,1.03-.83,1.07-1.75,2.12-2.73,3.1-1.68,1.68-3.91,2.6-6.28,2.6-4.97,0-8.87-4.03-8.87-8.87s3.97-8.88,8.87-8.88c2.37,0,4.6.92,6.28,2.6.98.99,1.9,2.03,2.73,3.11.65.85,1.47,1.03,2.03,1.03.8,0,1.59-.36,2.14-.96.36-.4.78-1.09.68-2.1-.6-6.26-2.14-12.35-4.57-18.09-.13-.31-.09-.65.09-.93.18-.27.49-.44.82-.44Z"/>
          <path class="cls-2" d="M71,198.09c2.63,0,5.11-1.02,6.97-2.89,1-1,1.95-2.08,2.82-3.2.33-.43.76-.64,1.29-.64.41,0,.82.14,1.09.37.25.22.5.7.48,1.26-.02.5-.23.91-.64,1.22-1.12.87-2.2,1.82-3.2,2.82-1.86,1.86-2.89,4.34-2.89,6.97,0,5.45,4.41,9.86,9.86,9.86s9.86-4.41,9.86-9.86c0-2.64-1.03-5.11-2.89-6.97-1-1-2.08-1.95-3.2-2.82-.41-.32-.63-.73-.64-1.22-.02-.57.23-1.04.48-1.26.26-.23.68-.37,1.09-.37.53,0,.96.22,1.29.64.87,1.12,1.81,2.2,2.82,3.2,1.86,1.86,4.34,2.89,6.97,2.89,5.45,0,9.86-4.41,9.86-9.86s-4.41-9.86-9.86-9.86c-2.64,0-5.11,1.02-6.97,2.89-1,1-1.95,2.08-2.81,3.2-.33.43-.75.64-1.25.64s-1.06-.24-1.41-.63c-.33-.37-.48-.82-.43-1.35.59-6.15,2.1-12.14,4.5-17.79.26-.61.19-1.31-.17-1.86-.37-.55-.98-.88-1.64-.88-1.07,0-2.03.21-2.95.42-.88.2-1.71.38-2.63.38s-1.75-.19-2.63-.38c-.92-.21-1.87-.42-2.95-.42-.66,0-1.28.33-1.64.88-.37.55-.43,1.25-.17,1.86,2.39,5.66,3.9,11.64,4.49,17.79.05.53-.09.98-.43,1.35-.35.39-.89.63-1.41.63s-.92-.22-1.25-.64c-.86-1.12-1.81-2.2-2.82-3.2-1.86-1.86-4.34-2.89-6.97-2.89-5.45,0-9.86,4.41-9.86,9.86s4.41,9.86,9.86,9.86ZM71,180.34c2.18,0,4.15.88,5.58,2.31.95.95,1.83,1.95,2.65,3.02.76.98,1.79,1.41,2.81,1.41,2.03,0,4.04-1.69,3.8-4.14-.62-6.46-2.22-12.63-4.64-18.37,1.79,0,3.4.8,5.58.8s3.79-.8,5.58-.8c-2.43,5.74-4.02,11.91-4.64,18.37-.23,2.45,1.77,4.14,3.8,4.14,1.03,0,2.06-.43,2.81-1.41.82-1.06,1.7-2.07,2.65-3.02,1.43-1.43,3.4-2.31,5.58-2.31,4.36,0,7.89,3.53,7.89,7.89s-3.53,7.89-7.89,7.89c-2.18,0-4.15-.89-5.58-2.31-.95-.95-1.83-1.95-2.65-3.02-.77-.99-1.83-1.41-2.85-1.41-.9,0-1.77.32-2.38.86-1.4,1.23-1.76,3.98.26,5.54,1.06.82,2.07,1.7,3.01,2.65,1.43,1.43,2.31,3.4,2.31,5.58,0,4.36-3.53,7.89-7.89,7.89s-7.89-3.53-7.89-7.89c0-2.18.88-4.15,2.31-5.58.95-.95,1.95-1.83,3.01-2.65,2.01-1.56,1.66-4.3.25-5.54-.61-.53-1.48-.86-2.38-.86-1.02,0-2.09.42-2.85,1.41-.82,1.06-1.7,2.06-2.65,3.02-1.43,1.42-3.4,2.31-5.58,2.31-4.36,0-7.89-3.53-7.89-7.89s3.53-7.89,7.89-7.89Z"/>
          <path class="cls-2" d="M86.78,175.91c-.61-3-1.44-5.95-2.48-8.83.74.15,1.56.26,2.48.26s1.74-.11,2.48-.26c-1.04,2.88-1.86,5.82-2.48,8.82ZM98.92,187.24c2.35,0,4.24.45,4.24.99s-1.9.99-4.24.99c-1.5,0-2.45-.15-3.69-.44,1.96,2.01,3.69,3.96,5.18,4.6.67.28,1.4.44,2.17.44,3.08,0,5.58-2.5,5.58-5.58s-2.49-5.58-5.58-5.58c-.77,0-1.5.16-2.17.44-1.49.63-3.22,2.58-5.18,4.59,1.21-.28,2.18-.44,3.68-.44ZM86.78,191.1c.51-1.51,1.36-2.36,2.87-2.87-1.51-.51-2.36-1.36-2.87-2.87-.51,1.5-1.36,2.36-2.87,2.87,1.51.51,2.36,1.36,2.87,2.87ZM86.78,209.62c3.08,0,5.58-2.5,5.58-5.58,0-.77-.16-1.5-.44-2.17-.63-1.49-2.59-3.22-4.59-5.19.28,1.24.44,2.19.44,3.69,0,2.34-.44,4.24-.99,4.24s-.99-1.9-.99-4.24c0-1.51.16-2.48.44-3.69-2,1.96-3.96,3.69-4.59,5.19-.28.67-.44,1.4-.44,2.17,0,3.09,2.5,5.58,5.58,5.58ZM70.97,193.81c.77,0,1.5-.16,2.17-.44,1.49-.63,3.22-2.59,5.19-4.6-1.24.29-2.19.44-3.69.44-2.34,0-4.24-.44-4.24-.99s1.89-.99,4.24-.99c1.5,0,2.47.16,3.68.44-1.96-2-3.69-3.96-5.18-4.59-.67-.29-1.4-.44-2.17-.44-3.09,0-5.58,2.5-5.58,5.58s2.5,5.58,5.58,5.58Z"/>
        </g>
        <g>
          <path class="cls-3" d="M144.34,163.57c.96,0,1.86.2,2.73.4.89.2,1.81.41,2.85.41s1.95-.21,2.85-.41c.87-.2,1.77-.4,2.73-.4.33,0,.64.17.82.44.18.28.22.62.09.93-2.43,5.75-3.97,11.84-4.57,18.09-.1,1.01.32,1.7.68,2.1.54.6,1.34.96,2.14.96.57,0,1.38-.18,2.03-1.03.84-1.09,1.76-2.13,2.73-3.11,1.68-1.67,3.91-2.6,6.28-2.6,4.91,0,8.88,3.97,8.88,8.88s-3.91,8.87-8.88,8.87c-2.37,0-4.6-.92-6.28-2.59-.97-.97-1.89-2.02-2.73-3.11-.69-.9-1.59-1.03-2.07-1.03-.65,0-1.3.23-1.73.62-.52.46-.84,1.25-.82,2.03.02.56.21,1.35,1.02,1.98,1.08.83,2.13,1.75,3.11,2.73,1.67,1.68,2.6,3.91,2.6,6.28,0,4.85-3.91,8.87-8.88,8.87s-8.87-4.03-8.87-8.87c0-2.37.92-4.6,2.6-6.28.98-.97,2.02-1.89,3.11-2.73.82-.63,1.01-1.42,1.03-1.98.02-.78-.3-1.58-.82-2.03-.44-.39-1.09-.62-1.74-.62-.48,0-1.38.13-2.07,1.03-.83,1.07-1.75,2.12-2.73,3.1-1.68,1.68-3.91,2.6-6.28,2.6-4.97,0-8.87-4.03-8.87-8.87s3.97-8.88,8.87-8.88c2.37,0,4.6.92,6.28,2.6.98.99,1.9,2.03,2.73,3.11.65.85,1.47,1.03,2.03,1.03.8,0,1.6-.36,2.14-.96.36-.4.78-1.09.68-2.1-.6-6.26-2.14-12.35-4.57-18.09-.13-.31-.09-.65.09-.93.18-.27.49-.44.82-.44Z"/>
          <path class="cls-2" d="M134.14,198.09c2.63,0,5.11-1.02,6.97-2.89,1-1,1.95-2.08,2.82-3.2.33-.43.76-.64,1.29-.64.41,0,.82.14,1.09.37.25.22.5.7.48,1.26-.02.5-.23.91-.64,1.22-1.12.87-2.2,1.82-3.2,2.82-1.86,1.86-2.89,4.34-2.89,6.97,0,5.45,4.41,9.86,9.86,9.86s9.86-4.41,9.86-9.86c0-2.64-1.03-5.11-2.89-6.97-1-1-2.08-1.95-3.2-2.82-.41-.32-.63-.73-.64-1.22-.02-.57.23-1.04.48-1.26.26-.23.68-.37,1.09-.37.53,0,.96.22,1.29.64.87,1.12,1.81,2.2,2.82,3.2,1.86,1.86,4.34,2.89,6.97,2.89,5.45,0,9.86-4.41,9.86-9.86s-4.41-9.86-9.86-9.86c-2.63,0-5.11,1.02-6.97,2.89-1,1-1.95,2.08-2.81,3.2-.33.43-.75.64-1.25.64s-1.06-.24-1.41-.63c-.33-.37-.48-.82-.43-1.35.59-6.15,2.1-12.14,4.5-17.79.26-.61.19-1.31-.17-1.86-.37-.55-.98-.88-1.64-.88-1.07,0-2.03.21-2.95.42-.88.2-1.71.38-2.63.38s-1.75-.19-2.63-.38c-.92-.21-1.87-.42-2.95-.42-.66,0-1.28.33-1.64.88-.37.55-.43,1.25-.17,1.86,2.39,5.66,3.9,11.64,4.49,17.79.05.53-.09.98-.43,1.35-.35.39-.89.63-1.41.63s-.92-.22-1.25-.64c-.86-1.12-1.81-2.2-2.81-3.2-1.86-1.86-4.34-2.89-6.97-2.89-5.45,0-9.86,4.41-9.86,9.86s4.41,9.86,9.86,9.86ZM134.14,180.34c2.18,0,4.15.88,5.58,2.31.95.95,1.83,1.95,2.65,3.02.76.98,1.79,1.41,2.82,1.41,2.03,0,4.04-1.69,3.8-4.14-.62-6.46-2.22-12.63-4.64-18.37,1.79,0,3.4.8,5.58.8s3.79-.8,5.58-.8c-2.43,5.74-4.02,11.91-4.64,18.37-.24,2.45,1.77,4.14,3.8,4.14,1.03,0,2.06-.43,2.81-1.41.82-1.06,1.7-2.07,2.65-3.02,1.43-1.43,3.4-2.31,5.58-2.31,4.36,0,7.89,3.53,7.89,7.89s-3.53,7.89-7.89,7.89c-2.18,0-4.15-.89-5.58-2.31-.94-.95-1.83-1.95-2.65-3.02-.77-.99-1.83-1.41-2.85-1.41-.9,0-1.77.32-2.38.86-1.4,1.23-1.76,3.98.26,5.54,1.06.82,2.06,1.7,3.01,2.65,1.43,1.43,2.31,3.4,2.31,5.58,0,4.36-3.53,7.89-7.89,7.89s-7.89-3.53-7.89-7.89c0-2.18.88-4.15,2.31-5.58.95-.95,1.95-1.83,3.01-2.65,2.01-1.56,1.66-4.3.25-5.54-.61-.53-1.48-.86-2.38-.86-1.02,0-2.09.42-2.85,1.41-.82,1.06-1.7,2.06-2.65,3.02-1.43,1.42-3.4,2.31-5.58,2.31-4.36,0-7.89-3.53-7.89-7.89s3.53-7.89,7.89-7.89Z"/>
          <path class="cls-2" d="M149.92,175.91c-.61-3-1.44-5.95-2.48-8.83.74.15,1.56.26,2.48.26s1.74-.11,2.48-.26c-1.04,2.88-1.86,5.82-2.48,8.82ZM162.06,187.24c2.35,0,4.24.45,4.24.99s-1.9.99-4.24.99c-1.5,0-2.45-.15-3.69-.44,1.96,2.01,3.69,3.96,5.18,4.6.67.28,1.4.44,2.17.44,3.08,0,5.58-2.5,5.58-5.58s-2.49-5.58-5.58-5.58c-.77,0-1.5.16-2.17.44-1.49.63-3.22,2.58-5.18,4.59,1.21-.28,2.18-.44,3.68-.44ZM149.92,191.1c.51-1.51,1.36-2.36,2.87-2.87-1.51-.51-2.36-1.36-2.87-2.87-.51,1.5-1.36,2.36-2.87,2.87,1.51.51,2.36,1.36,2.87,2.87ZM149.92,209.62c3.08,0,5.58-2.5,5.58-5.58,0-.77-.16-1.5-.44-2.17-.63-1.49-2.59-3.22-4.59-5.19.28,1.24.44,2.19.44,3.69,0,2.34-.44,4.24-.99,4.24s-.99-1.9-.99-4.24c0-1.51.16-2.48.44-3.69-2,1.96-3.96,3.69-4.59,5.19-.28.67-.44,1.4-.44,2.17,0,3.09,2.5,5.58,5.58,5.58ZM134.11,193.81c.77,0,1.5-.16,2.17-.44,1.49-.63,3.22-2.59,5.19-4.6-1.24.29-2.19.44-3.69.44-2.34,0-4.24-.44-4.24-.99s1.89-.99,4.24-.99c1.51,0,2.47.16,3.68.44-1.96-2-3.69-3.96-5.18-4.59-.67-.29-1.4-.44-2.17-.44-3.09,0-5.58,2.5-5.58,5.58s2.5,5.58,5.58,5.58Z"/>
        </g>
        <g>
          <path class="cls-3" d="M81.2,227.84c.96,0,1.86.2,2.73.4.89.2,1.81.41,2.85.41s1.95-.21,2.85-.41c.87-.2,1.77-.4,2.73-.4.33,0,.64.16.82.44.18.27.22.62.09.93-2.43,5.75-3.97,11.84-4.57,18.09-.1,1.01.32,1.7.68,2.1.54.6,1.34.96,2.14.96.57,0,1.38-.18,2.03-1.03.84-1.09,1.76-2.13,2.73-3.11,1.68-1.68,3.91-2.6,6.28-2.6,4.91,0,8.88,3.97,8.88,8.88s-3.91,8.87-8.88,8.87c-2.37,0-4.6-.92-6.28-2.6-.97-.97-1.89-2.02-2.73-3.11-.69-.89-1.59-1.02-2.07-1.02-.65,0-1.3.23-1.73.61-.52.46-.84,1.26-.82,2.04.02.55.21,1.34,1.02,1.97,1.08.83,2.13,1.75,3.11,2.73,1.67,1.67,2.6,3.9,2.6,6.28,0,4.85-3.91,8.87-8.88,8.87s-8.87-4.03-8.87-8.87c0-2.37.92-4.6,2.6-6.28.98-.98,2.02-1.89,3.11-2.73.82-.63,1.01-1.42,1.03-1.97.02-.78-.3-1.58-.82-2.04-.44-.39-1.09-.61-1.74-.61-.48,0-1.38.13-2.07,1.02-.83,1.08-1.75,2.12-2.73,3.11-1.68,1.68-3.91,2.6-6.28,2.6-4.97,0-8.87-4.03-8.87-8.87s3.97-8.88,8.87-8.88c2.37,0,4.6.92,6.28,2.6.98.99,1.9,2.03,2.73,3.11.65.85,1.47,1.03,2.03,1.03.8,0,1.59-.35,2.14-.96.36-.4.78-1.09.68-2.1-.6-6.26-2.14-12.34-4.57-18.09-.13-.31-.09-.65.09-.93.18-.28.49-.44.82-.44Z"/>
          <path class="cls-2" d="M71,262.36c2.63,0,5.11-1.03,6.97-2.89,1-1.01,1.95-2.08,2.82-3.21.33-.43.76-.64,1.29-.64.41,0,.82.14,1.09.37.25.22.5.7.48,1.26-.02.5-.23.91-.64,1.23-1.12.87-2.2,1.82-3.2,2.82-1.86,1.86-2.89,4.34-2.89,6.97,0,5.45,4.41,9.86,9.86,9.86s9.86-4.41,9.86-9.86c0-2.64-1.03-5.11-2.89-6.97-1-1-2.08-1.95-3.2-2.82-.41-.32-.63-.73-.64-1.23-.02-.57.23-1.04.48-1.26.26-.23.68-.37,1.09-.37.53,0,.96.22,1.29.64.87,1.12,1.81,2.2,2.82,3.21,1.86,1.86,4.34,2.89,6.97,2.89,5.45,0,9.86-4.41,9.86-9.86s-4.41-9.86-9.86-9.86c-2.64,0-5.11,1.02-6.97,2.89-1,1-1.95,2.08-2.81,3.2-.33.43-.75.64-1.25.64s-1.06-.24-1.41-.63c-.33-.37-.48-.82-.43-1.35.59-6.15,2.1-12.14,4.5-17.8.26-.61.19-1.31-.17-1.86-.37-.55-.98-.88-1.64-.88-1.07,0-2.03.21-2.95.42-.88.2-1.71.38-2.63.38s-1.75-.18-2.63-.38c-.92-.21-1.87-.42-2.95-.42-.66,0-1.28.33-1.64.88-.37.55-.43,1.25-.17,1.86,2.39,5.66,3.9,11.64,4.49,17.8.05.52-.09.98-.43,1.35-.35.39-.89.63-1.41.63s-.92-.22-1.25-.64c-.86-1.12-1.81-2.2-2.82-3.2-1.86-1.86-4.34-2.89-6.97-2.89-5.45,0-9.86,4.41-9.86,9.86s4.41,9.86,9.86,9.86ZM71,244.61c2.18,0,4.15.88,5.58,2.31.95.95,1.83,1.95,2.65,3.01.76.98,1.79,1.41,2.81,1.41,2.03,0,4.04-1.7,3.8-4.14-.62-6.46-2.22-12.64-4.64-18.37,1.79,0,3.4.81,5.58.81s3.79-.81,5.58-.81c-2.43,5.74-4.02,11.91-4.64,18.37-.23,2.45,1.77,4.14,3.8,4.14,1.03,0,2.06-.43,2.81-1.41.82-1.06,1.7-2.07,2.65-3.01,1.43-1.43,3.4-2.31,5.58-2.31,4.36,0,7.89,3.53,7.89,7.89s-3.53,7.89-7.89,7.89c-2.18,0-4.15-.88-5.58-2.31-.95-.95-1.83-1.95-2.65-3.01-.77-.99-1.83-1.41-2.85-1.41-.9,0-1.77.32-2.38.86-1.4,1.23-1.76,3.98.26,5.53,1.06.82,2.07,1.71,3.01,2.65,1.43,1.43,2.31,3.4,2.31,5.58,0,4.36-3.53,7.89-7.89,7.89s-7.89-3.53-7.89-7.89c0-2.18.88-4.15,2.31-5.58.95-.95,1.95-1.83,3.01-2.65,2.01-1.55,1.66-4.3.25-5.53-.61-.54-1.48-.86-2.38-.86-1.02,0-2.09.42-2.85,1.41-.82,1.06-1.7,2.07-2.65,3.01-1.43,1.43-3.4,2.31-5.58,2.31-4.36,0-7.89-3.53-7.89-7.89s3.53-7.89,7.89-7.89Z"/>
          <path class="cls-2" d="M86.78,240.17c-.61-3-1.44-5.95-2.48-8.83.74.14,1.56.26,2.48.26s1.74-.12,2.48-.26c-1.04,2.88-1.86,5.83-2.48,8.83ZM98.92,251.51c2.35,0,4.24.44,4.24.99s-1.9.99-4.24.99c-1.5,0-2.45-.15-3.69-.44,1.96,2,3.69,3.96,5.18,4.59.67.28,1.4.44,2.17.44,3.08,0,5.58-2.5,5.58-5.58s-2.49-5.58-5.58-5.58c-.77,0-1.5.15-2.17.44-1.49.63-3.22,2.59-5.18,4.59,1.21-.28,2.18-.43,3.68-.43ZM86.78,255.37c.51-1.51,1.36-2.36,2.87-2.87-1.51-.51-2.36-1.36-2.87-2.87-.51,1.51-1.36,2.36-2.87,2.87,1.51.51,2.36,1.36,2.87,2.87ZM86.78,273.89c3.08,0,5.58-2.5,5.58-5.58,0-.77-.16-1.5-.44-2.17-.63-1.49-2.59-3.22-4.59-5.18.28,1.23.44,2.19.44,3.68,0,2.34-.44,4.24-.99,4.24s-.99-1.9-.99-4.24c0-1.5.16-2.47.44-3.68-2,1.96-3.96,3.69-4.59,5.18-.28.67-.44,1.4-.44,2.17,0,3.09,2.5,5.58,5.58,5.58ZM70.97,258.08c.77,0,1.5-.15,2.17-.44,1.49-.63,3.22-2.59,5.19-4.59-1.24.28-2.19.44-3.69.44-2.34,0-4.24-.44-4.24-.99s1.89-.99,4.24-.99c1.5,0,2.47.16,3.68.43-1.96-2-3.69-3.96-5.18-4.59-.67-.28-1.4-.44-2.17-.44-3.09,0-5.58,2.5-5.58,5.58s2.5,5.58,5.58,5.58Z"/>
        </g>
        <g>
          <path class="cls-3" d="M144.34,227.84c.96,0,1.86.2,2.73.4.89.2,1.81.41,2.85.41s1.95-.21,2.85-.41c.87-.2,1.77-.4,2.73-.4.33,0,.64.16.82.44.18.27.22.62.09.93-2.43,5.75-3.97,11.84-4.57,18.09-.1,1.01.32,1.7.68,2.1.54.6,1.34.96,2.14.96.57,0,1.38-.18,2.03-1.03.84-1.09,1.76-2.13,2.73-3.11,1.68-1.68,3.91-2.6,6.28-2.6,4.91,0,8.88,3.97,8.88,8.88s-3.91,8.87-8.88,8.87c-2.37,0-4.6-.92-6.28-2.6-.97-.97-1.89-2.02-2.73-3.11-.69-.89-1.59-1.02-2.07-1.02-.65,0-1.3.23-1.73.61-.52.46-.84,1.26-.82,2.04.02.55.21,1.34,1.02,1.97,1.08.83,2.13,1.75,3.11,2.73,1.67,1.67,2.6,3.9,2.6,6.28,0,4.85-3.91,8.87-8.88,8.87s-8.87-4.03-8.87-8.87c0-2.37.92-4.6,2.6-6.28.98-.98,2.02-1.89,3.11-2.73.82-.63,1.01-1.42,1.03-1.97.02-.78-.3-1.58-.82-2.04-.44-.39-1.09-.61-1.74-.61-.48,0-1.38.13-2.07,1.02-.83,1.08-1.75,2.12-2.73,3.11-1.68,1.68-3.91,2.6-6.28,2.6-4.97,0-8.87-4.03-8.87-8.87s3.97-8.88,8.87-8.88c2.37,0,4.6.92,6.28,2.6.98.99,1.9,2.03,2.73,3.11.65.85,1.47,1.03,2.03,1.03.8,0,1.6-.35,2.14-.96.36-.4.78-1.09.68-2.1-.6-6.26-2.14-12.34-4.57-18.09-.13-.31-.09-.65.09-.93.18-.28.49-.44.82-.44Z"/>
          <path class="cls-2" d="M134.14,262.36c2.63,0,5.11-1.03,6.97-2.89,1-1.01,1.95-2.08,2.82-3.21.33-.43.76-.64,1.29-.64.41,0,.82.14,1.09.37.25.22.5.7.48,1.26-.02.5-.23.91-.64,1.23-1.12.87-2.2,1.82-3.2,2.82-1.86,1.86-2.89,4.34-2.89,6.97,0,5.45,4.41,9.86,9.86,9.86s9.86-4.41,9.86-9.86c0-2.64-1.03-5.11-2.89-6.97-1-1-2.08-1.95-3.2-2.82-.41-.32-.63-.73-.64-1.23-.02-.57.23-1.04.48-1.26.26-.23.68-.37,1.09-.37.53,0,.96.22,1.29.64.87,1.12,1.81,2.2,2.82,3.21,1.86,1.86,4.34,2.89,6.97,2.89,5.45,0,9.86-4.41,9.86-9.86s-4.41-9.86-9.86-9.86c-2.63,0-5.11,1.02-6.97,2.89-1,1-1.95,2.08-2.81,3.2-.33.43-.75.64-1.25.64s-1.06-.24-1.41-.63c-.33-.37-.48-.82-.43-1.35.59-6.15,2.1-12.14,4.5-17.8.26-.61.19-1.31-.17-1.86-.37-.55-.98-.88-1.64-.88-1.07,0-2.03.21-2.95.42-.88.2-1.71.38-2.63.38s-1.75-.18-2.63-.38c-.92-.21-1.87-.42-2.95-.42-.66,0-1.28.33-1.64.88-.37.55-.43,1.25-.17,1.86,2.39,5.66,3.9,11.64,4.49,17.8.05.52-.09.98-.43,1.35-.35.39-.89.63-1.41.63s-.92-.22-1.25-.64c-.86-1.12-1.81-2.2-2.81-3.2-1.86-1.86-4.34-2.89-6.97-2.89-5.45,0-9.86,4.41-9.86,9.86s4.41,9.86,9.86,9.86ZM134.14,244.61c2.18,0,4.15.88,5.58,2.31.95.95,1.83,1.95,2.65,3.01.76.98,1.79,1.41,2.82,1.41,2.03,0,4.04-1.7,3.8-4.14-.62-6.46-2.22-12.64-4.64-18.37,1.79,0,3.4.81,5.58.81s3.79-.81,5.58-.81c-2.43,5.74-4.02,11.91-4.64,18.37-.24,2.45,1.77,4.14,3.8,4.14,1.03,0,2.06-.43,2.81-1.41.82-1.06,1.7-2.07,2.65-3.01,1.43-1.43,3.4-2.31,5.58-2.31,4.36,0,7.89,3.53,7.89,7.89s-3.53,7.89-7.89,7.89c-2.18,0-4.15-.88-5.58-2.31-.94-.95-1.83-1.95-2.65-3.01-.77-.99-1.83-1.41-2.85-1.41-.9,0-1.77.32-2.38.86-1.4,1.23-1.76,3.98.26,5.53,1.06.82,2.06,1.71,3.01,2.65,1.43,1.43,2.31,3.4,2.31,5.58,0,4.36-3.53,7.89-7.89,7.89s-7.89-3.53-7.89-7.89c0-2.18.88-4.15,2.31-5.58.95-.95,1.95-1.83,3.01-2.65,2.01-1.55,1.66-4.3.25-5.53-.61-.54-1.48-.86-2.38-.86-1.02,0-2.09.42-2.85,1.41-.82,1.06-1.7,2.07-2.65,3.01-1.43,1.43-3.4,2.31-5.58,2.31-4.36,0-7.89-3.53-7.89-7.89s3.53-7.89,7.89-7.89Z"/>
          <path class="cls-2" d="M149.92,240.17c-.61-3-1.44-5.95-2.48-8.83.74.14,1.56.26,2.48.26s1.74-.12,2.48-.26c-1.04,2.88-1.86,5.83-2.48,8.83ZM162.06,251.51c2.35,0,4.24.44,4.24.99s-1.9.99-4.24.99c-1.5,0-2.45-.15-3.69-.44,1.96,2,3.69,3.96,5.18,4.59.67.28,1.4.44,2.17.44,3.08,0,5.58-2.5,5.58-5.58s-2.49-5.58-5.58-5.58c-.77,0-1.5.15-2.17.44-1.49.63-3.22,2.59-5.18,4.59,1.21-.28,2.18-.43,3.68-.43ZM149.92,255.37c.51-1.51,1.36-2.36,2.87-2.87-1.51-.51-2.36-1.36-2.87-2.87-.51,1.51-1.36,2.36-2.87,2.87,1.51.51,2.36,1.36,2.87,2.87ZM149.92,273.89c3.08,0,5.58-2.5,5.58-5.58,0-.77-.16-1.5-.44-2.17-.63-1.49-2.59-3.22-4.59-5.18.28,1.23.44,2.19.44,3.68,0,2.34-.44,4.24-.99,4.24s-.99-1.9-.99-4.24c0-1.5.16-2.47.44-3.68-2,1.96-3.96,3.69-4.59,5.18-.28.67-.44,1.4-.44,2.17,0,3.09,2.5,5.58,5.58,5.58ZM134.11,258.08c.77,0,1.5-.15,2.17-.44,1.49-.63,3.22-2.59,5.19-4.59-1.24.28-2.19.44-3.69.44-2.34,0-4.24-.44-4.24-.99s1.89-.99,4.24-.99c1.51,0,2.47.16,3.68.43-1.96-2-3.69-3.96-5.18-4.59-.67-.28-1.4-.44-2.17-.44-3.09,0-5.58,2.5-5.58,5.58s2.5,5.58,5.58,5.58Z"/>
        </g>
        <g>
          <path class="cls-3" d="M123.93,158.21c-.96,0-1.86-.2-2.73-.4-.89-.2-1.81-.41-2.85-.41s-1.95.21-2.85.41c-.87.2-1.77.4-2.73.4-.33,0-.64-.16-.82-.44-.18-.27-.22-.62-.09-.93,2.43-5.75,3.97-11.84,4.57-18.09.1-1.01-.32-1.7-.68-2.1-.54-.6-1.34-.96-2.14-.96-.57,0-1.38.18-2.03,1.03-.84,1.09-1.76,2.13-2.73,3.11-1.68,1.68-3.91,2.6-6.28,2.6-4.91,0-8.88-3.97-8.88-8.88s3.91-8.87,8.88-8.87c2.37,0,4.6.92,6.28,2.6.97.97,1.89,2.02,2.73,3.11.69.89,1.59,1.02,2.07,1.02.65,0,1.3-.23,1.73-.61.52-.46.84-1.26.82-2.04-.02-.55-.21-1.34-1.02-1.97-1.08-.83-2.13-1.75-3.11-2.73-1.67-1.67-2.6-3.9-2.6-6.28,0-4.85,3.91-8.87,8.88-8.87s8.87,4.03,8.87,8.87c0,2.37-.92,4.6-2.6,6.28-.98.98-2.02,1.89-3.11,2.73-.82.63-1.01,1.42-1.03,1.97-.02.78.3,1.58.82,2.04.44.39,1.09.61,1.74.61.48,0,1.38-.13,2.07-1.02.83-1.08,1.75-2.12,2.73-3.11,1.68-1.68,3.91-2.6,6.28-2.6,4.97,0,8.87,4.03,8.87,8.87s-3.97,8.88-8.87,8.88c-2.37,0-4.6-.92-6.28-2.6-.98-.99-1.9-2.03-2.73-3.11-.65-.85-1.47-1.03-2.03-1.03-.8,0-1.6.35-2.14.96-.36.4-.78,1.09-.68,2.1.6,6.26,2.14,12.34,4.57,18.09.13.31.09.65-.09.93-.18.28-.49.44-.82.44Z"/>
          <path class="cls-2" d="M134.13,123.69c-2.63,0-5.11,1.03-6.97,2.89-1,1.01-1.95,2.08-2.82,3.21-.33.43-.76.64-1.29.64-.41,0-.82-.14-1.09-.37-.25-.22-.5-.7-.48-1.26.02-.5.23-.91.64-1.23,1.12-.87,2.2-1.82,3.2-2.82,1.86-1.86,2.89-4.34,2.89-6.97,0-5.45-4.41-9.86-9.86-9.86s-9.86,4.41-9.86,9.86c0,2.64,1.03,5.11,2.89,6.97,1,1,2.08,1.95,3.2,2.82.41.32.63.73.64,1.23.02.57-.23,1.04-.48,1.26-.26.23-.68.37-1.09.37-.53,0-.96-.22-1.29-.64-.87-1.13-1.81-2.2-2.82-3.21-1.86-1.86-4.34-2.89-6.97-2.89-5.45,0-9.86,4.41-9.86,9.86s4.41,9.86,9.86,9.86c2.64,0,5.11-1.02,6.97-2.89,1-1,1.95-2.08,2.81-3.2.33-.43.75-.64,1.25-.64s1.06.24,1.41.63c.33.37.48.82.43,1.35-.59,6.15-2.1,12.14-4.5,17.8-.26.61-.19,1.31.17,1.86.37.55.98.88,1.64.88,1.07,0,2.03-.21,2.95-.42.88-.2,1.71-.38,2.63-.38s1.75.18,2.63.38c.92.21,1.87.42,2.95.42.66,0,1.28-.33,1.64-.88.37-.55.43-1.25.17-1.86-2.39-5.66-3.9-11.64-4.49-17.8-.05-.52.09-.98.43-1.35.35-.39.89-.63,1.41-.63s.92.22,1.25.64c.86,1.12,1.81,2.2,2.81,3.2,1.86,1.86,4.34,2.89,6.97,2.89,5.45,0,9.86-4.41,9.86-9.86s-4.41-9.86-9.86-9.86ZM134.13,141.44c-2.18,0-4.15-.88-5.58-2.31-.95-.94-1.83-1.95-2.65-3.01-.76-.98-1.79-1.41-2.81-1.41-2.03,0-4.04,1.7-3.8,4.14.62,6.46,2.21,12.64,4.64,18.37-1.79,0-3.4-.81-5.58-.81s-3.79.81-5.58.81c2.43-5.74,4.02-11.91,4.64-18.37.24-2.45-1.77-4.14-3.8-4.14-1.03,0-2.06.43-2.81,1.41-.82,1.06-1.7,2.07-2.65,3.01-1.43,1.43-3.4,2.31-5.58,2.31-4.36,0-7.89-3.53-7.89-7.89s3.53-7.89,7.89-7.89c2.18,0,4.15.88,5.58,2.31.95.94,1.83,1.95,2.65,3.01.77.99,1.83,1.41,2.85,1.41.9,0,1.77-.32,2.38-.86,1.4-1.23,1.76-3.98-.26-5.53-1.06-.82-2.06-1.71-3.01-2.65-1.43-1.43-2.31-3.4-2.31-5.58,0-4.36,3.53-7.89,7.89-7.89s7.89,3.53,7.89,7.89c0,2.18-.88,4.15-2.31,5.58-.95.95-1.95,1.83-3.01,2.65-2.01,1.55-1.66,4.3-.25,5.53.61.54,1.48.86,2.38.86,1.02,0,2.09-.42,2.85-1.41.82-1.06,1.7-2.07,2.65-3.01,1.43-1.43,3.4-2.31,5.58-2.31,4.36,0,7.89,3.53,7.89,7.89s-3.53,7.89-7.89,7.89Z"/>
          <path class="cls-2" d="M118.35,145.88c.61,3,1.44,5.95,2.48,8.83-.74-.14-1.56-.26-2.48-.26s-1.74.12-2.48.26c1.04-2.88,1.86-5.82,2.48-8.83ZM106.21,134.54c-2.35,0-4.24-.44-4.24-.99s1.9-.99,4.24-.99c1.5,0,2.45.15,3.69.44-1.96-2-3.69-3.96-5.18-4.59-.67-.28-1.4-.44-2.17-.44-3.08,0-5.58,2.5-5.58,5.58s2.49,5.58,5.58,5.58c.77,0,1.5-.15,2.17-.44,1.49-.63,3.22-2.59,5.18-4.59-1.21.28-2.18.43-3.68.43ZM118.35,130.69c-.51,1.51-1.36,2.36-2.87,2.87,1.51.51,2.36,1.36,2.87,2.87.51-1.51,1.36-2.36,2.87-2.87-1.51-.51-2.36-1.36-2.87-2.87ZM118.35,112.17c-3.08,0-5.58,2.5-5.58,5.58,0,.77.16,1.51.44,2.17.63,1.49,2.59,3.22,4.59,5.18-.28-1.23-.44-2.19-.44-3.68,0-2.34.44-4.24.99-4.24s.99,1.9.99,4.24c0,1.51-.16,2.47-.44,3.68,2-1.96,3.96-3.69,4.59-5.18.28-.67.44-1.4.44-2.17,0-3.09-2.5-5.58-5.58-5.58ZM134.16,127.98c-.77,0-1.5.15-2.17.44-1.49.63-3.22,2.59-5.19,4.59,1.24-.28,2.19-.44,3.69-.44,2.34,0,4.24.44,4.24.99s-1.89.99-4.24.99c-1.5,0-2.47-.16-3.68-.43,1.96,2,3.69,3.96,5.18,4.59.67.28,1.4.44,2.17.44,3.09,0,5.58-2.5,5.58-5.58s-2.5-5.58-5.58-5.58Z"/>
        </g>
      </g>
      <g id="_7" data-name="7">
        <path class="cls-4" d="M217.83,297.18c0-.5-.1-1.16-.31-1.97h6.49c-.93.93-1.54,6.03-4.8,16.25l-1.83,5.84c-.36,1.17-.4,1.44-.4,1.64,0,.59.38,1.8,2.73,1.8h.93c2.65,0,4.84-3.07,5.47-6.65.65,1.29.97,2.89.97,4.8,0,2.55-.5,3.83-1.51,3.83h-14.22c.31-.38.6-.89.88-1.51l1.06-2.45c1.14-2.72,2.31-7.31,3.52-13.77.76-3.99,1.01-5.65,1.01-7.81Z"/>
        <path class="cls-4" d="M18.87,34.2c0,.5.1,1.15.31,1.97h-6.49c.92-.92,1.52-5.94,4.8-16.25l1.83-5.84c.36-1.17.4-1.44.4-1.64,0-.59-.38-1.8-2.73-1.8h-.93c-2.65,0-4.85,3.07-5.47,6.65-.65-1.29-.97-2.89-.97-4.8,0-2.55.5-3.83,1.51-3.83h14.22c-.31.39-.6.89-.88,1.51l-1.06,2.45c-1.14,2.72-2.31,7.31-3.52,13.77-.76,4-1.01,5.65-1.01,7.81Z"/>
      </g>
      <g id="Clubs">
        <path class="cls-2" d="M216.19,282.15c-.2.47-.31.99-.31,1.54,0,2.18,1.77,3.94,3.94,3.94s3.94-1.77,3.94-3.94c0-.55-.11-1.07-.31-1.54-.39-.92-.85-1.81-1.37-2.66-.35-.57-.52-1.25-.17-1.61.35-.35,1.03-.19,1.61.17.84.52,1.73.98,2.65,1.37.47.2.99.31,1.54.31,2.18,0,3.94-1.77,3.94-3.94s-1.77-3.95-3.94-3.95c-.54,0-1.06.11-1.54.31-.92.39-1.81.85-2.65,1.37-1.17.72-2.4.11-2.45-1.26,0-.21-.01-.42-.01-.63,0-2.72.55-5.32,1.55-7.68-.9,0-1.7.4-2.79.4s-1.99-.4-2.79-.4c1,2.36,1.55,4.95,1.55,7.68,0,.21,0,.43-.01.63-.05,1.38-1.28,1.99-2.45,1.26-.84-.52-1.73-.98-2.65-1.37-.47-.2-.99-.31-1.54-.31-2.18,0-3.94,1.77-3.94,3.95s1.77,3.94,3.94,3.94c.54,0,1.06-.11,1.54-.31.92-.39,1.81-.85,2.65-1.37.57-.35,1.25-.52,1.61-.17.36.35.18,1.04-.17,1.61-.52.84-.98,1.73-1.37,2.66Z"/>
        <path class="cls-2" d="M20.51,49.23c.2-.47.31-.99.31-1.54,0-2.18-1.77-3.95-3.94-3.95s-3.95,1.77-3.95,3.95c0,.55.11,1.07.31,1.54.39.92.85,1.81,1.37,2.66.35.57.52,1.25.17,1.61-.35.35-1.04.19-1.61-.17-.84-.52-1.73-.98-2.65-1.37-.47-.2-.99-.31-1.54-.31-2.18,0-3.94,1.77-3.94,3.94s1.77,3.94,3.94,3.94c.54,0,1.06-.11,1.54-.31.92-.39,1.81-.85,2.65-1.37,1.17-.72,2.4-.11,2.45,1.26,0,.21.01.42.01.63,0,2.72-.55,5.32-1.55,7.68.9,0,1.7-.4,2.79-.4s1.99.4,2.79.4c-1-2.36-1.55-4.95-1.55-7.68,0-.21,0-.43.01-.63.05-1.38,1.28-1.99,2.45-1.26.84.52,1.73.98,2.65,1.37.47.2.99.31,1.54.31,2.18,0,3.95-1.77,3.95-3.94s-1.77-3.94-3.95-3.94c-.54,0-1.06.11-1.54.31-.92.39-1.81.85-2.65,1.37-.57.35-1.25.52-1.61.17-.36-.35-.18-1.04.17-1.61.52-.84.98-1.73,1.37-2.66Z"/>
      </g>
    </g>
  </g>
</svg>