<?xml version="1.0" encoding="UTF-8"?>
<svg id="Layer_2" data-name="Layer 2" xmlns="http://www.w3.org/2000/svg" viewBox="0 0 236.7 331.38">
  <defs>
    <style>
      .cls-1 {
        fill: #fb212e;
      }

      .cls-2 {
        fill: #ede8da;
      }

      .cls-3 {
        fill: #3a2b0e;
      }

      .cls-4 {
        fill: #fff;
      }
    </style>
  </defs>
  <g id="_Layer_" data-name="&amp;lt;Layer&amp;gt;">
    <g id="_7_Hearts" data-name="7 Hearts">
      <path id="BG" class="cls-4" d="M14.2,0h208.3c7.84,0,14.2,6.36,14.2,14.2v302.98c0,7.84-6.36,14.2-14.2,14.2H14.2c-7.84,0-14.2-6.36-14.2-14.2V14.2C0,6.36,6.36,0,14.2,0Z"/>
      <g>
        <path class="cls-2" d="M204.29,172.12l-43.32-3.74,43.32,1.73v-1.98l-43.2-1.86h43.2v-1.97h-43.3l43.3-2.14v-1.97l-43.43,2.28,43.43-4.3v-1.98l-43.54,4.31,43.54-6.35v-1.99l-43.88,6.4,43.88-8.49v-2.01l-44.21,8.56,44.21-10.69v-2.03l-44.51,10.76,44.51-12.96v-2.06l-47.7,13.89,47.7-16.47v-2.09l-51.42,17.75,51.42-20.9v-2.13l-58,23.57,58-28.04v-2.19l-63.82,30.86,63.82-37.33v-2.28l-66.9,39.13,66.9-47.38v-2.42l-68.02,48.18,68.02-57.67v-2.59l-69.3,58.76,69.3-69.97v-2.8l-70.71,71.4,70.71-85.06v-3.08l-72.21,86.87,72.17-104.02c-.02-1.16-.06-2.25-.11-3.31l-73.68,106.2L200.88,23.39c-.38-.72-.78-1.34-1.21-1.86l-70.93,124L190.03,12.79c-.55-.27-1.15-.52-1.82-.76l-61.26,132.66L175.5,9.86c-.66-.04-1.36-.07-2.06-.1l-48.34,134.28L160.65,9.62h-2.04l-35.42,133.91L146.4,9.62h-2l-23.15,133.56,11.33-133.56h-1.98l-11.47,133.41V9.62h-1.97v133.41L105.36,9.62h-1.98l11.97,133.59L91.54,9.62h-2l23.87,133.93L77.3,9.62h-2.04l36.24,134.44L62.43,9.79c-.71.04-1.39.08-2.05.13l49.26,134.81L47.74,12.32c-.66.26-1.26.54-1.79.83l61.91,132.42L36.52,22.22c-.39.58-.77,1.24-1.12,2.01l66.94,115.75L32.83,36.02c-.09,1.01-.17,2.07-.23,3.2l65.71,98.27L32.41,50.15v3.28l61.97,82.12L32.41,61.62v3.07l58.69,70.02-58.69-63.58v2.9l56.29,60.98-56.29-55.59v2.77l54.89,54.22-54.89-49.42v2.65l53.57,48.23-53.57-43.92v2.55l52.29,42.87-52.29-38.98v2.46l51.13,38.12-51.13-34.56v2.38l50.04,33.83-50.04-30.56v2.31l48.96,29.9-48.96-26.87v2.25l48,26.34-48-23.53v2.2l47.21,23.14-47.21-20.5v2.15l46.39,20.14-46.39-17.64v2.11l45.68,17.37-45.68-15v2.08l45.05,14.78-45.05-12.51v2.05l44.59,12.39-44.59-10.19v2.02l44.13,10.09-44.13-7.96v2l43.71,7.89-43.71-5.82v1.99l43.48,5.79-43.48-3.76v1.98l43.27,3.74-43.27-1.73v1.98l43.26,1.86h-43.26v1.97h43.3l-43.3,2.14v1.97l43.37-2.28-43.37,4.29v1.98l43.59-4.32-43.59,6.36v1.99l43.82-6.4-43.82,8.48v2.01l44.26-8.56-44.26,10.7v2.03l44.45-10.75-44.45,12.94v2.06l47.7-13.88-47.7,16.47v2.09l51.46-17.77-51.46,20.91v2.13l57.81-23.49-57.81,27.95v2.19l63.97-30.93-63.97,37.42v2.28l66.9-39.13-66.9,47.38v2.42l68.02-48.18-68.02,57.68v2.59l69.29-58.75-69.29,69.97v2.8l70.7-71.39-70.7,85.04v3.08l72.22-86.88-72.18,104.04c.02,1.15.06,2.25.11,3.31l73.69-106.21-70.42,123.11c.38.72.78,1.34,1.21,1.87l70.92-123.99-61.28,132.72c.55.26,1.15.52,1.82.76l61.26-132.66-48.54,134.84c.66.04,1.36.07,2.06.1l48.34-134.28-35.56,134.41h2.04l35.42-133.91-23.21,133.91h2l23.15-133.57-11.33,133.57h1.98l11.47-133.41v133.41h1.97v-133.4l11.79,133.4h1.98l-11.97-133.59,23.81,133.59h2l-23.87-133.92,36.11,133.92h2.04l-36.25-134.44,49.07,134.27c.71-.04,1.39-.08,2.05-.13l-49.26-134.81,61.91,132.42c.65-.26,1.26-.53,1.79-.83l-61.91-132.43,71.34,123.36c.39-.58.77-1.24,1.12-2.01l-66.92-115.72,69.49,103.93c.09-1.01.17-2.07.23-3.19l-65.74-98.31,65.93,87.38v-3.27l-61.93-82.08,61.93,73.89v-3.07l-58.69-70.02,58.69,63.58v-2.9l-56.29-60.98,56.29,55.59v-2.77l-54.89-54.22,54.89,49.42v-2.65l-53.57-48.23,53.57,43.92v-2.55l-52.32-42.9,52.32,39v-2.46l-51.13-38.12,51.13,34.56v-2.38l-50.01-33.8,50.01,30.53v-2.31l-48.98-29.91,48.98,26.88v-2.25l-48.04-26.37,48.04,23.55v-2.2l-47.15-23.11,47.15,20.47v-2.15l-46.4-20.14,46.4,17.65v-2.11l-45.68-17.37,45.68,14.99v-2.08l-45.09-14.8,45.09,12.52v-2.05l-44.54-12.37,44.54,10.18v-2.02l-44.13-10.09,44.13,7.96v-2.01l-43.76-7.9,43.76,5.82v-1.99l-43.43-5.78,43.43,3.75v-1.98Z"/>
        <path class="cls-3" d="M167.47,322.74h-98.24c-18.14,0-27.24-3.01-28.37-9.44-6.43-1.13-9.44-10.23-9.44-28.37V46.44c0-18.14,3.01-27.24,9.44-28.37,1.13-6.43,10.23-9.44,28.37-9.44h98.24c18.14,0,27.24,3.01,28.37,9.44,6.43,1.13,9.44,10.23,9.44,28.37v238.5c0,18.14-3.01,27.24-9.44,28.37-1.13,6.43-10.23,9.44-28.37,9.44ZM42.85,313.4c.68,2.83,4.53,7.38,26.37,7.38h98.24c21.85,0,25.69-4.54,26.37-7.38-2.16-.24-3.94-1.8-3.94-3.55,0-1.62,1.44-2.48,2.48-2.48,1.76,0,3.32,1.78,3.55,3.94,2.83-.68,7.38-4.53,7.38-26.37V46.44c0-21.85-4.54-25.69-7.38-26.37-.23,2.16-1.79,3.95-3.55,3.95-1.04,0-2.48-.86-2.48-2.48,0-1.76,1.79-3.31,3.94-3.55-.68-2.83-4.53-7.38-26.37-7.38h-98.24c-21.85,0-25.69,4.54-26.37,7.38,2.16.23,3.94,1.79,3.94,3.55,0,1.62-1.44,2.48-2.48,2.48-1.76,0-3.32-1.79-3.55-3.95-2.83.68-7.37,4.53-7.37,26.37v238.5c0,21.85,4.54,25.69,7.37,26.37.24-2.16,1.8-3.94,3.55-3.94,1.04,0,2.48.86,2.48,2.48,0,1.76-1.78,3.32-3.94,3.55ZM192.38,309.34s-.51.07-.51.5c0,.51.78,1.41,2.09,1.58-.17-1.31-1.07-2.09-1.58-2.09ZM44.32,309.34c-.51,0-1.41.78-1.58,2.09,1.31-.17,2.09-1.07,2.09-1.58,0-.43-.51-.5-.51-.5ZM193.96,19.95c-1.31.17-2.09,1.07-2.09,1.58,0,.43.51.51.51.51.51,0,1.41-.78,1.58-2.09ZM42.74,19.95c.17,1.31,1.07,2.09,1.58,2.09,0,0,.51-.07.51-.51,0-.51-.78-1.41-2.09-1.58Z"/>
      </g>
      <g id="Illustration">
        <g>
          <path class="cls-4" d="M149.92,102.22c-.4,0-.75-.23-.91-.6-2.96-6.92-6.87-9.24-11.01-11.7-2.33-1.39-4.75-2.83-7.04-5.12-5.38-5.39-5.89-14.45-1.1-19.78,2.45-2.72,5.63-4.23,8.97-4.23,5.14,0,8.68,3.25,11.08,7.73,3.04-5.66,7.01-7.73,11.09-7.73,3.34,0,6.52,1.5,8.97,4.23,4.78,5.33,4.28,14.38-1.1,19.78-2.29,2.29-4.7,3.73-7.04,5.12-4.14,2.46-8.05,4.79-11.01,11.7-.16.36-.51.6-.91.6Z"/>
          <path class="cls-1" d="M170.71,64.36c-2.64-2.93-6.09-4.55-9.71-4.55-4.85,0-8.43,2.62-11.08,6.77-2.65-4.15-6.23-6.77-11.08-6.77-3.62,0-7.07,1.62-9.71,4.55-5.13,5.7-4.61,15.38,1.14,21.14,2.37,2.38,4.84,3.85,7.23,5.27,4.17,2.48,7.77,4.62,10.61,11.25.31.73,1.02,1.2,1.81,1.2s1.5-.47,1.81-1.2c2.84-6.62,6.44-8.77,10.61-11.25,2.39-1.42,4.86-2.89,7.23-5.27,5.74-5.76,6.26-15.43,1.14-21.14ZM168.17,84.1c-6.19,6.21-13.46,5.95-18.26,17.13-4.79-11.18-12.07-10.92-18.26-17.13-5-5.01-5.51-13.48-1.07-18.42,2.47-2.74,5.44-3.9,8.24-3.9,7.96,0,10.83,8.8,11.08,9.06.26-.26,3.09-9.06,11.08-9.06,2.8,0,5.77,1.16,8.24,3.9,4.44,4.94,3.93,13.41-1.07,18.42Z"/>
          <path class="cls-1" d="M145.82,79.87c-3.33,0-6.04,2.73-6.05,6.09-6.81-5.15-4.34-12.42-3.81-13.7.35-.85.83-1.15.92-1.18.23,3.15,3,5.54,6.13,5.31,2.52-.18,4.51-1.99,5.11-4.32,1.03,2.81,1.33,5.82.92,8.74-.93-.59-2.03-.95-3.22-.95ZM154.02,81.84c-1.11,0-2.11.45-2.85,1.18.21,2.58.86,4.64,1.27,5.77-1.1,1.42-2.52,3.6-2.52,3.6,0,0-1.42-2.19-2.52-3.6.42-1.13,1.06-3.19,1.27-5.77-.74-.73-1.74-1.18-2.85-1.18-2.3,0-4.08,1.91-4.08,4.14s1.12,3.46,2.49,4.44c2,1.44,3.98,3.17,5.69,6.46,1.71-3.29,3.69-5.02,5.69-6.46,1.37-.98,2.49-2.15,2.49-4.44s-1.78-4.14-4.08-4.14ZM134.34,71.09c.68-1.32,1.7-1.92,2.39-1.97,1.09-.08,2.03.74,2.11,1.83.15,2.07,1.95,3.63,4.02,3.48,2.07-.15,3.63-1.95,3.49-4.02-.3-4.11-3.79-6.65-7.51-6.65-1.76,0-4.36.56-6.77,3.25-3.7,4.12-3.24,11.46,1,15.71.96.96,1.98,1.74,3.02,2.47-3.48-4.16-3.72-10.24-1.73-14.09ZM154.02,79.87c3.33,0,6.04,2.73,6.05,6.09,6.81-5.15,4.34-12.42,3.81-13.7-.35-.85-.83-1.15-.92-1.18-.23,3.15-3,5.54-6.13,5.31-2.52-.18-4.51-1.99-5.11-4.32-1.03,2.81-1.33,5.82-.92,8.74.93-.59,2.03-.95,3.21-.95ZM163.76,85.17c1.04-.73,2.06-1.5,3.02-2.47,4.23-4.24,4.7-11.59,1-15.71-2.41-2.68-5.01-3.25-6.77-3.25-3.72,0-7.22,2.55-7.52,6.65-.15,2.07,1.41,3.87,3.49,4.02,2.07.15,3.87-1.41,4.02-3.48.08-1.09,1.02-1.9,2.11-1.83.69.05,1.7.65,2.39,1.97,2,3.85,1.75,9.93-1.73,14.09Z"/>
        </g>
        <g>
          <path class="cls-4" d="M86.78,102.22c-.4,0-.75-.23-.91-.6-2.96-6.92-6.87-9.24-11.01-11.7-2.33-1.39-4.75-2.83-7.04-5.12-5.38-5.39-5.89-14.45-1.1-19.78,2.45-2.72,5.64-4.23,8.97-4.23,5.14,0,8.68,3.25,11.08,7.73,3.04-5.66,7.01-7.73,11.08-7.73,3.34,0,6.52,1.5,8.97,4.23,4.78,5.33,4.28,14.38-1.1,19.78-2.29,2.29-4.7,3.73-7.04,5.12-4.14,2.46-8.05,4.79-11.01,11.7-.16.36-.51.6-.91.6Z"/>
          <path class="cls-1" d="M107.57,64.36c-2.64-2.93-6.09-4.55-9.71-4.55-4.85,0-8.43,2.62-11.08,6.77-2.65-4.15-6.23-6.77-11.08-6.77-3.62,0-7.07,1.62-9.71,4.55-5.13,5.7-4.61,15.38,1.14,21.14,2.37,2.38,4.84,3.85,7.23,5.27,4.17,2.48,7.77,4.62,10.61,11.25.31.73,1.02,1.2,1.81,1.2s1.5-.47,1.81-1.2c2.84-6.62,6.44-8.77,10.61-11.25,2.39-1.42,4.86-2.89,7.23-5.27,5.74-5.76,6.26-15.43,1.14-21.14ZM105.04,84.1c-6.19,6.21-13.46,5.95-18.26,17.13-4.79-11.18-12.07-10.92-18.26-17.13-5-5.01-5.51-13.48-1.07-18.42,2.47-2.74,5.44-3.9,8.24-3.9,7.96,0,10.83,8.8,11.08,9.06.26-.26,3.09-9.06,11.08-9.06,2.8,0,5.77,1.16,8.24,3.9,4.44,4.94,3.93,13.41-1.07,18.42Z"/>
          <path class="cls-1" d="M82.68,79.87c-3.33,0-6.04,2.73-6.05,6.09-6.81-5.15-4.34-12.42-3.81-13.7.35-.85.83-1.15.92-1.18.23,3.15,3,5.54,6.13,5.31,2.52-.18,4.51-1.99,5.11-4.32,1.03,2.81,1.33,5.82.92,8.74-.94-.59-2.03-.95-3.22-.95ZM90.88,81.84c-1.11,0-2.11.45-2.85,1.18.21,2.58.86,4.64,1.27,5.77-1.1,1.42-2.52,3.6-2.52,3.6,0,0-1.42-2.19-2.52-3.6.42-1.13,1.06-3.19,1.27-5.77-.74-.73-1.74-1.18-2.85-1.18-2.3,0-4.08,1.91-4.08,4.14s1.12,3.46,2.49,4.44c2,1.44,3.98,3.17,5.69,6.46,1.71-3.29,3.69-5.02,5.69-6.46,1.37-.98,2.49-2.15,2.49-4.44s-1.78-4.14-4.08-4.14ZM71.21,71.09c.68-1.32,1.7-1.92,2.39-1.97,1.09-.08,2.03.74,2.11,1.83.15,2.07,1.95,3.63,4.02,3.48,2.07-.15,3.63-1.95,3.48-4.02-.3-4.11-3.79-6.65-7.51-6.65-1.76,0-4.36.56-6.77,3.25-3.7,4.12-3.24,11.46,1,15.71.96.96,1.98,1.74,3.02,2.47-3.48-4.16-3.72-10.24-1.73-14.09ZM90.88,79.87c3.33,0,6.04,2.73,6.05,6.09,6.81-5.15,4.34-12.42,3.81-13.7-.35-.85-.83-1.15-.92-1.18-.23,3.15-3,5.54-6.13,5.31-2.52-.18-4.52-1.99-5.11-4.32-1.03,2.81-1.33,5.82-.92,8.74.93-.59,2.03-.95,3.21-.95ZM100.62,85.17c1.04-.73,2.06-1.5,3.02-2.47,4.23-4.24,4.7-11.59,1-15.71-2.41-2.68-5.01-3.25-6.77-3.25-3.72,0-7.22,2.55-7.52,6.65-.15,2.07,1.41,3.87,3.49,4.02,2.07.15,3.87-1.41,4.02-3.48.08-1.09,1.02-1.9,2.11-1.83.69.05,1.7.65,2.39,1.97,2,3.85,1.75,9.93-1.73,14.09Z"/>
        </g>
        <g>
          <path class="cls-4" d="M86.78,164.89c.4,0,.75.23.91.6,2.96,6.92,6.87,9.24,11.01,11.7,2.33,1.39,4.75,2.83,7.04,5.12,5.38,5.39,5.89,14.45,1.1,19.77-2.45,2.73-5.63,4.23-8.97,4.23-5.14,0-8.68-3.25-11.08-7.73-3.04,5.66-7.01,7.73-11.09,7.73-3.33,0-6.52-1.5-8.97-4.23-4.78-5.33-4.28-14.38,1.1-19.77,2.29-2.29,4.7-3.73,7.04-5.12,4.14-2.46,8.05-4.79,11.01-11.7.16-.36.51-.6.91-.6Z"/>
          <path class="cls-1" d="M65.99,202.75c2.64,2.93,6.09,4.55,9.71,4.55,4.85,0,8.43-2.62,11.08-6.77,2.65,4.15,6.23,6.77,11.08,6.77,3.62,0,7.07-1.62,9.71-4.55,5.12-5.7,4.6-15.38-1.14-21.14-2.37-2.38-4.84-3.85-7.23-5.27-4.17-2.48-7.77-4.62-10.61-11.25-.31-.73-1.02-1.2-1.81-1.2s-1.5.47-1.81,1.2c-2.84,6.62-6.44,8.77-10.61,11.25-2.39,1.42-4.86,2.89-7.23,5.27-5.74,5.76-6.26,15.43-1.14,21.14ZM68.53,183.01c6.19-6.21,13.46-5.95,18.26-17.13,4.79,11.18,12.07,10.92,18.26,17.13,5,5.01,5.51,13.48,1.07,18.42-2.47,2.74-5.44,3.9-8.24,3.9-7.96,0-10.83-8.8-11.08-9.06-.26.26-3.09,9.06-11.08,9.06-2.8,0-5.77-1.16-8.24-3.9-4.44-4.94-3.93-13.41,1.07-18.42Z"/>
          <path class="cls-1" d="M90.88,187.24c3.33,0,6.04-2.73,6.05-6.09,6.81,5.15,4.34,12.42,3.81,13.7-.35.85-.83,1.15-.92,1.18-.23-3.15-3-5.54-6.13-5.31-2.52.18-4.51,1.99-5.11,4.32-1.03-2.81-1.33-5.82-.92-8.74.93.59,2.03.95,3.22.95ZM82.68,185.27c1.11,0,2.11-.45,2.85-1.18-.21-2.58-.86-4.64-1.27-5.77,1.1-1.42,2.52-3.6,2.52-3.6,0,0,1.42,2.19,2.52,3.6-.42,1.13-1.06,3.19-1.27,5.77.74.73,1.74,1.18,2.85,1.18,2.3,0,4.08-1.91,4.08-4.14s-1.12-3.46-2.49-4.44c-2-1.44-3.98-3.17-5.69-6.46-1.71,3.29-3.69,5.02-5.69,6.46-1.37.98-2.49,2.15-2.49,4.44s1.78,4.14,4.08,4.14ZM102.35,196.02c-.68,1.32-1.7,1.92-2.39,1.97-1.09.08-2.03-.74-2.11-1.83-.15-2.07-1.95-3.63-4.02-3.48-2.07.15-3.63,1.95-3.49,4.02.3,4.11,3.79,6.65,7.51,6.65,1.76,0,4.36-.56,6.77-3.25,3.7-4.12,3.24-11.46-1-15.71-.96-.96-1.98-1.74-3.02-2.47,3.48,4.16,3.72,10.24,1.73,14.09ZM82.68,187.24c-3.33,0-6.04-2.73-6.06-6.09-6.81,5.15-4.34,12.42-3.81,13.7.35.85.83,1.15.92,1.18.23-3.15,3-5.54,6.13-5.31,2.52.18,4.52,1.99,5.11,4.32,1.03-2.81,1.33-5.82.92-8.74-.94.59-2.03.95-3.21.95ZM72.94,181.93c-1.04.73-2.06,1.5-3.02,2.47-4.23,4.24-4.7,11.59-1,15.71,2.41,2.68,5.01,3.25,6.77,3.25,3.72,0,7.22-2.55,7.52-6.65.15-2.07-1.41-3.87-3.49-4.02-2.07-.15-3.87,1.41-4.02,3.48-.08,1.09-1.02,1.9-2.11,1.83-.69-.05-1.7-.65-2.39-1.97-2-3.85-1.75-9.93,1.73-14.09Z"/>
        </g>
        <g>
          <path class="cls-4" d="M149.92,164.89c.4,0,.75.23.91.6,2.96,6.92,6.87,9.24,11.01,11.7,2.33,1.39,4.75,2.83,7.04,5.12,5.38,5.39,5.89,14.45,1.1,19.77-2.45,2.73-5.64,4.23-8.97,4.23-5.14,0-8.68-3.25-11.09-7.73-3.04,5.66-7.01,7.73-11.08,7.73-3.34,0-6.52-1.5-8.97-4.23-4.78-5.33-4.28-14.38,1.1-19.77,2.29-2.29,4.7-3.73,7.04-5.12,4.14-2.46,8.05-4.79,11.01-11.7.16-.36.51-.6.91-.6Z"/>
          <path class="cls-1" d="M129.13,202.75c2.64,2.93,6.09,4.55,9.71,4.55,4.85,0,8.43-2.62,11.08-6.77,2.65,4.15,6.23,6.77,11.08,6.77,3.62,0,7.07-1.62,9.71-4.55,5.13-5.7,4.61-15.38-1.14-21.14-2.37-2.38-4.84-3.85-7.23-5.27-4.17-2.48-7.77-4.62-10.61-11.25-.31-.73-1.02-1.2-1.81-1.2s-1.5.47-1.81,1.2c-2.84,6.62-6.44,8.77-10.61,11.25-2.39,1.42-4.86,2.89-7.23,5.27-5.74,5.76-6.26,15.43-1.14,21.14ZM131.66,183.01c6.19-6.21,13.46-5.95,18.26-17.13,4.79,11.18,12.07,10.92,18.26,17.13,5,5.01,5.51,13.48,1.07,18.42-2.47,2.74-5.44,3.9-8.24,3.9-7.96,0-10.83-8.8-11.08-9.06-.26.26-3.09,9.06-11.08,9.06-2.8,0-5.77-1.16-8.24-3.9-4.44-4.94-3.93-13.41,1.07-18.42Z"/>
          <path class="cls-1" d="M154.02,187.24c3.33,0,6.04-2.73,6.05-6.09,6.81,5.15,4.34,12.42,3.81,13.7-.35.85-.83,1.15-.92,1.18-.23-3.15-3-5.54-6.13-5.31-2.52.18-4.51,1.99-5.11,4.32-1.03-2.81-1.33-5.82-.92-8.74.93.59,2.03.95,3.22.95ZM145.82,185.27c1.11,0,2.11-.45,2.85-1.18-.21-2.58-.86-4.64-1.27-5.77,1.1-1.42,2.52-3.6,2.52-3.6,0,0,1.42,2.19,2.52,3.6-.42,1.13-1.06,3.19-1.27,5.77.74.73,1.74,1.18,2.85,1.18,2.3,0,4.08-1.91,4.08-4.14s-1.12-3.46-2.49-4.44c-2-1.44-3.98-3.17-5.69-6.46-1.71,3.29-3.69,5.02-5.69,6.46-1.37.98-2.49,2.15-2.49,4.44s1.78,4.14,4.08,4.14ZM165.49,196.02c-.68,1.32-1.7,1.92-2.39,1.97-1.09.08-2.03-.74-2.11-1.83-.15-2.07-1.95-3.63-4.02-3.48-2.07.15-3.63,1.95-3.49,4.02.3,4.11,3.79,6.65,7.51,6.65,1.76,0,4.36-.56,6.77-3.25,3.7-4.12,3.24-11.46-1-15.71-.96-.96-1.98-1.74-3.02-2.47,3.48,4.16,3.72,10.24,1.73,14.09ZM145.82,187.24c-3.33,0-6.04-2.73-6.05-6.09-6.81,5.15-4.34,12.42-3.81,13.7.35.85.83,1.15.92,1.18.23-3.15,3-5.54,6.13-5.31,2.52.18,4.52,1.99,5.11,4.32,1.03-2.81,1.33-5.82.92-8.74-.93.59-2.03.95-3.21.95ZM136.07,181.93c-1.04.73-2.06,1.5-3.02,2.47-4.23,4.24-4.7,11.59-1,15.71,2.41,2.68,5.01,3.25,6.77,3.25,3.72,0,7.22-2.55,7.52-6.65.15-2.07-1.41-3.87-3.49-4.02-2.07-.15-3.87,1.41-4.02,3.48-.08,1.09-1.02,1.9-2.11,1.83-.69-.05-1.7-.65-2.39-1.97-2-3.85-1.75-9.93,1.73-14.09Z"/>
        </g>
        <g>
          <path class="cls-4" d="M86.78,229.16c.4,0,.75.23.91.6,2.96,6.92,6.87,9.24,11.01,11.7,2.33,1.39,4.75,2.83,7.04,5.12,5.38,5.39,5.89,14.45,1.1,19.78-2.45,2.72-5.63,4.23-8.97,4.23-5.14,0-8.68-3.25-11.08-7.73-3.04,5.66-7.01,7.73-11.09,7.73-3.33,0-6.52-1.5-8.97-4.23-4.78-5.33-4.28-14.38,1.1-19.78,2.29-2.29,4.7-3.73,7.04-5.12,4.14-2.46,8.05-4.79,11.01-11.7.16-.36.51-.6.91-.6Z"/>
          <path class="cls-1" d="M65.99,267.02c2.64,2.93,6.09,4.55,9.71,4.55,4.85,0,8.43-2.62,11.08-6.77,2.65,4.15,6.23,6.77,11.08,6.77,3.62,0,7.07-1.62,9.71-4.55,5.12-5.7,4.6-15.38-1.14-21.14-2.37-2.38-4.84-3.85-7.23-5.27-4.17-2.48-7.77-4.62-10.61-11.25-.31-.73-1.02-1.2-1.81-1.2s-1.5.47-1.81,1.2c-2.84,6.62-6.44,8.77-10.61,11.25-2.39,1.42-4.86,2.89-7.23,5.27-5.74,5.76-6.26,15.43-1.14,21.14ZM68.53,247.27c6.19-6.21,13.46-5.95,18.26-17.13,4.79,11.18,12.07,10.92,18.26,17.13,5,5.01,5.51,13.48,1.07,18.42-2.47,2.74-5.44,3.9-8.24,3.9-7.96,0-10.83-8.8-11.08-9.06-.26.26-3.09,9.06-11.08,9.06-2.8,0-5.77-1.16-8.24-3.9-4.44-4.94-3.93-13.41,1.07-18.42Z"/>
          <path class="cls-1" d="M90.88,251.51c3.33,0,6.04-2.73,6.05-6.09,6.81,5.15,4.34,12.42,3.81,13.7-.35.85-.83,1.15-.92,1.18-.23-3.15-3-5.54-6.13-5.31-2.52.18-4.51,1.99-5.11,4.32-1.03-2.81-1.33-5.82-.92-8.74.93.59,2.03.95,3.22.95ZM82.68,249.53c1.11,0,2.11-.45,2.85-1.18-.21-2.58-.86-4.64-1.27-5.77,1.1-1.42,2.52-3.6,2.52-3.6,0,0,1.42,2.19,2.52,3.6-.42,1.13-1.06,3.19-1.27,5.77.74.73,1.74,1.18,2.85,1.18,2.3,0,4.08-1.91,4.08-4.14s-1.12-3.46-2.49-4.44c-2-1.44-3.98-3.17-5.69-6.46-1.71,3.29-3.69,5.02-5.69,6.46-1.37.98-2.49,2.15-2.49,4.44s1.78,4.14,4.08,4.14ZM102.35,260.29c-.68,1.32-1.7,1.92-2.39,1.97-1.09.08-2.03-.74-2.11-1.83-.15-2.07-1.95-3.63-4.02-3.48-2.07.15-3.63,1.95-3.49,4.02.3,4.11,3.79,6.65,7.51,6.65,1.76,0,4.36-.56,6.77-3.25,3.7-4.12,3.24-11.46-1-15.71-.96-.96-1.98-1.74-3.02-2.47,3.48,4.16,3.72,10.24,1.73,14.09ZM82.68,251.51c-3.33,0-6.04-2.73-6.06-6.09-6.81,5.15-4.34,12.42-3.81,13.7.35.85.83,1.15.92,1.18.23-3.15,3-5.54,6.13-5.31,2.52.18,4.52,1.99,5.11,4.32,1.03-2.81,1.33-5.82.92-8.74-.94.59-2.03.95-3.21.95ZM72.94,246.2c-1.04.73-2.06,1.5-3.02,2.47-4.23,4.24-4.7,11.59-1,15.71,2.41,2.68,5.01,3.25,6.77,3.25,3.72,0,7.22-2.55,7.52-6.65.15-2.07-1.41-3.87-3.49-4.02-2.07-.15-3.87,1.41-4.02,3.48-.08,1.09-1.02,1.9-2.11,1.83-.69-.05-1.7-.65-2.39-1.97-2-3.85-1.75-9.93,1.73-14.09Z"/>
        </g>
        <g>
          <path class="cls-4" d="M149.92,229.16c.4,0,.75.23.91.6,2.96,6.92,6.87,9.24,11.01,11.7,2.33,1.39,4.75,2.83,7.04,5.12,5.38,5.39,5.89,14.45,1.1,19.78-2.45,2.72-5.64,4.23-8.97,4.23-5.14,0-8.68-3.25-11.09-7.73-3.04,5.66-7.01,7.73-11.08,7.73-3.34,0-6.52-1.5-8.97-4.23-4.78-5.33-4.28-14.38,1.1-19.78,2.29-2.29,4.7-3.73,7.04-5.12,4.14-2.46,8.05-4.79,11.01-11.7.16-.36.51-.6.91-.6Z"/>
          <path class="cls-1" d="M129.13,267.02c2.64,2.93,6.09,4.55,9.71,4.55,4.85,0,8.43-2.62,11.08-6.77,2.65,4.15,6.23,6.77,11.08,6.77,3.62,0,7.07-1.62,9.71-4.55,5.13-5.7,4.61-15.38-1.14-21.14-2.37-2.38-4.84-3.85-7.23-5.27-4.17-2.48-7.77-4.62-10.61-11.25-.31-.73-1.02-1.2-1.81-1.2s-1.5.47-1.81,1.2c-2.84,6.62-6.44,8.77-10.61,11.25-2.39,1.42-4.86,2.89-7.23,5.27-5.74,5.76-6.26,15.43-1.14,21.14ZM131.66,247.27c6.19-6.21,13.46-5.95,18.26-17.13,4.79,11.18,12.07,10.92,18.26,17.13,5,5.01,5.51,13.48,1.07,18.42-2.47,2.74-5.44,3.9-8.24,3.9-7.96,0-10.83-8.8-11.08-9.06-.26.26-3.09,9.06-11.08,9.06-2.8,0-5.77-1.16-8.24-3.9-4.44-4.94-3.93-13.41,1.07-18.42Z"/>
          <path class="cls-1" d="M154.02,251.51c3.33,0,6.04-2.73,6.05-6.09,6.81,5.15,4.34,12.42,3.81,13.7-.35.85-.83,1.15-.92,1.18-.23-3.15-3-5.54-6.13-5.31-2.52.18-4.51,1.99-5.11,4.32-1.03-2.81-1.33-5.82-.92-8.74.93.59,2.03.95,3.22.95ZM145.82,249.53c1.11,0,2.11-.45,2.85-1.18-.21-2.58-.86-4.64-1.27-5.77,1.1-1.42,2.52-3.6,2.52-3.6,0,0,1.42,2.19,2.52,3.6-.42,1.13-1.06,3.19-1.27,5.77.74.73,1.74,1.18,2.85,1.18,2.3,0,4.08-1.91,4.08-4.14s-1.12-3.46-2.49-4.44c-2-1.44-3.98-3.17-5.69-6.46-1.71,3.29-3.69,5.02-5.69,6.46-1.37.98-2.49,2.15-2.49,4.44s1.78,4.14,4.08,4.14ZM165.49,260.29c-.68,1.32-1.7,1.92-2.39,1.97-1.09.08-2.03-.74-2.11-1.83-.15-2.07-1.95-3.63-4.02-3.48-2.07.15-3.63,1.95-3.49,4.02.3,4.11,3.79,6.65,7.51,6.65,1.76,0,4.36-.56,6.77-3.25,3.7-4.12,3.24-11.46-1-15.71-.96-.96-1.98-1.74-3.02-2.47,3.48,4.16,3.72,10.24,1.73,14.09ZM145.82,251.51c-3.33,0-6.04-2.73-6.05-6.09-6.81,5.15-4.34,12.42-3.81,13.7.35.85.83,1.15.92,1.18.23-3.15,3-5.54,6.13-5.31,2.52.18,4.52,1.99,5.11,4.32,1.03-2.81,1.33-5.82.92-8.74-.93.59-2.03.95-3.21.95ZM136.07,246.2c-1.04.73-2.06,1.5-3.02,2.47-4.23,4.24-4.7,11.59-1,15.71,2.41,2.68,5.01,3.25,6.77,3.25,3.72,0,7.22-2.55,7.52-6.65.15-2.07-1.41-3.87-3.49-4.02-2.07-.15-3.87,1.41-4.02,3.48-.08,1.09-1.02,1.9-2.11,1.83-.69-.05-1.7-.65-2.39-1.97-2-3.85-1.75-9.93,1.73-14.09Z"/>
        </g>
        <g>
          <path class="cls-4" d="M118.35,156.89c-.4,0-.75-.23-.91-.6-2.96-6.92-6.87-9.24-11.01-11.7-2.33-1.39-4.75-2.83-7.04-5.12-5.38-5.39-5.89-14.45-1.1-19.77,2.45-2.72,5.63-4.23,8.97-4.23,5.14,0,8.68,3.25,11.08,7.73,3.04-5.66,7.01-7.73,11.09-7.73,3.33,0,6.52,1.5,8.97,4.23,4.78,5.33,4.28,14.38-1.1,19.77-2.29,2.29-4.7,3.73-7.04,5.12-4.14,2.46-8.05,4.79-11.01,11.7-.16.36-.51.6-.91.6Z"/>
          <path class="cls-1" d="M139.14,119.04c-2.64-2.93-6.09-4.55-9.71-4.55-4.85,0-8.43,2.62-11.08,6.77-2.65-4.15-6.23-6.77-11.08-6.77-3.62,0-7.07,1.62-9.71,4.55-5.12,5.7-4.6,15.38,1.14,21.14,2.37,2.38,4.84,3.85,7.23,5.27,4.17,2.48,7.77,4.62,10.61,11.25.31.73,1.02,1.2,1.81,1.2s1.5-.47,1.81-1.2c2.84-6.62,6.44-8.77,10.61-11.25,2.39-1.42,4.86-2.89,7.23-5.27,5.74-5.76,6.26-15.43,1.14-21.14ZM136.61,138.78c-6.19,6.21-13.46,5.95-18.26,17.13-4.79-11.18-12.07-10.92-18.26-17.13-5-5.01-5.51-13.48-1.07-18.42,2.47-2.74,5.44-3.9,8.24-3.9,7.96,0,10.83,8.8,11.08,9.06.26-.26,3.09-9.06,11.08-9.06,2.8,0,5.77,1.16,8.24,3.9,4.44,4.94,3.93,13.41-1.07,18.42Z"/>
          <path class="cls-1" d="M114.25,134.55c-3.33,0-6.04,2.73-6.05,6.09-6.81-5.15-4.34-12.42-3.81-13.7.35-.85.83-1.15.92-1.18.23,3.15,3,5.54,6.13,5.31,2.52-.18,4.51-1.99,5.11-4.32,1.03,2.81,1.33,5.82.92,8.74-.93-.59-2.03-.95-3.22-.95ZM122.45,136.52c-1.11,0-2.11.45-2.85,1.18.21,2.58.86,4.64,1.27,5.77-1.1,1.42-2.52,3.6-2.52,3.6,0,0-1.42-2.19-2.52-3.6.42-1.13,1.06-3.19,1.27-5.77-.74-.73-1.74-1.18-2.85-1.18-2.3,0-4.08,1.91-4.08,4.14s1.12,3.46,2.49,4.44c2,1.44,3.98,3.17,5.69,6.46,1.71-3.29,3.69-5.02,5.69-6.46,1.37-.98,2.49-2.15,2.49-4.44s-1.78-4.14-4.08-4.14ZM102.78,125.76c.68-1.32,1.69-1.92,2.39-1.97,1.09-.08,2.03.74,2.11,1.83.15,2.07,1.95,3.63,4.02,3.48,2.07-.15,3.63-1.95,3.49-4.02-.3-4.11-3.79-6.65-7.52-6.65-1.76,0-4.36.56-6.77,3.25-3.7,4.12-3.24,11.46,1,15.71.96.96,1.98,1.74,3.02,2.47-3.48-4.16-3.72-10.24-1.73-14.09ZM122.45,134.55c3.33,0,6.04,2.73,6.05,6.09,6.81-5.15,4.34-12.42,3.81-13.7-.35-.85-.83-1.15-.92-1.18-.23,3.15-3,5.54-6.13,5.31-2.52-.18-4.52-1.99-5.11-4.32-1.03,2.81-1.33,5.82-.92,8.74.93-.59,2.03-.95,3.21-.95ZM132.19,139.85c1.04-.73,2.06-1.5,3.02-2.47,4.23-4.24,4.7-11.59,1-15.71-2.41-2.68-5.01-3.25-6.77-3.25-3.72,0-7.22,2.55-7.52,6.65-.15,2.07,1.41,3.87,3.49,4.02,2.07.15,3.87-1.41,4.02-3.48.08-1.09,1.02-1.9,2.11-1.83.69.05,1.7.65,2.39,1.97,2,3.85,1.75,9.93-1.73,14.09Z"/>
        </g>
      </g>
      <g id="_7" data-name="7">
        <path class="cls-1" d="M217.83,297.18c0-.5-.1-1.16-.31-1.97h6.49c-.93.93-1.54,6.03-4.8,16.25l-1.83,5.84c-.36,1.17-.4,1.44-.4,1.64,0,.59.38,1.8,2.73,1.8h.93c2.65,0,4.84-3.07,5.47-6.65.65,1.29.97,2.89.97,4.8,0,2.55-.5,3.83-1.51,3.83h-14.22c.31-.38.6-.89.88-1.51l1.06-2.45c1.14-2.72,2.31-7.31,3.52-13.77.76-3.99,1.01-5.65,1.01-7.81Z"/>
        <path class="cls-1" d="M18.87,34.2c0,.5.1,1.15.31,1.97h-6.49c.92-.92,1.52-5.94,4.8-16.25l1.83-5.84c.36-1.17.4-1.44.4-1.64,0-.59-.38-1.8-2.73-1.8h-.93c-2.65,0-4.85,3.07-5.47,6.65-.65-1.29-.97-2.89-.97-4.8,0-2.55.5-3.83,1.51-3.83h14.22c-.31.39-.6.89-.88,1.51l-1.06,2.45c-1.14,2.72-2.31,7.31-3.52,13.77-.76,4-1.01,5.65-1.01,7.81Z"/>
      </g>
      <g id="Hearts">
        <path class="cls-1" d="M219.82,266.38c-4.74,8.31-10.52,7.58-10.52,13.09,0,3.08,2.35,6.64,5.48,6.64,4.09,0,4.65-3.74,5.04-4.16.4.44.95,4.16,5.04,4.16,3.12,0,5.48-3.56,5.48-6.64,0-5.52-5.77-4.77-10.52-13.09Z"/>
        <path class="cls-1" d="M16.88,65c4.74-8.31,10.52-7.58,10.52-13.09,0-3.08-2.35-6.64-5.48-6.64-4.09,0-4.65,3.74-5.04,4.16-.4-.44-.95-4.16-5.04-4.16-3.12,0-5.48,3.56-5.48,6.64,0,5.52,5.77,4.77,10.52,13.09Z"/>
      </g>
    </g>
  </g>
</svg>