<?xml version="1.0" encoding="UTF-8"?>
<svg id="Layer_2" data-name="Layer 2" xmlns="http://www.w3.org/2000/svg" viewBox="0 0 236.7 331.38">
  <defs>
    <style>
      .cls-1 {
        fill: #ede8da;
      }

      .cls-2 {
        fill: #3a2b0e;
      }

      .cls-3 {
        fill: #fff;
      }

      .cls-4 {
        fill: #3d2b07;
      }
    </style>
  </defs>
  <g id="_Layer_" data-name="&amp;lt;Layer&amp;gt;">
    <g id="_9_Spades" data-name="9 Spades">
      <path id="BG" class="cls-3" d="M14.2,0h208.3c7.84,0,14.2,6.36,14.2,14.2v302.97c0,7.84-6.36,14.2-14.2,14.2H14.2c-7.84,0-14.2-6.36-14.2-14.2V14.2C0,6.36,6.36,0,14.2,0Z"/>
      <g>
        <path class="cls-1" d="M204.29,172.12l-43.32-3.74,43.32,1.73v-1.98l-43.2-1.86h43.2v-1.97h-43.3l43.3-2.14v-1.97l-43.43,2.28,43.43-4.3v-1.99l-43.54,4.31,43.54-6.35v-1.99l-43.88,6.4,43.88-8.49v-2.01l-44.21,8.56,44.21-10.69v-2.03l-44.51,10.77,44.51-12.96v-2.06l-47.7,13.89,47.7-16.47v-2.09l-51.42,17.75,51.42-20.9v-2.13l-58,23.57,58-28.04v-2.19l-63.82,30.86,63.82-37.33v-2.28l-66.9,39.13,66.9-47.39v-2.41l-68.02,48.18,68.02-57.67v-2.59l-69.3,58.76,69.3-69.97v-2.8l-70.71,71.4,70.71-85.06v-3.09l-72.21,86.87,72.18-104.02c-.02-1.16-.06-2.26-.11-3.31l-73.68,106.2L200.88,23.39c-.38-.72-.78-1.34-1.21-1.86l-70.93,124L190.03,12.79c-.55-.26-1.15-.52-1.82-.76l-61.26,132.66L175.5,9.86c-.66-.04-1.36-.07-2.06-.1l-48.34,134.28L160.65,9.62h-2.04l-35.42,133.91L146.4,9.62h-2l-23.15,133.56,11.33-133.56h-1.98l-11.47,133.41V9.62h-1.97v133.41L105.35,9.62h-1.98l11.97,133.59L91.54,9.62h-2l23.87,133.93L77.3,9.62h-2.04l36.24,134.44L62.43,9.8c-.71.04-1.38.08-2.05.13l49.26,134.81L47.74,12.32c-.66.26-1.26.54-1.79.83l61.91,132.42L36.52,22.22c-.4.58-.77,1.24-1.12,2.01l66.94,115.75L32.83,36.02c-.09,1.01-.17,2.07-.23,3.2l65.71,98.27L32.41,50.15v3.27l61.96,82.13L32.41,61.62v3.07l58.69,70.02-58.69-63.58v2.9l56.29,60.98-56.29-55.59v2.77l54.89,54.22-54.89-49.42v2.65l53.57,48.23-53.57-43.92v2.55l52.29,42.87-52.29-38.98v2.46l51.13,38.12-51.13-34.56v2.38l50.04,33.83-50.04-30.56v2.31l48.96,29.9-48.96-26.87v2.25l48,26.34-48-23.53v2.2l47.21,23.14-47.21-20.5v2.15l46.39,20.14-46.39-17.64v2.11l45.68,17.37-45.68-14.99v2.08l45.04,14.79-45.04-12.51v2.05l44.59,12.38-44.59-10.19v2.02l44.13,10.09-44.13-7.96v2l43.71,7.89-43.71-5.82v1.99l43.48,5.79-43.48-3.76v1.98l43.27,3.74-43.27-1.73v1.98l43.26,1.86h-43.26v1.97h43.3l-43.3,2.14v1.97l43.37-2.28-43.37,4.29v1.98l43.59-4.32-43.59,6.36v2l43.82-6.4-43.82,8.48v2.01l44.26-8.56-44.26,10.7v2.03l44.45-10.75-44.45,12.94v2.06l47.7-13.88-47.7,16.47v2.09l51.46-17.77-51.46,20.91v2.13l57.81-23.49-57.81,27.95v2.19l63.97-30.93-63.97,37.42v2.28l66.9-39.13-66.9,47.39v2.41l68.03-48.18-68.03,57.68v2.59l69.29-58.75-69.29,69.97v2.8l70.7-71.39-70.7,85.04v3.08l72.22-86.88-72.19,104.04c.02,1.15.06,2.25.11,3.31l73.69-106.21-70.42,123.11c.38.72.78,1.34,1.21,1.87l70.92-123.99-61.28,132.73c.55.26,1.15.52,1.82.76l61.26-132.67-48.54,134.84c.66.04,1.36.07,2.06.1l48.34-134.28-35.55,134.42h2.04l35.42-133.91-23.2,133.91h2l23.15-133.57-11.33,133.57h1.98l11.47-133.41v133.41h1.97v-133.4l11.8,133.4h1.98l-11.97-133.59,23.81,133.59h2l-23.87-133.92,36.11,133.92h2.04l-36.25-134.44,49.07,134.27c.71-.04,1.38-.08,2.05-.13l-49.26-134.81,61.91,132.42c.66-.26,1.26-.53,1.79-.83l-61.91-132.43,71.34,123.36c.39-.58.77-1.24,1.12-2.01l-66.92-115.72,69.49,103.93c.09-1.01.17-2.08.23-3.2l-65.74-98.31,65.93,87.38v-3.27l-61.93-82.08,61.93,73.89v-3.07l-58.69-70.02,58.69,63.59v-2.9l-56.29-60.98,56.29,55.59v-2.77l-54.89-54.22,54.89,49.42v-2.65l-53.57-48.23,53.57,43.92v-2.55l-52.32-42.9,52.32,39v-2.46l-51.14-38.12,51.14,34.56v-2.38l-50.01-33.8,50.01,30.53v-2.31l-48.98-29.91,48.98,26.88v-2.25l-48.04-26.37,48.04,23.55v-2.2l-47.16-23.11,47.16,20.47v-2.15l-46.41-20.15,46.41,17.65v-2.11l-45.68-17.37,45.68,14.99v-2.08l-45.09-14.8,45.09,12.53v-2.05l-44.54-12.37,44.54,10.18v-2.02l-44.13-10.09,44.13,7.97v-2.01l-43.76-7.9,43.76,5.83v-1.99l-43.43-5.78,43.43,3.75v-1.98Z"/>
        <path class="cls-2" d="M167.47,322.75h-98.24c-18.14,0-27.24-3.01-28.37-9.44-6.43-1.14-9.44-10.23-9.44-28.37V46.44c0-18.14,3.01-27.24,9.44-28.37,1.13-6.43,10.23-9.44,28.37-9.44h98.24c18.14,0,27.24,3.01,28.37,9.44,6.43,1.13,9.44,10.22,9.44,28.37v238.5c0,18.14-3.01,27.24-9.44,28.37-1.13,6.43-10.23,9.44-28.37,9.44ZM42.85,313.4c.68,2.83,4.53,7.38,26.37,7.38h98.24c21.85,0,25.69-4.55,26.37-7.38-2.16-.24-3.94-1.79-3.94-3.55,0-1.62,1.44-2.48,2.48-2.48,1.76,0,3.32,1.79,3.55,3.94,2.83-.68,7.38-4.53,7.38-26.37V46.44c0-21.85-4.54-25.69-7.38-26.37-.23,2.16-1.79,3.94-3.55,3.94-1.04,0-2.48-.86-2.48-2.48,0-1.76,1.79-3.31,3.94-3.55-.68-2.83-4.53-7.38-26.37-7.38h-98.24c-21.85,0-25.69,4.55-26.37,7.38,2.16.24,3.94,1.79,3.94,3.55,0,1.62-1.44,2.48-2.48,2.48-1.76,0-3.32-1.79-3.55-3.94-2.83.68-7.37,4.53-7.37,26.37v238.5c0,21.85,4.54,25.69,7.37,26.37.24-2.16,1.8-3.94,3.55-3.94,1.04,0,2.48.86,2.48,2.48,0,1.76-1.78,3.32-3.94,3.55ZM192.38,309.34s-.51.07-.51.51c0,.51.78,1.41,2.09,1.58-.17-1.31-1.07-2.09-1.58-2.09ZM44.32,309.34c-.51,0-1.41.78-1.58,2.09,1.31-.17,2.09-1.07,2.09-1.58,0-.43-.51-.51-.51-.51ZM193.96,19.95c-1.31.17-2.09,1.07-2.09,1.58,0,.43.51.51.51.51.51,0,1.41-.78,1.58-2.09ZM42.74,19.95c.17,1.31,1.07,2.09,1.58,2.09,0,0,.51-.07.51-.51,0-.51-.78-1.41-2.09-1.58Z"/>
      </g>
      <g id="Illustration">
        <g>
          <path class="cls-3" d="M112.77,126.84c.97,0,1.86-.2,2.73-.4.89-.2,1.81-.41,2.85-.41s1.96.21,2.85.41c.87.2,1.77.4,2.73.4.33,0,.64-.17.82-.44.18-.27.21-.62.08-.93l-.15-.37c-1.7-4.01-3.81-9-3.81-12.67,0-1.87,1.14-3.29,2.65-3.29.84,0,1.68.43,2.43,1.23,1.86,1.98,4.44,3.11,7.07,3.11,2.1,0,4.02-.72,5.4-2.03,3.24-3.08,4-8.9-1.63-14.96-1.88-2.02-3.86-3.66-5.78-5.24-4.43-3.66-8.61-7.12-11.75-14.99-.15-.37-.51-.62-.92-.62s-.77.24-.91.62c-3.14,7.87-7.32,11.33-11.75,14.98-1.92,1.59-3.91,3.23-5.78,5.25-5.63,6.06-4.87,11.88-1.63,14.96,1.38,1.32,3.3,2.03,5.4,2.03,2.64,0,5.21-1.13,7.07-3.11.76-.8,1.6-1.23,2.43-1.23,1.51,0,2.65,1.41,2.65,3.29,0,3.67-2.11,8.66-3.81,12.67l-.16.37c-.13.3-.09.65.09.93.18.27.49.44.82.44Z"/>
          <path class="cls-2" d="M97.59,112.16c1.56,1.49,3.72,2.31,6.08,2.31,2.9,0,5.75-1.25,7.79-3.42.55-.59,1.17-.92,1.72-.92.97,0,1.66.97,1.66,2.3,0,3.46-2.07,8.35-3.73,12.28l-.16.38c-.26.61-.19,1.3.17,1.86.36.55.98.89,1.64.89,1.07,0,2.02-.22,2.95-.42.88-.2,1.71-.39,2.63-.39s1.75.19,2.63.39c.92.21,1.87.42,2.95.42.66,0,1.28-.33,1.64-.89.36-.55.43-1.25.17-1.86l-.16-.38c-1.66-3.93-3.73-8.82-3.73-12.28,0-1.34.7-2.3,1.66-2.3.55,0,1.16.33,1.72.92,2.05,2.17,4.89,3.42,7.79,3.42,2.36,0,4.52-.82,6.08-2.31,3.6-3.42,4.5-9.8-1.59-16.35-1.92-2.06-3.93-3.73-5.88-5.33-4.33-3.58-8.41-6.95-11.46-14.59-.3-.75-1.02-1.24-1.83-1.24s-1.53.49-1.83,1.24c-3.05,7.64-7.13,11.01-11.46,14.59-1.94,1.61-3.96,3.27-5.88,5.33-6.08,6.55-5.18,12.93-1.59,16.35ZM100.63,97.16c6.01-6.47,13.07-8.88,17.72-20.53,4.65,11.65,11.71,14.06,17.72,20.53,4.85,5.22,4.87,10.54,1.67,13.58-1.23,1.17-2.93,1.76-4.72,1.76-2.22,0-4.58-.92-6.35-2.8-1-1.06-2.12-1.54-3.15-1.54-1.97,0-3.64,1.72-3.64,4.27,0,3.98,2.23,9.13,4.04,13.42-1.79,0-3.4-.81-5.58-.81s-3.79.81-5.58.81c1.81-4.29,4.04-9.45,4.04-13.42,0-2.56-1.67-4.27-3.64-4.27-1.03,0-2.15.47-3.15,1.54-1.77,1.88-4.13,2.8-6.35,2.8-1.79,0-3.49-.6-4.72-1.76-3.19-3.04-3.18-8.35,1.67-13.58Z"/>
          <path class="cls-2" d="M120.73,123.32c-.71-.13-1.5-.24-2.38-.24s-1.67.11-2.38.24c.97-2.39,1.87-4.86,2.38-7.22.51,2.35,1.41,4.82,2.38,7.22ZM121.27,92.03l2.99,9.79c.21-1.73.8-3.52,1.79-5.3-1.61-1.35-3.22-2.8-4.78-4.49ZM115.43,92.03c-1.56,1.68-3.17,3.14-4.78,4.49,1,1.78,1.59,3.57,1.79,5.29l2.99-9.78ZM118.35,89.24l-5.17,16.95c2.39,0,4.34,1.5,5.17,3.74.83-2.24,2.78-3.74,5.17-3.74l-5.17-16.95ZM100.31,109.3c.83.79,2.02,1.22,3.36,1.22,4.43,0,8.67-4.69,6.14-11.19-.68.18-1.43,0-1.92-.56-.77-.88-.68-1.94.71-3.1,3.39-2.81,6.84-5.79,9.75-10.87,2.91,5.08,6.36,8.06,9.75,10.87,1.4,1.16,1.48,2.22.71,3.1-.49.56-1.24.75-1.92.56-2.54,6.5,1.7,11.19,6.13,11.19,1.34,0,2.53-.43,3.36-1.22,2.67-2.54,1.98-6.78-1.76-10.8-1.74-1.88-3.57-3.39-5.5-4.98-3.76-3.1-7.62-6.29-10.78-12.2-3.16,5.91-7.02,9.1-10.78,12.2-1.93,1.6-3.76,3.11-5.5,4.98-3.74,4.02-4.43,8.27-1.76,10.8Z"/>
        </g>
        <g>
          <path class="cls-3" d="M112.77,189.98c.97,0,1.86-.2,2.73-.4.89-.2,1.81-.41,2.85-.41s1.96.21,2.85.41c.87.2,1.77.4,2.73.4.33,0,.64-.17.82-.44.18-.27.21-.62.08-.93l-.15-.37c-1.7-4.01-3.81-9-3.81-12.67,0-1.87,1.14-3.29,2.65-3.29.84,0,1.68.43,2.43,1.23,1.86,1.98,4.44,3.11,7.07,3.11,2.1,0,4.02-.72,5.4-2.03,3.24-3.08,4-8.9-1.63-14.96-1.88-2.02-3.86-3.66-5.78-5.24-4.43-3.66-8.61-7.12-11.75-14.99-.15-.37-.51-.62-.92-.62s-.77.24-.91.62c-3.14,7.87-7.32,11.33-11.75,14.98-1.92,1.59-3.91,3.23-5.78,5.25-5.63,6.06-4.87,11.88-1.63,14.96,1.38,1.31,3.3,2.03,5.4,2.03,2.64,0,5.21-1.13,7.07-3.11.76-.8,1.6-1.23,2.43-1.23,1.51,0,2.65,1.41,2.65,3.29,0,3.67-2.11,8.66-3.81,12.67l-.16.37c-.13.3-.09.65.09.93.18.27.49.44.82.44Z"/>
          <path class="cls-2" d="M97.59,175.3c1.56,1.49,3.72,2.31,6.08,2.31,2.9,0,5.75-1.25,7.79-3.42.55-.59,1.17-.92,1.72-.92.97,0,1.66.97,1.66,2.3,0,3.46-2.07,8.35-3.73,12.28l-.16.38c-.26.61-.19,1.3.17,1.86.36.55.98.89,1.64.89,1.07,0,2.02-.22,2.95-.42.88-.2,1.71-.39,2.63-.39s1.75.19,2.63.39c.92.21,1.87.42,2.95.42.66,0,1.28-.33,1.64-.89.36-.55.43-1.25.17-1.86l-.16-.38c-1.66-3.93-3.73-8.82-3.73-12.28,0-1.34.7-2.3,1.66-2.3.55,0,1.16.33,1.72.92,2.05,2.17,4.89,3.42,7.79,3.42,2.36,0,4.52-.82,6.08-2.31,3.6-3.42,4.5-9.8-1.59-16.34-1.92-2.07-3.93-3.73-5.88-5.33-4.33-3.58-8.41-6.95-11.46-14.59-.3-.75-1.02-1.24-1.83-1.24s-1.53.49-1.83,1.24c-3.05,7.64-7.13,11.01-11.46,14.59-1.94,1.61-3.96,3.27-5.88,5.33-6.08,6.55-5.18,12.93-1.59,16.34ZM100.63,160.29c6.01-6.47,13.07-8.88,17.72-20.53,4.65,11.65,11.71,14.06,17.72,20.53,4.85,5.22,4.87,10.54,1.67,13.58-1.23,1.17-2.93,1.76-4.72,1.76-2.22,0-4.58-.92-6.35-2.8-1-1.06-2.12-1.54-3.15-1.54-1.97,0-3.64,1.72-3.64,4.27,0,3.98,2.23,9.13,4.04,13.42-1.79,0-3.4-.81-5.58-.81s-3.79.81-5.58.81c1.81-4.29,4.04-9.45,4.04-13.42,0-2.56-1.67-4.27-3.64-4.27-1.03,0-2.15.47-3.15,1.54-1.77,1.88-4.13,2.8-6.35,2.8-1.79,0-3.49-.6-4.72-1.76-3.19-3.04-3.18-8.35,1.67-13.58Z"/>
          <path class="cls-2" d="M120.73,186.46c-.71-.13-1.5-.24-2.38-.24s-1.67.11-2.38.24c.97-2.39,1.87-4.86,2.38-7.22.51,2.35,1.41,4.82,2.38,7.22ZM121.27,155.16l2.99,9.79c.21-1.73.8-3.52,1.79-5.3-1.61-1.35-3.22-2.8-4.78-4.49ZM115.43,155.16c-1.56,1.69-3.17,3.14-4.78,4.49,1,1.78,1.59,3.56,1.79,5.29l2.99-9.78ZM118.35,152.38l-5.17,16.95c2.39,0,4.34,1.5,5.17,3.74.83-2.24,2.78-3.74,5.17-3.74l-5.17-16.95ZM100.31,172.44c.83.79,2.02,1.22,3.36,1.22,4.43,0,8.67-4.69,6.14-11.19-.68.19-1.43,0-1.92-.56-.77-.88-.68-1.94.71-3.1,3.39-2.81,6.84-5.79,9.75-10.87,2.91,5.08,6.36,8.06,9.75,10.87,1.4,1.16,1.48,2.22.71,3.1-.49.56-1.24.75-1.92.56-2.54,6.5,1.7,11.19,6.13,11.19,1.34,0,2.53-.43,3.36-1.22,2.67-2.54,1.98-6.78-1.76-10.8-1.74-1.88-3.57-3.39-5.5-4.98-3.76-3.1-7.62-6.29-10.78-12.2-3.16,5.91-7.02,9.1-10.78,12.2-1.93,1.6-3.76,3.11-5.5,4.98-3.74,4.02-4.43,8.26-1.76,10.8Z"/>
        </g>
        <g>
          <path class="cls-3" d="M123.93,204.54c-.97,0-1.86.2-2.73.4-.89.2-1.81.41-2.85.41s-1.96-.21-2.85-.41c-.87-.2-1.77-.4-2.73-.4-.33,0-.64.17-.82.44-.18.27-.21.62-.08.93l.15.37c1.7,4.01,3.81,9,3.81,12.67,0,1.87-1.14,3.29-2.65,3.29-.84,0-1.68-.43-2.43-1.23-1.86-1.98-4.44-3.11-7.07-3.11-2.1,0-4.02.72-5.4,2.03-3.24,3.08-4,8.9,1.63,14.96,1.87,2.02,3.86,3.66,5.78,5.24,4.43,3.66,8.61,7.12,11.75,14.99.15.37.51.62.92.62s.77-.24.91-.62c3.14-7.87,7.32-11.33,11.75-14.98,1.92-1.59,3.91-3.23,5.78-5.25,5.63-6.06,4.87-11.88,1.63-14.96-1.38-1.31-3.3-2.03-5.4-2.03-2.64,0-5.21,1.13-7.07,3.11-.76.8-1.6,1.23-2.43,1.23-1.51,0-2.65-1.41-2.65-3.29,0-3.67,2.11-8.66,3.81-12.67l.16-.37c.13-.3.09-.65-.09-.93-.18-.27-.49-.44-.82-.44Z"/>
          <path class="cls-2" d="M139.11,219.22c-1.56-1.49-3.72-2.31-6.08-2.31-2.9,0-5.75,1.25-7.79,3.42-.55.59-1.17.92-1.72.92-.97,0-1.66-.97-1.66-2.3,0-3.46,2.07-8.35,3.73-12.28l.16-.38c.26-.61.19-1.3-.17-1.86-.36-.55-.98-.89-1.64-.89-1.07,0-2.02.22-2.95.42-.88.2-1.71.39-2.63.39s-1.75-.19-2.63-.39c-.92-.21-1.88-.42-2.95-.42-.66,0-1.28.33-1.64.89-.36.55-.43,1.25-.17,1.86l.16.38c1.66,3.93,3.73,8.82,3.73,12.28,0,1.34-.7,2.3-1.66,2.3-.55,0-1.16-.33-1.72-.92-2.05-2.17-4.89-3.42-7.79-3.42-2.36,0-4.52.82-6.08,2.31-3.6,3.42-4.5,9.8,1.59,16.35,1.92,2.06,3.93,3.73,5.88,5.33,4.33,3.58,8.41,6.95,11.46,14.59.3.75,1.02,1.24,1.83,1.24s1.53-.49,1.83-1.24c3.05-7.64,7.13-11.01,11.46-14.59,1.94-1.61,3.96-3.27,5.88-5.33,6.08-6.55,5.18-12.93,1.59-16.35ZM136.07,234.22c-6.01,6.47-13.07,8.88-17.72,20.53-4.65-11.65-11.71-14.06-17.72-20.53-4.85-5.22-4.87-10.54-1.67-13.58,1.23-1.17,2.93-1.76,4.72-1.76,2.22,0,4.58.92,6.35,2.8,1,1.06,2.12,1.54,3.15,1.54,1.97,0,3.64-1.72,3.64-4.27,0-3.98-2.23-9.13-4.04-13.42,1.79,0,3.4.81,5.58.81s3.79-.81,5.58-.81c-1.81,4.29-4.04,9.45-4.04,13.42,0,2.56,1.67,4.27,3.64,4.27,1.03,0,2.15-.47,3.15-1.54,1.77-1.88,4.13-2.8,6.35-2.8,1.79,0,3.49.6,4.72,1.76,3.19,3.04,3.18,8.35-1.67,13.58Z"/>
          <path class="cls-2" d="M115.97,208.06c.71.13,1.5.24,2.38.24s1.67-.11,2.38-.24c-.97,2.39-1.87,4.86-2.38,7.22-.51-2.35-1.41-4.82-2.38-7.22ZM115.43,239.35l-2.99-9.79c-.21,1.73-.8,3.52-1.79,5.3,1.61,1.35,3.22,2.8,4.78,4.49ZM121.27,239.35c1.56-1.68,3.17-3.14,4.78-4.49-1-1.78-1.59-3.57-1.79-5.29l-2.99,9.78ZM118.35,242.14l5.17-16.95c-2.39,0-4.34-1.5-5.17-3.74-.83,2.24-2.78,3.74-5.17,3.74l5.17,16.95ZM136.39,222.08c-.83-.79-2.02-1.22-3.36-1.22-4.43,0-8.67,4.69-6.14,11.19.68-.18,1.43,0,1.92.56.77.88.68,1.94-.71,3.1-3.39,2.81-6.84,5.79-9.75,10.87-2.91-5.08-6.36-8.06-9.75-10.87-1.4-1.16-1.48-2.22-.71-3.1.49-.56,1.24-.75,1.92-.56,2.54-6.5-1.7-11.19-6.13-11.19-1.34,0-2.53.43-3.36,1.22-2.67,2.54-1.98,6.78,1.76,10.8,1.74,1.88,3.57,3.39,5.5,4.98,3.76,3.1,7.62,6.29,10.78,12.2,3.16-5.91,7.02-9.1,10.78-12.2,1.93-1.6,3.76-3.11,5.5-4.98,3.74-4.02,4.43-8.27,1.76-10.8Z"/>
        </g>
        <g>
          <path class="cls-3" d="M163.38,109.83c-.97,0-1.86.2-2.73.4-.89.2-1.81.41-2.85.41s-1.96-.21-2.85-.41c-.87-.2-1.77-.4-2.73-.4-.33,0-.64.16-.82.44-.18.27-.21.62-.08.93l.15.37c1.7,4.01,3.81,9,3.81,12.67,0,1.88-1.14,3.29-2.65,3.29-.84,0-1.68-.42-2.43-1.23-1.86-1.97-4.44-3.11-7.07-3.11-2.1,0-4.02.72-5.4,2.04-3.24,3.08-4,8.9,1.63,14.96,1.87,2.02,3.86,3.66,5.78,5.25,4.43,3.66,8.61,7.11,11.75,14.98.15.38.51.62.92.62s.77-.25.91-.62c3.14-7.87,7.32-11.32,11.75-14.98,1.92-1.59,3.91-3.23,5.78-5.25,5.63-6.05,4.87-11.87,1.63-14.96-1.38-1.31-3.3-2.04-5.4-2.04-2.64,0-5.21,1.14-7.07,3.11-.76.81-1.6,1.23-2.43,1.23-1.51,0-2.65-1.41-2.65-3.29,0-3.66,2.11-8.66,3.81-12.67l.16-.37c.13-.31.09-.66-.09-.93-.18-.28-.49-.44-.82-.44Z"/>
          <path class="cls-2" d="M178.56,124.51c-1.56-1.48-3.72-2.3-6.08-2.3-2.9,0-5.75,1.24-7.79,3.42-.55.59-1.17.92-1.72.92-.97,0-1.66-.97-1.66-2.3,0-3.46,2.07-8.35,3.73-12.28l.16-.38c.26-.61.19-1.31-.17-1.86-.36-.55-.98-.88-1.64-.88-1.07,0-2.02.22-2.95.42-.88.2-1.71.39-2.63.39s-1.75-.19-2.63-.39c-.92-.21-1.88-.42-2.95-.42-.66,0-1.28.33-1.64.88-.36.55-.43,1.25-.17,1.86l.16.38c1.66,3.93,3.73,8.82,3.73,12.28,0,1.34-.7,2.3-1.66,2.3-.55,0-1.16-.33-1.72-.92-2.05-2.17-4.89-3.42-7.79-3.42-2.36,0-4.52.82-6.08,2.3-3.6,3.42-4.5,9.8,1.59,16.34,1.92,2.07,3.93,3.73,5.88,5.34,4.33,3.58,8.41,6.96,11.46,14.59.3.75,1.02,1.24,1.83,1.24s1.53-.49,1.83-1.24c3.05-7.63,7.13-11.01,11.46-14.59,1.94-1.61,3.96-3.27,5.88-5.34,6.08-6.54,5.18-12.93,1.59-16.34ZM175.52,139.52c-6.01,6.47-13.07,8.88-17.72,20.54-4.65-11.66-11.71-14.07-17.72-20.54-4.85-5.22-4.87-10.54-1.67-13.58,1.22-1.16,2.93-1.76,4.72-1.76,2.22,0,4.58.92,6.35,2.8,1,1.07,2.12,1.54,3.15,1.54,1.97,0,3.64-1.71,3.64-4.27,0-3.98-2.23-9.13-4.04-13.42,1.79,0,3.4.81,5.58.81s3.79-.81,5.58-.81c-1.81,4.29-4.04,9.45-4.04,13.42,0,2.56,1.67,4.27,3.64,4.27,1.03,0,2.15-.47,3.15-1.54,1.77-1.88,4.13-2.8,6.35-2.8,1.79,0,3.49.6,4.72,1.76,3.19,3.04,3.18,8.36-1.67,13.58Z"/>
          <path class="cls-2" d="M155.42,113.35c.71.14,1.5.25,2.38.25s1.67-.11,2.38-.25c-.97,2.39-1.87,4.86-2.38,7.22-.51-2.36-1.41-4.83-2.38-7.22ZM154.88,144.64l-2.99-9.78c-.21,1.73-.8,3.52-1.79,5.29,1.61,1.35,3.22,2.8,4.78,4.49ZM160.72,144.64c1.56-1.68,3.17-3.14,4.78-4.49-1-1.77-1.59-3.56-1.79-5.29l-2.99,9.78ZM157.8,147.44l5.17-16.95c-2.39,0-4.34-1.49-5.17-3.74-.83,2.24-2.78,3.74-5.17,3.74l5.17,16.95ZM175.84,127.38c-.83-.79-2.02-1.22-3.36-1.22-4.43,0-8.67,4.7-6.14,11.19.68-.19,1.43,0,1.92.56.77.88.68,1.94-.71,3.1-3.39,2.81-6.84,5.79-9.75,10.87-2.91-5.08-6.36-8.06-9.75-10.87-1.4-1.16-1.48-2.23-.71-3.1.49-.56,1.24-.75,1.92-.56,2.54-6.5-1.7-11.19-6.13-11.19-1.34,0-2.53.43-3.36,1.22-2.67,2.54-1.98,6.78,1.76,10.8,1.74,1.88,3.57,3.39,5.5,4.98,3.76,3.11,7.62,6.3,10.78,12.21,3.16-5.91,7.02-9.1,10.78-12.21,1.93-1.59,3.76-3.1,5.5-4.98,3.74-4.03,4.43-8.26,1.76-10.8Z"/>
        </g>
        <g>
          <path class="cls-3" d="M152.22,95.28c.97,0,1.86-.2,2.73-.4.89-.2,1.81-.41,2.85-.41s1.96.21,2.85.41c.87.2,1.77.4,2.73.4.33,0,.64-.16.82-.44.18-.27.21-.62.08-.93l-.15-.37c-1.7-4.01-3.81-9-3.81-12.67,0-1.88,1.14-3.29,2.65-3.29.84,0,1.68.42,2.43,1.23,1.86,1.97,4.44,3.11,7.07,3.11,2.1,0,4.02-.72,5.4-2.04,3.24-3.08,4-8.9-1.63-14.96-1.88-2.02-3.86-3.66-5.78-5.25-4.43-3.66-8.61-7.11-11.75-14.98-.15-.38-.51-.62-.92-.62s-.77.25-.91.62c-3.14,7.87-7.32,11.32-11.75,14.98-1.92,1.59-3.91,3.23-5.78,5.25-5.63,6.05-4.87,11.87-1.63,14.96,1.38,1.31,3.3,2.04,5.4,2.04,2.64,0,5.21-1.14,7.07-3.11.76-.81,1.6-1.23,2.43-1.23,1.51,0,2.65,1.41,2.65,3.29,0,3.66-2.11,8.66-3.81,12.67l-.16.37c-.13.31-.09.66.09.93.18.28.49.44.82.44Z"/>
          <path class="cls-2" d="M137.04,80.59c1.56,1.48,3.72,2.3,6.08,2.3,2.9,0,5.75-1.24,7.79-3.42.55-.59,1.17-.92,1.72-.92.97,0,1.66.97,1.66,2.3,0,3.46-2.07,8.35-3.73,12.28l-.16.38c-.26.61-.19,1.31.17,1.86.36.55.98.88,1.64.88,1.07,0,2.02-.22,2.95-.42.88-.2,1.71-.39,2.63-.39s1.75.19,2.63.39c.92.21,1.87.42,2.95.42.66,0,1.28-.33,1.64-.88.36-.55.43-1.25.17-1.86l-.16-.38c-1.66-3.93-3.73-8.82-3.73-12.28,0-1.34.7-2.3,1.66-2.3.55,0,1.16.33,1.72.92,2.05,2.17,4.89,3.42,7.79,3.42,2.36,0,4.52-.82,6.08-2.3,3.6-3.42,4.5-9.8-1.59-16.34-1.92-2.07-3.93-3.73-5.88-5.34-4.33-3.58-8.41-6.96-11.46-14.59-.3-.75-1.02-1.24-1.83-1.24s-1.53.49-1.83,1.24c-3.05,7.63-7.13,11.01-11.46,14.59-1.94,1.61-3.96,3.27-5.88,5.34-6.08,6.54-5.18,12.93-1.59,16.34ZM140.08,65.59c6.01-6.47,13.07-8.88,17.72-20.54,4.65,11.66,11.71,14.07,17.72,20.54,4.85,5.22,4.87,10.54,1.67,13.58-1.23,1.16-2.93,1.76-4.72,1.76-2.22,0-4.58-.92-6.35-2.8-1-1.07-2.12-1.54-3.15-1.54-1.97,0-3.64,1.71-3.64,4.27,0,3.98,2.23,9.13,4.04,13.42-1.79,0-3.4-.81-5.58-.81s-3.79.81-5.58.81c1.81-4.29,4.04-9.45,4.04-13.42,0-2.56-1.67-4.27-3.64-4.27-1.03,0-2.15.47-3.15,1.54-1.77,1.88-4.13,2.8-6.35,2.8-1.79,0-3.49-.6-4.72-1.76-3.19-3.04-3.18-8.36,1.67-13.58Z"/>
          <path class="cls-2" d="M160.18,91.76c-.71-.14-1.5-.25-2.38-.25s-1.67.11-2.38.25c.97-2.39,1.87-4.86,2.38-7.22.51,2.36,1.41,4.83,2.38,7.22ZM160.72,60.46l2.99,9.78c.21-1.73.8-3.52,1.79-5.29-1.61-1.35-3.22-2.8-4.78-4.49ZM154.88,60.46c-1.56,1.69-3.17,3.14-4.78,4.49,1,1.77,1.59,3.56,1.79,5.29l2.99-9.78ZM157.8,57.67l-5.17,16.95c2.39,0,4.34,1.49,5.17,3.74.83-2.24,2.78-3.74,5.17-3.74l-5.17-16.95ZM139.76,77.73c.83.79,2.02,1.22,3.36,1.22,4.43,0,8.67-4.7,6.14-11.19-.68.18-1.43,0-1.92-.56-.77-.88-.68-1.94.71-3.1,3.39-2.81,6.84-5.79,9.75-10.87,2.91,5.08,6.36,8.06,9.75,10.87,1.4,1.16,1.48,2.23.71,3.1-.49.56-1.24.75-1.92.56-2.54,6.5,1.7,11.19,6.13,11.19,1.34,0,2.53-.43,3.36-1.22,2.67-2.54,1.98-6.78-1.76-10.8-1.74-1.87-3.57-3.39-5.5-4.98-3.76-3.11-7.62-6.3-10.78-12.21-3.16,5.91-7.02,9.1-10.78,12.21-1.93,1.59-3.76,3.1-5.5,4.98-3.74,4.03-4.43,8.26-1.76,10.8Z"/>
        </g>
        <g>
          <path class="cls-3" d="M163.38,172.97c-.97,0-1.86.2-2.73.4-.89.2-1.81.41-2.85.41s-1.96-.21-2.85-.41c-.87-.2-1.77-.4-2.73-.4-.33,0-.64.16-.82.44-.18.27-.21.62-.08.93l.15.37c1.7,4.01,3.81,9,3.81,12.67,0,1.88-1.14,3.29-2.65,3.29-.84,0-1.68-.42-2.43-1.23-1.86-1.97-4.44-3.11-7.07-3.11-2.1,0-4.02.72-5.4,2.04-3.24,3.08-4,8.9,1.63,14.96,1.87,2.02,3.86,3.66,5.78,5.25,4.43,3.66,8.61,7.11,11.75,14.98.15.37.51.62.92.62s.77-.25.91-.62c3.14-7.87,7.32-11.32,11.75-14.98,1.92-1.59,3.91-3.23,5.78-5.25,5.63-6.05,4.87-11.87,1.63-14.96-1.38-1.31-3.3-2.04-5.4-2.04-2.64,0-5.21,1.14-7.07,3.11-.76.81-1.6,1.23-2.43,1.23-1.51,0-2.65-1.41-2.65-3.29,0-3.66,2.11-8.66,3.81-12.67l.16-.37c.13-.31.09-.66-.09-.93-.18-.28-.49-.44-.82-.44Z"/>
          <path class="cls-2" d="M178.56,187.65c-1.56-1.48-3.72-2.3-6.08-2.3-2.9,0-5.75,1.24-7.79,3.42-.55.59-1.17.92-1.72.92-.97,0-1.66-.97-1.66-2.3,0-3.46,2.07-8.35,3.73-12.28l.16-.37c.26-.61.19-1.31-.17-1.86-.36-.55-.98-.88-1.64-.88-1.07,0-2.02.22-2.95.42-.88.2-1.71.39-2.63.39s-1.75-.19-2.63-.39c-.92-.21-1.88-.42-2.95-.42-.66,0-1.28.33-1.64.88-.36.55-.43,1.25-.17,1.86l.16.37c1.66,3.93,3.73,8.82,3.73,12.28,0,1.34-.7,2.3-1.66,2.3-.55,0-1.16-.33-1.72-.92-2.05-2.17-4.89-3.42-7.79-3.42-2.36,0-4.52.82-6.08,2.3-3.6,3.42-4.5,9.8,1.59,16.35,1.92,2.07,3.93,3.73,5.88,5.34,4.33,3.58,8.41,6.95,11.46,14.59.3.75,1.02,1.24,1.83,1.24s1.53-.49,1.83-1.24c3.05-7.63,7.13-11.01,11.46-14.59,1.94-1.61,3.96-3.27,5.88-5.34,6.08-6.54,5.18-12.93,1.59-16.35ZM175.52,202.65c-6.01,6.47-13.07,8.88-17.72,20.54-4.65-11.66-11.71-14.07-17.72-20.54-4.85-5.22-4.87-10.54-1.67-13.58,1.22-1.16,2.93-1.76,4.72-1.76,2.22,0,4.58.92,6.35,2.8,1,1.07,2.12,1.54,3.15,1.54,1.97,0,3.64-1.71,3.64-4.27,0-3.98-2.23-9.13-4.04-13.42,1.79,0,3.4.81,5.58.81s3.79-.81,5.58-.81c-1.81,4.29-4.04,9.45-4.04,13.42,0,2.56,1.67,4.27,3.64,4.27,1.03,0,2.15-.47,3.15-1.54,1.77-1.88,4.13-2.8,6.35-2.8,1.79,0,3.49.6,4.72,1.76,3.19,3.04,3.18,8.36-1.67,13.58Z"/>
          <path class="cls-2" d="M155.42,176.49c.71.14,1.5.25,2.38.25s1.67-.11,2.38-.25c-.97,2.39-1.87,4.86-2.38,7.22-.51-2.36-1.41-4.83-2.38-7.22ZM154.88,207.78l-2.99-9.78c-.21,1.73-.8,3.52-1.79,5.29,1.61,1.35,3.22,2.8,4.78,4.49ZM160.72,207.78c1.56-1.68,3.17-3.14,4.78-4.49-1-1.77-1.59-3.56-1.79-5.29l-2.99,9.78ZM157.8,210.57l5.17-16.95c-2.39,0-4.34-1.49-5.17-3.74-.83,2.24-2.78,3.74-5.17,3.74l5.17,16.95ZM175.84,190.51c-.83-.79-2.02-1.22-3.36-1.22-4.43,0-8.67,4.69-6.14,11.19.68-.18,1.43,0,1.92.57.77.88.68,1.94-.71,3.1-3.39,2.81-6.84,5.79-9.75,10.87-2.91-5.08-6.36-8.06-9.75-10.87-1.4-1.16-1.48-2.23-.71-3.1.49-.57,1.24-.75,1.92-.57,2.54-6.5-1.7-11.19-6.13-11.19-1.34,0-2.53.43-3.36,1.22-2.67,2.54-1.98,6.78,1.76,10.8,1.74,1.87,3.57,3.39,5.5,4.98,3.76,3.11,7.62,6.3,10.78,12.21,3.16-5.91,7.02-9.1,10.78-12.21,1.93-1.59,3.76-3.1,5.5-4.98,3.74-4.03,4.43-8.27,1.76-10.8Z"/>
        </g>
        <g>
          <path class="cls-3" d="M84.48,158.41c-.97,0-1.86-.2-2.73-.4-.89-.2-1.81-.41-2.85-.41s-1.96.21-2.85.41c-.87.2-1.77.4-2.73.4-.33,0-.64-.16-.82-.44-.18-.27-.21-.62-.08-.93l.15-.37c1.7-4.01,3.81-9,3.81-12.67,0-1.88-1.14-3.29-2.65-3.29-.84,0-1.68.42-2.43,1.23-1.86,1.97-4.44,3.11-7.07,3.11-2.1,0-4.02-.72-5.4-2.04-3.24-3.08-4-8.9,1.63-14.96,1.87-2.02,3.86-3.66,5.78-5.25,4.43-3.66,8.61-7.11,11.75-14.98.15-.37.51-.62.92-.62s.77.25.91.62c3.14,7.87,7.32,11.32,11.75,14.98,1.92,1.59,3.91,3.23,5.78,5.25,5.63,6.05,4.87,11.87,1.63,14.96-1.38,1.31-3.3,2.04-5.4,2.04-2.64,0-5.21-1.14-7.07-3.11-.76-.81-1.6-1.23-2.43-1.23-1.51,0-2.65,1.41-2.65,3.29,0,3.66,2.11,8.66,3.81,12.67l.16.37c.13.31.09.66-.09.93-.18.28-.49.44-.82.44Z"/>
          <path class="cls-2" d="M98.07,127.39c-1.92-2.07-3.93-3.73-5.88-5.34-4.33-3.58-8.41-6.96-11.46-14.59-.3-.75-1.02-1.24-1.83-1.24s-1.53.49-1.83,1.24c-3.05,7.63-7.14,11.01-11.46,14.59-1.94,1.61-3.96,3.27-5.88,5.34-6.08,6.54-5.18,12.93-1.59,16.35,1.56,1.48,3.72,2.3,6.08,2.3,2.9,0,5.75-1.24,7.79-3.42.55-.59,1.17-.92,1.72-.92.97,0,1.66.97,1.66,2.3,0,3.46-2.06,8.35-3.73,12.28l-.16.37c-.26.61-.19,1.31.17,1.86.36.55.98.88,1.64.88,1.07,0,2.02-.22,2.95-.42.88-.2,1.71-.39,2.63-.39s1.75.19,2.63.39c.92.21,1.87.42,2.95.42.66,0,1.28-.33,1.64-.88.36-.55.43-1.25.17-1.86l-.16-.37c-1.66-3.93-3.73-8.82-3.73-12.28,0-1.34.7-2.3,1.66-2.3.55,0,1.16.33,1.72.92,2.05,2.17,4.89,3.42,7.79,3.42,2.36,0,4.52-.82,6.08-2.3,3.6-3.42,4.5-9.8-1.59-16.35ZM98.3,142.3c-1.23,1.16-2.93,1.76-4.72,1.76-2.22,0-4.58-.92-6.35-2.8-1.01-1.07-2.12-1.54-3.15-1.54-1.97,0-3.64,1.71-3.64,4.27,0,3.98,2.23,9.13,4.04,13.42-1.79,0-3.4-.81-5.58-.81s-3.79.81-5.58.81c1.81-4.29,4.04-9.45,4.04-13.42,0-2.56-1.66-4.27-3.64-4.27-1.03,0-2.15.47-3.15,1.54-1.77,1.88-4.13,2.8-6.35,2.8-1.79,0-3.49-.6-4.72-1.76-3.19-3.04-3.18-8.36,1.67-13.58,6.01-6.47,13.07-8.88,17.72-20.54,4.65,11.66,11.71,14.07,17.72,20.54,4.85,5.22,4.87,10.54,1.67,13.58Z"/>
          <path class="cls-2" d="M78.9,147.67c.51,2.36,1.41,4.83,2.38,7.22-.72-.14-1.5-.25-2.38-.25s-1.67.11-2.38.25c.97-2.39,1.87-4.86,2.38-7.22ZM71.21,128.09c1,1.77,1.58,3.56,1.79,5.29l2.99-9.78c-1.56,1.69-3.17,3.14-4.78,4.49ZM84.8,133.38c.21-1.73.8-3.52,1.79-5.29-1.61-1.35-3.22-2.8-4.78-4.49l2.99,9.78ZM73.73,137.76c2.39,0,4.34,1.49,5.17,3.74.83-2.24,2.78-3.74,5.17-3.74l-5.17-16.95-5.17,16.95ZM95.18,130.07c-1.74-1.87-3.57-3.39-5.5-4.98-3.76-3.11-7.62-6.3-10.78-12.21-3.16,5.91-7.02,9.1-10.78,12.21-1.93,1.59-3.76,3.1-5.5,4.98-3.74,4.03-4.43,8.27-1.76,10.8.83.79,2.02,1.22,3.36,1.22,4.43,0,8.67-4.69,6.13-11.19-.67.18-1.43,0-1.92-.57-.77-.88-.68-1.94.71-3.1,3.39-2.81,6.84-5.79,9.75-10.87,2.91,5.08,6.36,8.06,9.75,10.87,1.4,1.16,1.48,2.23.71,3.1-.49.57-1.24.75-1.92.57-2.53,6.5,1.7,11.19,6.14,11.19,1.34,0,2.53-.43,3.36-1.22,2.67-2.54,1.98-6.78-1.76-10.8Z"/>
        </g>
        <g>
          <path class="cls-3" d="M84.48,221.55c-.97,0-1.86-.2-2.73-.4-.89-.2-1.81-.41-2.85-.41s-1.96.21-2.85.41c-.87.2-1.77.4-2.73.4-.33,0-.64-.16-.82-.44-.18-.27-.21-.62-.08-.93l.15-.37c1.7-4.01,3.81-9,3.81-12.67,0-1.88-1.14-3.29-2.65-3.29-.84,0-1.68.42-2.43,1.23-1.86,1.97-4.44,3.11-7.07,3.11-2.1,0-4.02-.72-5.4-2.04-3.24-3.08-4-8.9,1.63-14.96,1.87-2.02,3.86-3.66,5.78-5.25,4.43-3.66,8.61-7.11,11.75-14.98.15-.38.51-.62.92-.62s.77.25.91.62c3.14,7.87,7.32,11.32,11.75,14.98,1.92,1.59,3.91,3.23,5.78,5.25,5.63,6.05,4.87,11.87,1.63,14.96-1.38,1.31-3.3,2.04-5.4,2.04-2.64,0-5.21-1.14-7.07-3.11-.76-.81-1.6-1.23-2.43-1.23-1.51,0-2.65,1.41-2.65,3.29,0,3.66,2.11,8.66,3.81,12.67l.16.37c.13.31.09.66-.09.93-.18.28-.49.44-.82.44Z"/>
          <path class="cls-2" d="M98.07,190.52c-1.92-2.07-3.93-3.73-5.88-5.34-4.33-3.58-8.41-6.95-11.46-14.59-.3-.75-1.02-1.24-1.83-1.24s-1.53.49-1.83,1.24c-3.05,7.63-7.14,11.01-11.46,14.59-1.94,1.61-3.96,3.27-5.88,5.34-6.08,6.54-5.18,12.93-1.59,16.35,1.56,1.48,3.72,2.3,6.08,2.3,2.9,0,5.75-1.24,7.79-3.42.55-.59,1.17-.92,1.72-.92.97,0,1.66.97,1.66,2.3,0,3.46-2.06,8.35-3.73,12.28l-.16.38c-.26.61-.19,1.31.17,1.86.36.55.98.88,1.64.88,1.07,0,2.02-.22,2.95-.42.88-.2,1.71-.39,2.63-.39s1.75.19,2.63.39c.92.21,1.87.42,2.95.42.66,0,1.28-.33,1.64-.88.36-.55.43-1.25.17-1.86l-.16-.38c-1.66-3.93-3.73-8.82-3.73-12.28,0-1.34.7-2.3,1.66-2.3.55,0,1.16.33,1.72.92,2.05,2.17,4.89,3.42,7.79,3.42,2.36,0,4.52-.82,6.08-2.3,3.6-3.42,4.5-9.8-1.59-16.35ZM98.3,205.44c-1.23,1.16-2.93,1.76-4.72,1.76-2.22,0-4.58-.92-6.35-2.8-1.01-1.07-2.12-1.54-3.15-1.54-1.97,0-3.64,1.71-3.64,4.27,0,3.98,2.23,9.13,4.04,13.42-1.79,0-3.4-.81-5.58-.81s-3.79.81-5.58.81c1.81-4.29,4.04-9.45,4.04-13.42,0-2.56-1.66-4.27-3.64-4.27-1.03,0-2.15.47-3.15,1.54-1.77,1.88-4.13,2.8-6.35,2.8-1.79,0-3.49-.6-4.72-1.76-3.19-3.04-3.18-8.36,1.67-13.58,6.01-6.47,13.07-8.88,17.72-20.54,4.65,11.66,11.71,14.07,17.72,20.54,4.85,5.22,4.87,10.54,1.67,13.58Z"/>
          <path class="cls-2" d="M78.9,210.81c.51,2.36,1.41,4.83,2.38,7.22-.72-.14-1.5-.25-2.38-.25s-1.67.11-2.38.25c.97-2.39,1.87-4.86,2.38-7.22ZM71.21,191.22c1,1.77,1.58,3.56,1.79,5.29l2.99-9.78c-1.56,1.69-3.17,3.14-4.78,4.49ZM84.8,196.52c.21-1.73.8-3.52,1.79-5.29-1.61-1.35-3.22-2.8-4.78-4.49l2.99,9.78ZM73.73,200.89c2.39,0,4.34,1.49,5.17,3.74.83-2.24,2.78-3.74,5.17-3.74l-5.17-16.95-5.17,16.95ZM95.18,193.2c-1.74-1.88-3.57-3.39-5.5-4.98-3.76-3.11-7.62-6.3-10.78-12.21-3.16,5.91-7.02,9.1-10.78,12.21-1.93,1.59-3.76,3.1-5.5,4.98-3.74,4.03-4.43,8.26-1.76,10.8.83.79,2.02,1.22,3.36,1.22,4.43,0,8.67-4.7,6.13-11.19-.67.19-1.43,0-1.92-.56-.77-.88-.68-1.94.71-3.1,3.39-2.81,6.84-5.79,9.75-10.87,2.91,5.08,6.36,8.06,9.75,10.87,1.4,1.16,1.48,2.23.71,3.1-.49.56-1.24.75-1.92.56-2.53,6.5,1.7,11.19,6.14,11.19,1.34,0,2.53-.43,3.36-1.22,2.67-2.54,1.98-6.78-1.76-10.8Z"/>
        </g>
        <g>
          <path class="cls-3" d="M73.32,236.1c.97,0,1.86.2,2.73.4.89.2,1.81.41,2.85.41s1.96-.21,2.85-.41c.87-.2,1.77-.4,2.73-.4.33,0,.64.16.82.44.18.27.21.62.08.93l-.15.37c-1.7,4.01-3.81,9-3.81,12.67,0,1.88,1.14,3.29,2.65,3.29.84,0,1.68-.42,2.43-1.23,1.86-1.97,4.44-3.11,7.07-3.11,2.1,0,4.02.72,5.4,2.04,3.24,3.08,4,8.9-1.63,14.96-1.88,2.02-3.86,3.66-5.78,5.25-4.43,3.66-8.61,7.11-11.75,14.98-.15.38-.51.62-.92.62s-.77-.25-.91-.62c-3.14-7.87-7.32-11.32-11.75-14.98-1.92-1.59-3.91-3.23-5.78-5.25-5.63-6.05-4.87-11.87-1.63-14.96,1.38-1.31,3.3-2.04,5.4-2.04,2.64,0,5.21,1.14,7.07,3.11.76.81,1.6,1.23,2.43,1.23,1.51,0,2.65-1.41,2.65-3.29,0-3.66-2.11-8.66-3.81-12.67l-.16-.37c-.13-.31-.09-.66.09-.93.18-.28.49-.44.82-.44Z"/>
          <path class="cls-2" d="M59.73,267.13c1.92,2.07,3.93,3.73,5.88,5.34,4.33,3.58,8.41,6.96,11.46,14.59.3.75,1.02,1.24,1.83,1.24s1.53-.49,1.83-1.24c3.05-7.63,7.13-11.01,11.46-14.59,1.94-1.61,3.96-3.27,5.88-5.34,6.08-6.54,5.18-12.93,1.59-16.34-1.56-1.48-3.72-2.3-6.08-2.3-2.9,0-5.75,1.24-7.79,3.42-.55.59-1.17.92-1.72.92-.97,0-1.66-.97-1.66-2.3,0-3.46,2.06-8.35,3.73-12.28l.16-.38c.26-.61.19-1.31-.17-1.86-.36-.55-.98-.88-1.64-.88-1.07,0-2.02.22-2.95.42-.88.2-1.71.39-2.63.39s-1.75-.19-2.63-.39c-.92-.21-1.88-.42-2.95-.42-.66,0-1.28.33-1.64.88-.36.55-.43,1.25-.17,1.86l.16.38c1.66,3.93,3.73,8.82,3.73,12.28,0,1.34-.7,2.3-1.66,2.3-.55,0-1.16-.33-1.72-.92-2.05-2.17-4.89-3.42-7.79-3.42-2.36,0-4.52.82-6.08,2.3-3.6,3.42-4.5,9.8,1.59,16.34ZM59.5,252.21c1.23-1.16,2.93-1.76,4.72-1.76,2.22,0,4.58.92,6.35,2.8,1.01,1.07,2.12,1.54,3.15,1.54,1.97,0,3.64-1.71,3.64-4.27,0-3.98-2.23-9.13-4.04-13.42,1.79,0,3.4.81,5.58.81s3.79-.81,5.58-.81c-1.81,4.29-4.04,9.45-4.04,13.42,0,2.56,1.66,4.27,3.64,4.27,1.03,0,2.15-.47,3.15-1.54,1.77-1.88,4.13-2.8,6.35-2.8,1.79,0,3.49.6,4.72,1.76,3.19,3.04,3.18,8.36-1.67,13.58-6.01,6.47-13.07,8.88-17.72,20.54-4.65-11.66-11.71-14.07-17.72-20.54-4.85-5.22-4.87-10.54-1.67-13.58Z"/>
          <path class="cls-2" d="M78.9,246.84c-.51-2.36-1.41-4.83-2.38-7.22.72.14,1.5.25,2.38.25s1.67-.11,2.38-.25c-.97,2.39-1.87,4.86-2.38,7.22ZM86.59,266.43c-1-1.77-1.58-3.56-1.79-5.29l-2.99,9.78c1.56-1.69,3.17-3.14,4.78-4.49ZM73,261.14c-.21,1.73-.8,3.52-1.79,5.29,1.61,1.35,3.22,2.8,4.78,4.49l-2.99-9.78ZM84.07,256.76c-2.39,0-4.34-1.49-5.17-3.74-.83,2.24-2.78,3.74-5.17,3.74l5.17,16.95,5.17-16.95ZM62.62,264.45c1.74,1.87,3.57,3.39,5.5,4.98,3.76,3.11,7.62,6.3,10.78,12.21,3.16-5.91,7.02-9.1,10.78-12.21,1.93-1.59,3.76-3.1,5.5-4.98,3.74-4.03,4.43-8.26,1.76-10.8-.83-.79-2.02-1.22-3.36-1.22-4.43,0-8.67,4.69-6.13,11.19.67-.18,1.43,0,1.92.56.77.88.68,1.94-.71,3.1-3.39,2.81-6.84,5.79-9.75,10.87-2.91-5.08-6.36-8.06-9.75-10.87-1.4-1.16-1.48-2.23-.71-3.1.49-.56,1.24-.75,1.92-.56,2.53-6.5-1.7-11.19-6.14-11.19-1.34,0-2.53.43-3.36,1.22-2.67,2.54-1.98,6.78,1.76,10.8Z"/>
        </g>
      </g>
      <g id="_9" data-name="9">
        <path class="cls-4" d="M215.94,310.93c1.02-1.13,2.41-1.69,4.17-1.69,2.23,0,3.98.77,5.25,2.3,1.11,1.33,1.67,2.91,1.67,4.75,0,2.06-.76,3.73-2.27,5-1.44,1.2-3.28,1.8-5.54,1.8-6.83,0-7.98-5.26-7.98-9.87,0-3.38.73-6.58,2.19-9.58,1.29-2.62,2.97-4.76,5.03-6.42,1.95-1.57,3.77-2.36,5.44-2.36.91.18,1.37,1.28,1.37,1.64,0,.05,0,.11-.02.15-3.86.85-9.33,5.94-9.33,14.27ZM219.4,321.28c.07,0,3.37.16,3.37-4.57,0-3.55-1.78-4.96-3.45-4.96-1.84,0-3.09,1.3-3.09,4.96s1.74,4.57,3.17,4.57Z"/>
        <path class="cls-4" d="M20.76,20.45c-1.02,1.13-2.41,1.69-4.17,1.69-2.23,0-3.98-.77-5.25-2.3-1.11-1.33-1.67-2.91-1.67-4.75,0-2.06.76-3.73,2.27-5,1.44-1.2,3.28-1.8,5.54-1.8,6.83,0,7.98,5.26,7.98,9.87,0,3.38-.73,6.58-2.19,9.58-3.27,6.62-8.23,8.77-10.48,8.77-.91-.18-1.36-1.27-1.36-1.64,0-.05,0-.11.02-.15,6-1.31,9.33-8.75,9.33-14.27ZM17.3,10.1c-2.47,0-3.37,2.38-3.37,4.57,0,3.59,1.82,4.96,3.45,4.96,1.83,0,3.09-1.27,3.09-4.96s-1.74-4.57-3.17-4.57Z"/>
      </g>
      <g id="Spades">
        <path class="cls-2" d="M223.86,271.39c4.55-3.18,10.03,2.23,5.61,6.33-1.91,1.77-8.02,3.85-9.65,9.91-1.64-6.08-7.65-8.06-9.65-9.91-4.41-4.09,1.05-9.52,5.61-6.33,1.53,1.06,2.87.61,2.74-1.24-.14-2.14-.65-4.19-1.5-6.19.81,0,1.79.4,2.79.4s2-.4,2.79-.4c-.84,2-1.35,4.05-1.5,6.19-.12,1.85,1.22,2.31,2.74,1.24Z"/>
        <path class="cls-2" d="M12.84,59.99c-4.55,3.18-10.03-2.23-5.61-6.33,1.91-1.77,8.02-3.85,9.65-9.91,1.64,6.08,7.65,8.06,9.65,9.91,4.41,4.09-1.05,9.52-5.61,6.33-1.53-1.06-2.87-.61-2.74,1.24.14,2.14.65,4.19,1.5,6.19-.81,0-1.79-.4-2.79-.4s-2,.4-2.79.4c.84-2,1.35-4.05,1.5-6.19.12-1.85-1.22-2.31-2.74-1.24Z"/>
      </g>
    </g>
  </g>
</svg>