<?xml version="1.0" encoding="UTF-8"?>
<svg id="Layer_2" data-name="Layer 2" xmlns="http://www.w3.org/2000/svg" viewBox="0 0 236.7 331.38">
  <defs>
    <style>
      .cls-1 {
        fill: #ede8da;
      }

      .cls-2 {
        fill: #3a2b0e;
      }

      .cls-3 {
        fill: #fff;
      }

      .cls-4 {
        fill: #3d2b07;
      }
    </style>
  </defs>
  <g id="_Layer_" data-name="&amp;lt;Layer&amp;gt;">
    <g id="Ace_Spades" data-name="Ace Spades">
      <path id="BG" class="cls-3" d="M14.2,0h208.3c7.84,0,14.2,6.36,14.2,14.2v302.97c0,7.84-6.36,14.2-14.2,14.2H14.2c-7.84,0-14.2-6.36-14.2-14.2V14.2C0,6.36,6.36,0,14.2,0Z"/>
      <g>
        <path class="cls-1" d="M204.29,172.12l-43.32-3.74,43.32,1.73v-1.98l-43.2-1.86h43.2v-1.97h-43.3l43.3-2.14v-1.97l-43.43,2.28,43.43-4.3v-1.99l-43.54,4.31,43.54-6.35v-1.99l-43.88,6.4,43.88-8.49v-2.01l-44.21,8.56,44.21-10.69v-2.03l-44.51,10.77,44.51-12.96v-2.06l-47.7,13.89,47.7-16.47v-2.09l-51.42,17.75,51.42-20.9v-2.13l-58,23.57,58-28.04v-2.19l-63.82,30.86,63.82-37.33v-2.28l-66.9,39.13,66.9-47.39v-2.41l-68.02,48.18,68.02-57.67v-2.59l-69.3,58.76,69.3-69.97v-2.8l-70.71,71.4,70.71-85.06v-3.09l-72.21,86.87,72.17-104.02c-.02-1.16-.06-2.26-.11-3.31l-73.68,106.2L200.88,23.39c-.38-.72-.78-1.34-1.21-1.86l-70.93,124L190.03,12.79c-.55-.26-1.15-.52-1.82-.76l-61.26,132.66L175.5,9.86c-.66-.04-1.36-.07-2.06-.1l-48.34,134.28L160.65,9.62h-2.04l-35.42,133.91L146.4,9.62h-2l-23.15,133.56,11.33-133.56h-1.98l-11.47,133.41V9.62h-1.97v133.41L105.36,9.62h-1.98l11.97,133.59L91.54,9.62h-2l23.87,133.93L77.3,9.62h-2.04l36.24,134.44L62.43,9.8c-.71.04-1.39.08-2.05.13l49.26,134.81L47.74,12.32c-.66.26-1.26.54-1.79.83l61.91,132.42L36.52,22.22c-.39.58-.77,1.24-1.12,2.01l66.94,115.75L32.83,36.02c-.09,1.01-.17,2.07-.23,3.2l65.71,98.27L32.41,50.15v3.27l61.97,82.13L32.41,61.62v3.07l58.69,70.02-58.69-63.58v2.9l56.29,60.98-56.29-55.59v2.77l54.89,54.22-54.89-49.42v2.65l53.57,48.23-53.57-43.92v2.55l52.29,42.87-52.29-38.98v2.46l51.13,38.12-51.13-34.56v2.38l50.04,33.83-50.04-30.56v2.31l48.96,29.9-48.96-26.87v2.25l48,26.34-48-23.53v2.2l47.21,23.14-47.21-20.5v2.15l46.39,20.14-46.39-17.64v2.11l45.68,17.37-45.68-14.99v2.08l45.05,14.79-45.05-12.51v2.05l44.59,12.38-44.59-10.19v2.02l44.13,10.09-44.13-7.96v2l43.71,7.89-43.71-5.82v1.99l43.48,5.79-43.48-3.76v1.98l43.27,3.74-43.27-1.73v1.98l43.26,1.86h-43.26v1.97h43.3l-43.3,2.14v1.97l43.37-2.28-43.37,4.29v1.98l43.59-4.32-43.59,6.36v2l43.82-6.4-43.82,8.48v2.01l44.26-8.56-44.26,10.7v2.03l44.45-10.75-44.45,12.94v2.06l47.7-13.88-47.7,16.47v2.09l51.46-17.77-51.46,20.91v2.13l57.81-23.49-57.81,27.95v2.19l63.97-30.93-63.97,37.42v2.28l66.9-39.13-66.9,47.39v2.41l68.02-48.18-68.02,57.68v2.59l69.29-58.75-69.29,69.97v2.8l70.7-71.39-70.7,85.04v3.08l72.22-86.88-72.18,104.04c.02,1.15.06,2.25.11,3.31l73.69-106.21-70.42,123.11c.38.72.78,1.34,1.21,1.87l70.92-123.99-61.28,132.73c.55.26,1.15.52,1.82.76l61.26-132.67-48.54,134.84c.66.04,1.36.07,2.06.1l48.34-134.28-35.56,134.42h2.04l35.42-133.91-23.21,133.91h2l23.15-133.57-11.33,133.57h1.98l11.47-133.41v133.41h1.97v-133.4l11.8,133.4h1.98l-11.97-133.59,23.81,133.59h2l-23.87-133.92,36.11,133.92h2.04l-36.25-134.44,49.07,134.27c.71-.04,1.39-.08,2.05-.13l-49.26-134.81,61.91,132.42c.65-.26,1.26-.53,1.79-.83l-61.91-132.43,71.34,123.36c.39-.58.77-1.24,1.12-2.01l-66.92-115.72,69.49,103.93c.09-1.01.17-2.08.23-3.2l-65.74-98.31,65.93,87.38v-3.27l-61.93-82.08,61.93,73.89v-3.07l-58.69-70.02,58.69,63.59v-2.9l-56.29-60.98,56.29,55.59v-2.77l-54.89-54.22,54.89,49.42v-2.65l-53.57-48.23,53.57,43.92v-2.55l-52.32-42.9,52.32,39v-2.46l-51.13-38.12,51.13,34.56v-2.38l-50.01-33.8,50.01,30.53v-2.31l-48.98-29.91,48.98,26.88v-2.25l-48.04-26.37,48.04,23.55v-2.2l-47.15-23.11,47.15,20.47v-2.15l-46.4-20.15,46.4,17.65v-2.11l-45.68-17.37,45.68,14.99v-2.08l-45.09-14.8,45.09,12.53v-2.05l-44.54-12.37,44.54,10.18v-2.02l-44.13-10.09,44.13,7.97v-2.01l-43.76-7.9,43.76,5.83v-1.99l-43.43-5.78,43.43,3.75v-1.98Z"/>
        <path class="cls-2" d="M167.47,322.75h-98.24c-18.14,0-27.24-3.01-28.37-9.44-6.43-1.14-9.44-10.23-9.44-28.37V46.44c0-18.14,3.01-27.24,9.44-28.37,1.13-6.43,10.23-9.44,28.37-9.44h98.24c18.14,0,27.24,3.01,28.37,9.44,6.43,1.13,9.44,10.22,9.44,28.37v238.5c0,18.14-3.01,27.24-9.44,28.37-1.13,6.43-10.23,9.44-28.37,9.44ZM42.85,313.4c.68,2.83,4.53,7.38,26.37,7.38h98.24c21.85,0,25.69-4.55,26.37-7.38-2.16-.24-3.94-1.79-3.94-3.55,0-1.62,1.44-2.48,2.48-2.48,1.76,0,3.32,1.79,3.55,3.94,2.83-.68,7.38-4.53,7.38-26.37V46.44c0-21.85-4.54-25.69-7.38-26.37-.23,2.16-1.79,3.94-3.55,3.94-1.04,0-2.48-.86-2.48-2.48,0-1.76,1.79-3.31,3.94-3.55-.68-2.83-4.53-7.38-26.37-7.38h-98.24c-21.85,0-25.69,4.55-26.37,7.38,2.16.24,3.95,1.79,3.95,3.55,0,1.62-1.44,2.48-2.48,2.48-1.76,0-3.32-1.79-3.55-3.94-2.83.68-7.37,4.53-7.37,26.37v238.5c0,21.85,4.54,25.69,7.37,26.37.24-2.16,1.8-3.94,3.55-3.94,1.04,0,2.48.86,2.48,2.48,0,1.76-1.78,3.32-3.95,3.55ZM192.38,309.34s-.51.07-.51.51c0,.51.78,1.41,2.09,1.58-.17-1.31-1.07-2.09-1.58-2.09ZM44.32,309.34c-.51,0-1.41.78-1.58,2.09,1.31-.17,2.09-1.07,2.09-1.58,0-.43-.51-.51-.51-.51ZM193.96,19.95c-1.31.17-2.09,1.07-2.09,1.58,0,.43.51.51.51.51.51,0,1.41-.78,1.58-2.09ZM42.74,19.95c.17,1.31,1.07,2.09,1.58,2.09,0,0,.51-.07.51-.51,0-.51-.78-1.41-2.09-1.58Z"/>
      </g>
      <g id="Illustration">
        <g id="Frame">
          <path id="Color" class="cls-3" d="M139.73,98.2c-10.91-11.06-18.27-23.24-21.38-35.66-3.11,12.43-10.47,24.6-21.38,35.66-25.98,26.34-76.91,39.09-76.91,79.98,0,19.9,17.78,37.07,38.74,37.07,16.14,0,23.29-9.79,36.36-9.79,8.5,0,11.99,5.64,11.99,13.56,0,14.74-6.04,28.61-9.77,34.34-1.64,2.52-3.83,4.92-6.78,6.76-.47.29-.5,6.86,0,6.84,7.57-.37,19.28-3.3,27.76-3.3s20.2,2.94,27.76,3.3c.5.02.47-6.55,0-6.84-2.95-1.84-5.14-4.24-6.78-6.76-3.74-5.74-9.77-19.61-9.77-34.34,0-7.92,3.49-13.56,11.99-13.56,13.07,0,20.22,9.79,36.36,9.79,20.96,0,38.74-17.16,38.74-37.07,0-40.9-50.93-53.65-76.91-79.98ZM118.35,200.47c-19.21,0-34.78-15.57-34.78-34.78s15.57-34.78,34.78-34.78,34.78,15.57,34.78,34.78-15.57,34.78-34.78,34.78Z"/>
          <g id="Line">
            <g>
              <path class="cls-4" d="M59.05,205.46c-.97,0-1.94-.04-2.92-.13-8.14-.74-15.76-4.75-20.89-11-4.84-5.89-7.07-13.26-6.27-20.73.74-7,4.29-13.48,9.74-17.79,5.07-4.01,11.33-5.77,17.64-4.98,5.86.74,11.21,3.84,14.7,8.49,3.18,4.24,4.48,9.41,3.66,14.54-.75,4.73-3.4,8.96-7.26,11.61-3.42,2.34-7.48,3.17-11.43,2.34-3.56-.76-6.75-3.03-8.52-6.09-1.51-2.59-1.85-5.54-.97-8.31.77-2.43,2.83-4.61,5.11-5.44,1.79-.65,3.56-.47,5.11.53,1.21.77,2.08,2.49,1.98,3.92-.07.94-.55,1.69-1.33,2.04-1.59.73-4.1-.19-7.66-2.79-.6.69-1.07,1.5-1.34,2.34-.91,2.86-.07,5.23.79,6.72,1.5,2.58,4.2,4.51,7.23,5.15,3.42.73,6.94,0,9.91-2.03,3.37-2.31,5.77-6.16,6.43-10.29.73-4.6-.44-9.23-3.3-13.04-3.16-4.22-8.04-7.03-13.37-7.71-5.78-.73-11.52.89-16.16,4.56-5.03,3.98-8.31,9.98-9,16.45-.74,6.94,1.34,13.79,5.84,19.27,4.8,5.85,11.92,9.6,19.54,10.29,13.47,1.19,26.1-6.65,31.49-19.58.21-.5.79-.75,1.29-.53.5.21.74.79.53,1.29-5.34,12.79-17.39,20.92-30.57,20.92ZM51.26,170.33c3.95,2.8,5.18,2.38,5.31,2.32.05-.02.16-.07.18-.39.05-.72-.46-1.73-1.07-2.12-1.04-.66-2.18-.78-3.38-.34-.35.13-.7.3-1.03.51Z"/>
              <path class="cls-4" d="M177.65,205.46c-13.19,0-25.23-8.12-30.57-20.92-.21-.5.03-1.08.53-1.29.5-.22,1.08.03,1.29.53,5.4,12.94,18.09,20.78,31.49,19.58,7.62-.69,14.74-4.44,19.54-10.29,4.5-5.48,6.57-12.33,5.84-19.27-.69-6.48-3.97-12.47-9-16.45-4.65-3.68-10.39-5.3-16.16-4.56-5.33.68-10.2,3.49-13.37,7.71-2.86,3.81-4.03,8.44-3.3,13.04.66,4.13,3.06,7.98,6.43,10.29,2.97,2.03,6.48,2.76,9.91,2.03,3.02-.64,5.73-2.57,7.23-5.15.87-1.49,1.71-3.86.79-6.72-.27-.83-.74-1.64-1.34-2.34-3.56,2.6-6.07,3.52-7.66,2.79-.78-.35-1.26-1.1-1.33-2.04-.1-1.43.77-3.15,1.98-3.92,1.56-.99,3.33-1.17,5.12-.53,2.28.83,4.34,3.01,5.11,5.44.88,2.77.54,5.72-.97,8.31-1.78,3.06-4.96,5.33-8.52,6.09-3.96.83-8.01,0-11.43-2.34-3.86-2.65-6.51-6.88-7.26-11.61-.82-5.13.48-10.29,3.66-14.54,3.48-4.65,8.84-7.74,14.7-8.49,6.31-.79,12.57.97,17.64,4.98,5.45,4.31,9,10.79,9.74,17.79.79,7.47-1.44,14.84-6.28,20.73-5.13,6.25-12.74,10.26-20.89,11-.98.09-1.95.13-2.92.13ZM182.99,169.55c-.69,0-1.35.2-1.98.6-.61.39-1.12,1.4-1.07,2.12.02.31.13.36.18.39.14.05,1.36.48,5.31-2.32-.34-.21-.68-.39-1.03-.51-.48-.17-.95-.26-1.4-.26Z"/>
              <path class="cls-4" d="M36.39,160c-.34,0-.68-.18-.86-.5-2.76-4.89-2.2-15.84,7.75-23.85.43-.34,1.05-.27,1.39.15.34.42.27,1.05-.15,1.39-9.06,7.29-9.69,17.05-7.27,21.34.27.48.1,1.08-.37,1.34-.15.09-.32.13-.48.13Z"/>
              <path class="cls-4" d="M200.31,160c-.16,0-.33-.04-.48-.13-.47-.27-.64-.87-.37-1.34,2.43-4.29,1.79-14.05-7.27-21.34-.42-.34-.49-.96-.15-1.39.34-.43.96-.49,1.39-.15,9.95,8.01,10.5,18.96,7.75,23.85-.18.32-.52.5-.86.5Z"/>
              <path class="cls-4" d="M132.39,134.73c-.43,0-.82-.28-.95-.71-7.43-25.65-18.52-40.68-24.46-47.36-.36-.41-.33-1.03.08-1.39.41-.36,1.03-.33,1.39.08,6.05,6.8,17.34,22.09,24.88,48.12.15.52-.15,1.07-.67,1.22-.09.03-.18.04-.27.04Z"/>
              <path class="cls-4" d="M104.31,134.73c-.09,0-.18-.01-.27-.04-.52-.15-.82-.7-.67-1.22,7.54-26.03,18.83-41.32,24.88-48.12.36-.41.99-.44,1.39-.08.41.36.44.99.08,1.39-5.95,6.68-17.03,21.71-24.46,47.36-.13.43-.52.71-.95.71Z"/>
              <path class="cls-4" d="M48.02,152.85c-.5,0-.94-.39-.98-.9-.08-.93-.13-1.86-.13-2.81,0-16.75,14.15-30.9,30.9-30.9,10.94,0,20.84,5.6,26.49,14.99.28.47.13,1.07-.34,1.35-.47.28-1.07.13-1.35-.34-5.29-8.79-14.56-14.03-24.8-14.03-15.68,0-28.92,13.25-28.92,28.92,0,.89.04,1.76.12,2.63.05.54-.35,1.02-.89,1.07-.03,0-.06,0-.09,0Z"/>
              <path class="cls-4" d="M60.88,153.32c-.5,0-.93-.39-.98-.9-.05-.53-.07-1.06-.07-1.6,0-9.54,8.06-17.6,17.6-17.6,6.23,0,11.87,3.19,15.09,8.53.28.47.13,1.07-.34,1.35-.47.28-1.07.13-1.35-.34-2.86-4.75-7.87-7.58-13.4-7.58-8.47,0-15.62,7.16-15.62,15.63,0,.48.02.95.06,1.42.05.54-.35,1.02-.89,1.07-.03,0-.06,0-.09,0Z"/>
              <path class="cls-4" d="M175.82,153.32c-.63-.05-1.03-.53-.98-1.07.04-.47.06-.94.06-1.42,0-8.47-7.16-15.63-15.62-15.63-5.53,0-10.54,2.83-13.4,7.58-.28.47-.89.61-1.35.34-.47-.28-.62-.89-.34-1.35,3.22-5.34,8.86-8.53,15.09-8.53,9.54,0,17.6,8.06,17.6,17.6,0,.54-.02,1.07-.07,1.6-.04.51-.47.9-.98.9Z"/>
              <path class="cls-4" d="M188.68,152.85c-.63-.05-1.03-.53-.98-1.08.08-.87.12-1.74.12-2.63,0-15.68-13.24-28.92-28.92-28.92-10.24,0-19.51,5.24-24.8,14.03-.28.47-.89.61-1.35.34-.47-.28-.62-.89-.34-1.35,5.65-9.38,15.55-14.99,26.49-14.99,16.75,0,30.9,14.15,30.9,30.9,0,.95-.04,1.88-.13,2.81-.05.51-.48.9-.98.9Z"/>
              <path class="cls-4" d="M130.99,133.79c-.13,0-.25-.02-.38-.07-.5-.21-.74-.79-.53-1.29.59-1.43.13-2.96-1.31-4.29-.52-.49-1.38-1.02-2.38-1.64-2.5-1.55-6.07-3.77-8.04-7.72-1.99,3.96-5.6,6.21-8.13,7.78-.97.6-1.81,1.12-2.3,1.58-1.42,1.31-1.89,2.81-1.34,4.22.2.51-.05,1.08-.56,1.28-.5.21-1.08-.05-1.28-.56-.86-2.18-.19-4.51,1.83-6.39.63-.58,1.54-1.15,2.6-1.81,2.92-1.82,6.92-4.3,8.22-9.13.12-.43.51-.73.95-.73s.84.3.95.73c1.3,4.82,5.25,7.27,8.13,9.07,1.08.67,2.02,1.26,2.68,1.87,2.03,1.88,2.7,4.3,1.79,6.49-.16.38-.52.61-.91.61Z"/>
              <g>
                <path class="cls-4" d="M104.39,132.86c-.31,0-.61-.15-.8-.4-8.53-11.65-12.11-20.01-10.63-24.85.64-2.11,2.08-3.02,3.17-3.41,1.24-.3,2.94-.32,4.62,1.1,3.88,3.26,5.43,12.22,4.61,26.63-.02.42-.31.77-.7.89-.09.03-.19.04-.28.04ZM96.75,106.07c-.94.36-1.58,1.07-1.9,2.11-.69,2.25-.38,7.88,8.68,20.81.56-15.79-2.25-20.68-4.05-22.19-.84-.71-1.76-.95-2.74-.74Z"/>
                <path class="cls-4" d="M132.31,132.86c-.09,0-.19-.01-.28-.04-.4-.12-.68-.47-.7-.89-.82-14.41.74-23.37,4.61-26.63,1.69-1.42,3.39-1.4,4.52-1.14,1.2.43,2.63,1.34,3.28,3.44,1.48,4.84-2.1,13.21-10.63,24.85-.19.26-.49.4-.8.4ZM139.28,105.99c-.73,0-1.43.27-2.07.81-1.8,1.51-4.61,6.4-4.05,22.19,9.07-12.94,9.37-18.57,8.68-20.81-.32-1.05-.96-1.75-1.9-2.11-.23-.05-.45-.07-.67-.07Z"/>
                <path class="cls-4" d="M122.3,264.66c-.38,0-.75-.23-.91-.6-1.3-3.08-2-9.26-2.19-12.09-.14-2.08.82-2.95,1.4-3.27,1.09-.61,2.56-.38,4.03.64,2.97,2.08,6.12,1.19,7.7-.76,1.28-1.59,1.69-4.17-.99-6.66-.56-.52-1.51-1.23-2.61-2.05-3.48-2.6-8.33-6.21-10.38-10.5-2.12,4.39-7.14,8.12-10.44,10.58-1.07.8-2,1.49-2.53,1.98-2.68,2.49-2.28,5.06-1,6.64,1.58,1.96,4.73,2.86,7.71.78,1.46-1.02,2.93-1.26,4.03-.64.58.33,1.54,1.19,1.4,3.27-.19,2.84-.89,9.02-2.19,12.09-.21.51-.79.73-1.29.53-.5-.21-.74-.79-.52-1.29,1.11-2.63,1.83-8.3,2.04-11.46.05-.72-.1-1.26-.4-1.43-.29-.17-.98-.13-1.93.54-3.92,2.74-8.27,1.45-10.37-1.16-1.89-2.34-2.25-6.13,1.19-9.33.61-.56,1.53-1.25,2.69-2.11,3.98-2.96,10.64-7.9,10.64-13.03,0-.54.44-.99.99-.99s.99.44.99.99c0,5.08,6.61,10.01,10.56,12.96,1.15.86,2.13,1.59,2.77,2.18,3.45,3.2,3.08,7,1.18,9.34-2.1,2.6-6.44,3.88-10.36,1.14-.95-.67-1.63-.71-1.93-.54-.3.17-.45.7-.4,1.43.21,3.16.93,8.82,2.04,11.46.21.5-.02,1.08-.52,1.29-.13.05-.26.08-.38.08Z"/>
                <path class="cls-4" d="M90.95,261.08c-.49,0-.92-.37-.98-.87-.07-.54.32-1.03.86-1.1,15.64-1.9,21.55-4.32,23.42-9.6.18-.51.74-.77,1.26-.6.51.18.78.75.6,1.26-2.45,6.89-10.69,9.15-25.04,10.89-.04,0-.08,0-.12,0Z"/>
                <path class="cls-4" d="M145.52,261.05c-14.33-1.75-22.49-4-24.93-10.87-.18-.51.09-1.08.6-1.26.51-.17,1.08.09,1.26.6,1.87,5.26,7.72,7.67,23.19,9.57.54.07.92.56.86,1.1-.06.5-.49.87-.98.87Z"/>
                <path class="cls-4" d="M118.35,226.3c-.54,0-.99-.44-.99-.99v-24.39c0-.54.44-.99.99-.99s.99.44.99.99v24.39c0,.54-.44.99-.99.99Z"/>
                <path class="cls-4" d="M76.89,211.89c-.39,0-.75-.23-.91-.61-.21-.5.03-1.08.53-1.29,8.79-3.68,14.48-9.93,14.48-15.93,0-3.02-.92-5.91-2.65-8.36-.31-.44-.21-1.06.24-1.37.45-.32,1.06-.21,1.38.23,1.97,2.79,3.02,6.08,3.02,9.5,0,6.79-6.16,13.76-15.69,17.74-.12.05-.25.08-.38.08Z"/>
                <path class="cls-4" d="M159.81,211.89c-.13,0-.26-.02-.38-.08-9.53-3.99-15.69-10.95-15.69-17.74,0-3.43,1.04-6.71,3.02-9.5.32-.45.93-.55,1.38-.23.44.31.55.93.24,1.37-1.74,2.45-2.65,5.34-2.65,8.36,0,6,5.68,12.25,14.48,15.93.5.21.74.79.53,1.29-.16.38-.53.61-.91.61Z"/>
                <path class="cls-4" d="M51.55,214.4c-3.23,0-6.58-.64-10.01-2.12-.5-.22-.73-.8-.51-1.3.21-.5.8-.73,1.3-.52,18.92,8.17,35.6-11.44,41.9-20.25.32-.44.93-.55,1.38-.23.44.32.54.93.23,1.37-5.46,7.64-18.44,23.04-34.27,23.04Z"/>
                <path class="cls-4" d="M56.21,205.33c-12.95,0-37.14-7.96-37.14-27.15,0-.54.44-.99.99-.99s.99.44.99.99c0,17.79,22.91,25.17,35.17,25.17.54,0,.99.44.99.99s-.44.99-.99.99Z"/>
                <path class="cls-4" d="M185.15,214.4c-15.84,0-28.81-15.4-34.27-23.04-.32-.44-.21-1.06.23-1.37.45-.32,1.06-.21,1.38.23,6.3,8.81,22.98,28.41,41.9,20.25.5-.21,1.08.02,1.3.52.22.5-.01,1.08-.51,1.3-3.43,1.48-6.78,2.12-10.01,2.12Z"/>
                <path class="cls-4" d="M180.49,205.33c-.54,0-.99-.44-.99-.99s.44-.99.99-.99c12.26,0,35.17-7.38,35.17-25.17,0-.54.44-.99.99-.99s.99.44.99.99c0,19.18-24.19,27.15-37.14,27.15Z"/>
                <path class="cls-4" d="M65.96,156.27c-.32,0-.63-.15-.82-.44-.3-.45-.18-1.07.28-1.37,6.11-4.05,8.58-11.68,6-18.56-.19-.51.06-1.08.57-1.28.51-.18,1.08.07,1.27.58,2.45,6.52,8.66,10.53,15.82,10.13.52-.03,1.01.39,1.04.93.03.54-.39,1.01-.93,1.04-5.92.26-11.28-2.05-14.78-6.26.14,5.91-2.72,11.62-7.9,15.05-.17.11-.36.16-.54.16Z"/>
                <path class="cls-4" d="M170.74,156.27c-.19,0-.38-.05-.54-.16-5.18-3.43-8.03-9.14-7.9-15.06-3.5,4.21-8.86,6.52-14.78,6.26-.54-.03-.96-.49-.93-1.04.03-.54.53-.97,1.04-.93,7.16.39,13.36-3.61,15.82-10.13.19-.51.77-.77,1.27-.58.51.19.77.76.58,1.27-2.58,6.88-.11,14.51,6,18.56.45.3.58.91.28,1.37-.19.29-.5.44-.82.44Z"/>
              </g>
            </g>
            <path class="cls-4" d="M146.11,267.96c-3.43-.16-7.57-.82-11.94-1.52-5.48-.88-11.15-1.78-15.82-1.78s-10.34.9-15.82,1.78c-4.38.7-8.51,1.36-11.89,1.52-.22-.01-.86-.03-1.13-.9-.15-.48-.71-6.97.56-7.76,2.54-1.58,4.72-3.76,6.48-6.46,3.33-5.1,9.61-18.73,9.61-33.81,0-5.74-1.91-12.57-11-12.57-5.98,0-10.73,2.15-15.77,4.42-5.84,2.64-11.89,5.37-20.59,5.37-21.53,0-39.72-17.43-39.72-38.06,0-28.05,23.64-43.2,46.49-57.85,10.95-7.02,22.27-14.28,30.7-22.82,10.79-10.94,18.1-23.12,21.13-35.21.22-.88,1.69-.88,1.91,0,3.03,12.09,10.34,24.27,21.13,35.21,8.43,8.54,19.75,15.8,30.7,22.82,22.86,14.65,46.49,29.8,46.49,57.85,0,20.63-18.19,38.06-39.72,38.06-8.71,0-14.75-2.73-20.59-5.37-5.03-2.27-9.79-4.42-15.77-4.42-9.09,0-11,6.84-11,12.57,0,15.07,6.29,28.7,9.61,33.8,1.76,2.7,3.94,4.88,6.48,6.46,1.27.8.71,7.28.56,7.76-.25.81-.85.9-1.09.9ZM91.37,260.8c-.18.92-.22,3.84-.08,5.14,3.14-.21,6.93-.82,10.93-1.45,5.56-.89,11.31-1.81,16.13-1.81s10.57.92,16.13,1.81c3.99.64,7.79,1.24,10.93,1.45.14-1.3.11-4.22-.08-5.14-2.67-1.72-4.96-4.04-6.82-6.89-3.44-5.27-9.93-19.34-9.93-34.88,0-9.38,4.61-14.55,12.97-14.55,6.4,0,11.35,2.23,16.58,4.59,5.65,2.55,11.5,5.19,19.78,5.19,20.46,0,37.75-16.52,37.75-36.08,0-26.97-23.17-41.83-45.59-56.19-11.04-7.08-22.46-14.4-31.04-23.1-10.04-10.18-17.14-21.43-20.68-32.73-3.55,11.3-10.64,22.55-20.68,32.73-8.58,8.7-20,16.02-31.04,23.1-22.41,14.36-45.59,29.22-45.59,56.19,0,19.56,17.29,36.08,37.75,36.08,8.28,0,14.13-2.64,19.78-5.19,5.23-2.36,10.18-4.59,16.58-4.59,8.37,0,12.97,5.17,12.97,14.55,0,15.54-6.5,29.61-9.93,34.88-1.86,2.85-4.15,5.17-6.82,6.89ZM118.35,201.46c-19.72,0-35.77-16.04-35.77-35.77s16.05-35.77,35.77-35.77,35.77,16.04,35.77,35.77-16.05,35.77-35.77,35.77ZM118.35,131.9c-18.63,0-33.8,15.16-33.8,33.79s15.16,33.79,33.8,33.79,33.8-15.16,33.8-33.79-15.16-33.79-33.8-33.79Z"/>
          </g>
        </g>
        <g>
          <path class="cls-3" d="M123.93,191.29c-.96,0-1.86-.2-2.73-.4-.89-.2-1.82-.41-2.85-.41s-1.95.21-2.85.41c-.87.2-1.77.4-2.73.4-.33,0-.64-.17-.82-.44-.18-.27-.21-.62-.09-.93l.16-.37c1.7-4.01,3.81-9,3.81-12.67,0-1.87-1.14-3.29-2.65-3.29-.83,0-1.68.43-2.43,1.23-1.86,1.98-4.44,3.11-7.07,3.11-2.1,0-4.02-.72-5.4-2.03-3.24-3.08-3.99-8.9,1.63-14.96,1.87-2.02,3.86-3.66,5.78-5.24,4.43-3.66,8.61-7.12,11.75-14.99.15-.37.51-.62.92-.62s.77.24.92.62c3.14,7.87,7.32,11.33,11.75,14.98,1.92,1.59,3.91,3.23,5.78,5.25,5.63,6.06,4.88,11.88,1.64,14.96-1.38,1.32-3.3,2.03-5.4,2.03-2.64,0-5.22-1.13-7.08-3.11-.76-.8-1.6-1.23-2.43-1.23-1.51,0-2.65,1.41-2.65,3.29,0,3.67,2.11,8.66,3.81,12.67l.16.37c.13.3.09.65-.09.93-.18.27-.49.44-.82.44Z"/>
          <path class="cls-2" d="M137.52,160.27c-1.92-2.07-3.93-3.73-5.88-5.33-4.33-3.58-8.41-6.95-11.46-14.59-.3-.75-1.02-1.24-1.83-1.24s-1.53.49-1.83,1.24c-3.05,7.64-7.13,11.01-11.46,14.59-1.95,1.61-3.96,3.27-5.88,5.33-6.09,6.55-5.18,12.93-1.59,16.34,1.56,1.49,3.72,2.31,6.08,2.31,2.91,0,5.75-1.25,7.79-3.42.56-.59,1.17-.92,1.72-.92.97,0,1.67.97,1.67,2.3,0,3.46-2.07,8.35-3.73,12.28l-.16.38c-.26.61-.19,1.3.17,1.86.36.55.98.89,1.64.89,1.07,0,2.03-.22,2.95-.42.88-.2,1.71-.39,2.63-.39s1.75.19,2.63.39c.92.21,1.87.42,2.95.42.66,0,1.28-.33,1.64-.89.37-.55.43-1.25.17-1.86l-.16-.38c-1.66-3.93-3.73-8.82-3.73-12.28,0-1.34.7-2.3,1.66-2.3.55,0,1.16.33,1.72.92,2.05,2.17,4.89,3.42,7.79,3.42,2.36,0,4.51-.82,6.08-2.31,3.59-3.42,4.5-9.8-1.59-16.34ZM137.75,175.18c-1.23,1.17-2.93,1.76-4.72,1.76-2.22,0-4.59-.92-6.36-2.8-1.01-1.07-2.12-1.54-3.15-1.54-1.97,0-3.64,1.72-3.64,4.27,0,3.98,2.23,9.13,4.04,13.42-1.79,0-3.4-.81-5.58-.81s-3.79.81-5.58.81c1.81-4.29,4.04-9.45,4.04-13.42,0-2.56-1.67-4.27-3.64-4.27-1.03,0-2.15.47-3.15,1.54-1.77,1.88-4.13,2.8-6.36,2.8-1.79,0-3.49-.6-4.72-1.76-3.19-3.04-3.18-8.35,1.67-13.58,6.01-6.47,13.07-8.88,17.72-20.53,4.65,11.65,11.71,14.06,17.72,20.53,4.85,5.22,4.87,10.54,1.67,13.58Z"/>
          <path class="cls-2" d="M118.35,180.56c.51,2.35,1.41,4.82,2.38,7.22-.72-.13-1.5-.24-2.38-.24s-1.67.11-2.38.24c.97-2.39,1.87-4.86,2.38-7.22ZM110.66,160.97c1,1.78,1.58,3.56,1.79,5.3l2.99-9.79c-1.57,1.69-3.17,3.14-4.78,4.49ZM124.25,166.26c.21-1.73.8-3.52,1.79-5.29-1.61-1.35-3.22-2.8-4.78-4.49l2.99,9.78ZM113.18,170.64c2.39,0,4.34,1.5,5.17,3.74.83-2.24,2.78-3.74,5.17-3.74l-5.17-16.95-5.17,16.95ZM134.63,162.95c-1.74-1.88-3.57-3.39-5.5-4.98-3.75-3.1-7.62-6.29-10.78-12.21-3.16,5.91-7.02,9.1-10.78,12.21-1.93,1.6-3.76,3.11-5.5,4.98-3.74,4.02-4.43,8.26-1.76,10.8.83.79,2.02,1.22,3.36,1.22,4.43,0,8.67-4.69,6.14-11.19-.68.19-1.43,0-1.92-.56-.77-.88-.68-1.94.71-3.1,3.39-2.81,6.84-5.79,9.75-10.87,2.91,5.08,6.36,8.06,9.75,10.87,1.4,1.16,1.48,2.22.72,3.1-.49.56-1.24.75-1.92.56-2.54,6.5,1.7,11.19,6.14,11.19,1.34,0,2.53-.43,3.36-1.22,2.67-2.54,1.98-6.78-1.76-10.8Z"/>
        </g>
      </g>
      <g id="A">
        <path class="cls-4" d="M215.64,295.21c-.16.76-.23,1.36-.23,1.81,0,1.59.15,1.83.32,3.71.63,6.91,5.49,9.56,7.47,9.56.56,0,.99-.04,1.29-.11.67-2.01,1.01-4.12,1.01-6.31,0-1.94-.1-3.39-.31-4.35-.32-1.44-.82-2.88-1.49-4.33h5.38c-.29.72-.43,2.23-.43,4.54,0,14.98-7.37,20.71-9.29,22.98h-5.66c.52-.59.77-1.41.77-2.46,0-.48-.08-1.26-.23-2.36l-.45-3.27c-1.64-11.31-3.11-17.79-4.4-19.42h6.27ZM223.75,312.1c-.47.18-.96.27-1.47.27-3.37,0-4.73-1.96-4.82-2.07.59,3.08,1.71,8.79,1.71,8.79l1.02-1.22c1.44-1.73,2.62-3.65,3.56-5.77Z"/>
        <path class="cls-4" d="M21.06,36.17c.16-.76.23-1.36.23-1.81,0-1.58-.15-1.82-.32-3.71-.63-6.91-5.49-9.56-7.47-9.56-.56,0-.99.04-1.29.11-.67,2.01-1.01,4.12-1.01,6.31,0,1.94.1,3.39.31,4.35.32,1.44.82,2.88,1.49,4.33h-5.38c.29-.72.43-2.23.43-4.54,0-14.98,7.36-20.71,9.29-22.99h5.66c-.51.59-.77,1.41-.77,2.46,0,.48.08,1.27.23,2.36l.45,3.27c1.64,11.32,3.11,17.79,4.4,19.42h-6.27ZM12.95,19.28c.47-.18.96-.27,1.47-.27,3.37,0,4.73,1.96,4.82,2.07-.59-3.08-1.71-8.79-1.71-8.79l-1.02,1.22c-1.44,1.73-2.62,3.65-3.56,5.77Z"/>
      </g>
      <g id="Spades">
        <path class="cls-2" d="M223.86,271.39c4.55-3.18,10.04,2.23,5.61,6.33-1.91,1.77-8.01,3.85-9.65,9.91-1.64-6.08-7.65-8.06-9.65-9.91-4.41-4.09,1.04-9.52,5.61-6.33,1.52,1.06,2.86.61,2.74-1.24-.14-2.14-.65-4.19-1.5-6.19.81,0,1.79.4,2.79.4s2-.4,2.79-.4c-.85,2-1.35,4.05-1.5,6.19-.12,1.85,1.22,2.31,2.74,1.24Z"/>
        <path class="cls-2" d="M12.84,59.99c-4.55,3.18-10.04-2.23-5.61-6.33,1.91-1.77,8.01-3.85,9.65-9.91,1.64,6.08,7.65,8.06,9.65,9.91,4.41,4.09-1.04,9.52-5.61,6.33-1.52-1.06-2.86-.61-2.74,1.24.14,2.14.65,4.19,1.5,6.19-.81,0-1.79-.4-2.79-.4s-2,.4-2.79.4c.85-2,1.35-4.05,1.5-6.19.12-1.85-1.22-2.31-2.74-1.24Z"/>
      </g>
    </g>
  </g>
</svg>