<?xml version="1.0" encoding="UTF-8"?>
<svg id="Layer_2" data-name="Layer 2" xmlns="http://www.w3.org/2000/svg" viewBox="0 0 236.7 331.38">
  <defs>
    <style>
      .cls-1 {
        fill: #fb212e;
      }

      .cls-2 {
        fill: #ede8da;
      }

      .cls-3 {
        fill: #3a2b0e;
      }

      .cls-4 {
        fill: #fff;
      }

      .cls-5 {
        fill: #3d2b07;
      }
    </style>
  </defs>
  <g id="_Layer_" data-name="&amp;lt;Layer&amp;gt;">
    <g id="Ace_Diamonds" data-name="Ace Diamonds">
      <path id="BG" class="cls-4" d="M14.2,0h208.3c7.84,0,14.2,6.36,14.2,14.2v302.98c0,7.84-6.36,14.2-14.2,14.2H14.2c-7.84,0-14.2-6.36-14.2-14.2V14.2C0,6.36,6.36,0,14.2,0Z"/>
      <g>
        <path class="cls-2" d="M204.29,172.12l-43.32-3.74,43.32,1.73v-1.98l-43.2-1.86h43.2v-1.97h-43.3l43.3-2.14v-1.97l-43.43,2.28,43.43-4.3v-1.98l-43.54,4.31,43.54-6.35v-1.99l-43.88,6.4,43.88-8.49v-2.01l-44.21,8.56,44.21-10.69v-2.03l-44.51,10.76,44.51-12.96v-2.06l-47.7,13.89,47.7-16.47v-2.09l-51.42,17.75,51.42-20.9v-2.13l-58,23.57,58-28.04v-2.19l-63.82,30.86,63.82-37.33v-2.28l-66.9,39.13,66.9-47.38v-2.42l-68.02,48.18,68.02-57.67v-2.59l-69.3,58.76,69.3-69.97v-2.8l-70.71,71.4,70.71-85.06v-3.08l-72.21,86.87,72.17-104.02c-.02-1.16-.06-2.25-.11-3.31l-73.68,106.2L200.88,23.39c-.38-.72-.78-1.34-1.21-1.86l-70.93,124L190.03,12.79c-.55-.27-1.15-.52-1.82-.76l-61.26,132.66L175.5,9.86c-.66-.04-1.36-.07-2.06-.1l-48.34,134.28L160.65,9.62h-2.04l-35.42,133.91L146.4,9.62h-2l-23.15,133.56,11.33-133.56h-1.98l-11.47,133.41V9.62h-1.97v133.41L105.36,9.62h-1.98l11.97,133.59L91.54,9.62h-2l23.87,133.93L77.3,9.62h-2.04l36.24,134.44L62.43,9.79c-.71.04-1.39.08-2.05.13l49.26,134.81L47.74,12.32c-.66.26-1.26.54-1.79.83l61.91,132.42L36.52,22.22c-.39.58-.77,1.24-1.12,2.01l66.94,115.75L32.83,36.02c-.09,1.01-.17,2.07-.23,3.2l65.71,98.27L32.41,50.15v3.28l61.97,82.12L32.41,61.62v3.07l58.69,70.02-58.69-63.59v2.9l56.29,60.98-56.29-55.59v2.77l54.89,54.22-54.89-49.42v2.65l53.57,48.23-53.57-43.92v2.55l52.29,42.87-52.29-38.98v2.46l51.13,38.12-51.13-34.56v2.38l50.04,33.83-50.04-30.56v2.31l48.96,29.9-48.96-26.87v2.25l48,26.34-48-23.53v2.2l47.21,23.14-47.21-20.5v2.15l46.39,20.14-46.39-17.64v2.11l45.68,17.37-45.68-15v2.08l45.05,14.78-45.05-12.51v2.05l44.59,12.39-44.59-10.19v2.02l44.13,10.09-44.13-7.96v2l43.71,7.89-43.71-5.82v1.99l43.48,5.79-43.48-3.76v1.98l43.27,3.74-43.27-1.73v1.98l43.26,1.86h-43.26v1.97h43.3l-43.3,2.14v1.97l43.37-2.28-43.37,4.29v1.98l43.59-4.32-43.59,6.36v1.99l43.82-6.4-43.82,8.48v2.01l44.26-8.56-44.26,10.7v2.03l44.45-10.75-44.45,12.94v2.06l47.7-13.88-47.7,16.47v2.09l51.46-17.77-51.46,20.91v2.13l57.81-23.49-57.81,27.95v2.19l63.97-30.93-63.97,37.42v2.28l66.9-39.13-66.9,47.38v2.42l68.02-48.18-68.02,57.68v2.59l69.29-58.75-69.29,69.97v2.8l70.7-71.39-70.7,85.04v3.08l72.22-86.88-72.18,104.04c.02,1.15.06,2.25.11,3.31l73.69-106.21-70.42,123.11c.38.72.78,1.34,1.21,1.87l70.92-123.99-61.28,132.73c.55.26,1.15.52,1.82.76l61.26-132.66-48.54,134.84c.66.04,1.36.07,2.06.1l48.34-134.28-35.56,134.41h2.04l35.42-133.91-23.21,133.91h2l23.15-133.57-11.33,133.57h1.98l11.47-133.41v133.41h1.97v-133.4l11.8,133.4h1.98l-11.97-133.59,23.81,133.59h2l-23.87-133.92,36.11,133.92h2.04l-36.25-134.44,49.07,134.27c.71-.04,1.39-.08,2.05-.13l-49.26-134.81,61.91,132.42c.65-.26,1.26-.53,1.79-.83l-61.91-132.43,71.34,123.36c.39-.58.77-1.24,1.12-2.01l-66.92-115.72,69.49,103.93c.09-1.01.17-2.07.23-3.19l-65.74-98.31,65.93,87.38v-3.27l-61.93-82.08,61.93,73.89v-3.07l-58.69-70.02,58.69,63.59v-2.9l-56.29-60.98,56.29,55.59v-2.77l-54.89-54.22,54.89,49.42v-2.65l-53.57-48.23,53.57,43.92v-2.55l-52.32-42.9,52.32,39v-2.46l-51.13-38.12,51.13,34.56v-2.38l-50.01-33.8,50.01,30.53v-2.31l-48.98-29.91,48.98,26.88v-2.25l-48.04-26.37,48.04,23.55v-2.2l-47.15-23.11,47.15,20.47v-2.15l-46.4-20.14,46.4,17.65v-2.11l-45.68-17.37,45.68,14.99v-2.08l-45.09-14.8,45.09,12.52v-2.05l-44.54-12.37,44.54,10.18v-2.02l-44.13-10.09,44.13,7.96v-2.01l-43.76-7.9,43.76,5.82v-1.99l-43.43-5.78,43.43,3.75v-1.98Z"/>
        <path class="cls-3" d="M167.47,322.74h-98.24c-18.14,0-27.24-3.01-28.37-9.44-6.43-1.13-9.44-10.23-9.44-28.37V46.44c0-18.14,3.01-27.24,9.44-28.37,1.13-6.43,10.23-9.44,28.37-9.44h98.24c18.14,0,27.24,3.01,28.37,9.44,6.43,1.13,9.44,10.23,9.44,28.37v238.5c0,18.14-3.01,27.24-9.44,28.37-1.13,6.43-10.23,9.44-28.37,9.44ZM42.85,313.4c.68,2.83,4.53,7.38,26.37,7.38h98.24c21.85,0,25.69-4.54,26.37-7.38-2.16-.24-3.94-1.8-3.94-3.55,0-1.62,1.44-2.48,2.48-2.48,1.76,0,3.32,1.78,3.55,3.94,2.83-.68,7.38-4.53,7.38-26.37V46.44c0-21.85-4.54-25.69-7.38-26.37-.23,2.16-1.79,3.94-3.55,3.94-1.04,0-2.48-.86-2.48-2.48,0-1.76,1.79-3.31,3.94-3.55-.68-2.83-4.53-7.38-26.37-7.38h-98.24c-21.85,0-25.69,4.54-26.37,7.38,2.16.23,3.95,1.79,3.95,3.55,0,1.62-1.44,2.48-2.48,2.48-1.76,0-3.32-1.79-3.55-3.94-2.83.68-7.37,4.53-7.37,26.37v238.5c0,21.85,4.54,25.69,7.37,26.37.24-2.16,1.8-3.94,3.55-3.94,1.04,0,2.48.86,2.48,2.48,0,1.76-1.78,3.32-3.95,3.55ZM192.38,309.34s-.51.07-.51.5c0,.51.78,1.41,2.09,1.58-.17-1.31-1.07-2.09-1.58-2.09ZM44.32,309.34c-.51,0-1.41.78-1.58,2.09,1.31-.17,2.09-1.07,2.09-1.58,0-.43-.51-.5-.51-.5ZM193.96,19.95c-1.31.17-2.09,1.07-2.09,1.58,0,.43.51.51.51.51.51,0,1.41-.78,1.58-2.09ZM42.74,19.95c.17,1.31,1.07,2.09,1.58,2.09,0,0,.51-.07.51-.51,0-.51-.78-1.41-2.09-1.58Z"/>
      </g>
      <g id="Illustration">
        <g id="Frame">
          <path id="Color" class="cls-4" d="M163.48,101.34c-11.27-16.1-45.08-76.02-45.08-76.02,0,0-33.81,59.92-45.08,76.02-11.27,16.1-53.22,64.4-53.22,64.4,0,0,41.95,48.3,53.22,64.4,11.27,16.1,45.08,76.02,45.08,76.02,0,0,33.81-59.92,45.08-76.02,11.27-16.1,53.21-64.4,53.21-64.4,0,0-41.94-48.3-53.21-64.4ZM118.4,200.52c-19.21,0-34.78-15.57-34.78-34.78s15.57-34.78,34.78-34.78,34.78,15.57,34.78,34.78-15.57,34.78-34.78,34.78Z"/>
          <g id="Line">
            <g>
              <g>
                <g>
                  <path class="cls-5" d="M135.13,136.2c-.16,0-.31-.04-.46-.11-11.32-5.98-17.3-14.65-17.3-25.07,0-9.64,3.95-17.26,7.77-24.63,3.99-7.69,8.11-15.65,8.03-26.19-.04-5.25-2.65-8.78-6.49-8.78-1.68,0-3.18.99-4.03,2.65-.79,1.54-.82,3.32-.14,4.74.93-.33,1.95-.38,2.93-.13,1.31.33,2.4,1.15,3.09,2.31.78,1.3.92,2.87.41,4.3-1.45,4.01-9.42,15.92-9.76,16.42-.3.45-.91.58-1.37.27-.45-.3-.57-.92-.27-1.37.08-.12,8.17-12.2,9.54-16,.31-.87.22-1.82-.25-2.62-.42-.7-1.09-1.2-1.88-1.41-.8-.2-1.62-.08-2.33.34-.44.27-1.01.14-1.3-.27-1.54-2.13-1.7-4.99-.43-7.48,1.19-2.33,3.36-3.73,5.79-3.73,4.17,0,8.41,3.32,8.46,10.73.08,11.03-4.16,19.21-8.25,27.11-3.88,7.49-7.55,14.56-7.55,23.72,0,12.19,8.84,19.41,16.25,23.32.48.25.67.85.41,1.33-.18.34-.52.53-.87.53Z"/>
                  <path class="cls-5" d="M153.78,160.31c-.13,0-.25-.02-.38-.07-.5-.21-.74-.79-.53-1.29,6.97-16.79,4.89-31.59-6.56-46.59-17.22-22.55-17.87-26.25-14.48-41.67.12-.53.65-.87,1.18-.75.53.12.87.64.75,1.17-3.16,14.36-3.19,17.39,14.12,40.05,11.76,15.4,13.99,31.27,6.82,48.54-.16.38-.52.61-.91.61Z"/>
                  <path class="cls-5" d="M180.1,208.95c-.07,0-.14,0-.21-.02l-23.67-5.16c-.53-.12-.87-.64-.75-1.17.12-.53.66-.85,1.17-.75l22.2,4.84-4.36-22.31c-.1-.53.24-1.05.78-1.16.53-.11,1.05.24,1.16.78l4.65,23.79c.06.33-.04.66-.28.89-.19.18-.43.28-.69.28Z"/>
                  <path class="cls-5" d="M123.13,52.57c-.5,0-.93-.38-.98-.88-.4-3.84-1.49-9.1-2.54-14.19-.94-4.55-1.83-8.85-2.24-12.1-.07-.54.32-1.04.86-1.1.54-.06,1.03.32,1.1.85.4,3.18,1.28,7.44,2.21,11.95,1.06,5.13,2.16,10.44,2.57,14.39.06.54-.34,1.03-.88,1.08-.03,0-.07,0-.1,0Z"/>
                  <path class="cls-5" d="M169.16,185.93c-2.74,0-4.97-.65-6.73-1.52-7.07-3.47-10.28-12.14-10.28-18.72,0-.54.44-.99.99-.99s.99.44.99.99c0,5.99,2.87,13.85,9.18,16.95,6.01,2.96,13.83.94,22.63-5.84,10.86-8.37,16.44-15.23,17.03-20.98.28-2.73-.55-5.19-2.55-7.52-.35-.42-.3-1.04.11-1.39.41-.35,1.04-.3,1.39.11,2.33,2.73,3.35,5.76,3.01,9.01-.66,6.31-6.48,13.62-17.79,22.33-7.45,5.74-13.41,7.57-17.97,7.57Z"/>
                  <path class="cls-5" d="M146.48,240.7c-1.14,0-2.28-.11-3.42-.35-7.25-1.48-13.09-7.39-15.24-15.42-3.1-11.54,1.88-24.16,13.65-34.62.41-.36,1.03-.32,1.39.08.36.41.32,1.03-.08,1.39-11.2,9.94-15.95,21.84-13.05,32.63,1.96,7.3,7.22,12.67,13.73,14,6.77,1.37,13.6-1.79,19.21-8.94.33-.43.95-.51,1.38-.17.43.34.5.96.17,1.38-5.09,6.49-11.4,10-17.73,10Z"/>
                  <path class="cls-5" d="M150.4,240c-.33,0-.65-.16-.84-.46-1.32-2.11-2.02-4.56-2.02-7.06,0-7.36,5.99-13.35,13.35-13.35,2.98,0,5.79.96,8.14,2.77.43.33.51.95.18,1.38-.33.43-.95.51-1.38.18-2-1.54-4.4-2.36-6.94-2.36-6.27,0-11.38,5.1-11.38,11.38,0,2.14.59,4.22,1.72,6.02.29.46.15,1.07-.31,1.36-.16.1-.34.15-.52.15Z"/>
                </g>
                <g>
                  <path class="cls-5" d="M101.57,136.2c-.35,0-.7-.19-.87-.53-.25-.48-.07-1.08.41-1.33,7.41-3.91,16.25-11.14,16.25-23.32,0-9.16-3.67-16.23-7.55-23.72-4.1-7.91-8.34-16.09-8.25-27.11.06-7.41,4.29-10.73,8.46-10.73,2.43,0,4.59,1.39,5.79,3.73,1.27,2.49,1.11,5.36-.43,7.48-.3.41-.86.54-1.3.27-.7-.42-1.53-.54-2.33-.34-.8.2-1.46.7-1.88,1.41-.47.79-.56,1.75-.25,2.62,1.37,3.79,9.46,15.87,9.54,16,.3.45.18,1.07-.27,1.37-.46.31-1.06.18-1.37-.27-.34-.51-8.3-12.41-9.76-16.42-.52-1.43-.37-2.99.41-4.3.69-1.16,1.79-1.98,3.09-2.31.98-.25,1.99-.2,2.93.13.68-1.42.65-3.2-.14-4.74-.85-1.66-2.36-2.65-4.03-2.65-3.84,0-6.45,3.53-6.49,8.78-.08,10.54,4.05,18.5,8.03,26.19,3.82,7.37,7.77,14.99,7.77,24.63,0,10.42-5.98,19.09-17.3,25.07-.15.08-.3.11-.46.11Z"/>
                  <path class="cls-5" d="M82.92,160.31c-.39,0-.75-.23-.91-.61-7.17-17.26-4.94-33.14,6.82-48.54,17.31-22.66,17.28-25.69,14.12-40.05-.12-.53.22-1.06.75-1.17.53-.12,1.06.22,1.18.75,3.39,15.42,2.74,19.12-14.48,41.67-11.45,14.99-13.54,29.8-6.56,46.59.21.5-.03,1.08-.53,1.29-.12.05-.25.07-.38.07Z"/>
                  <path class="cls-5" d="M56.6,208.95c-.26,0-.5-.1-.69-.28-.24-.23-.34-.57-.28-.89l4.65-23.79c.11-.53.64-.87,1.16-.78.54.11.88.62.78,1.16l-4.36,22.31,22.2-4.84c.53-.11,1.06.22,1.17.75.12.53-.22,1.06-.75,1.17l-23.67,5.16c-.07.02-.14.02-.21.02Z"/>
                  <path class="cls-5" d="M113.57,52.57c-.65-.06-1.04-.55-.98-1.09.41-3.94,1.51-9.25,2.57-14.39.93-4.51,1.82-8.77,2.21-11.95.07-.54.56-.92,1.1-.85.54.07.92.56.86,1.1-.41,3.25-1.3,7.55-2.24,12.1-1.05,5.09-2.14,10.35-2.54,14.19-.05.51-.48.88-.98.88Z"/>
                  <path class="cls-5" d="M67.54,185.93c-4.57,0-10.52-1.83-17.97-7.57-11.32-8.71-17.13-16.02-17.79-22.33-.34-3.25.67-6.28,3.01-9.01.36-.41.98-.46,1.39-.11.41.35.46.98.11,1.39-2,2.33-2.83,4.8-2.55,7.52.6,5.75,6.17,12.61,17.03,20.98,8.79,6.78,16.62,8.8,22.63,5.84,6.31-3.1,9.18-10.96,9.18-16.95,0-.54.44-.99.99-.99s.99.44.99.99c0,6.58-3.22,15.24-10.28,18.72-1.76.87-3.99,1.52-6.73,1.52Z"/>
                  <path class="cls-5" d="M90.22,240.7c-6.33,0-12.64-3.52-17.73-10-.34-.43-.26-1.05.17-1.38.43-.34,1.05-.26,1.38.17,5.61,7.15,12.42,10.31,19.21,8.94,6.51-1.33,11.77-6.69,13.73-14,2.9-10.79-1.86-22.69-13.05-32.63-.41-.36-.44-.98-.08-1.39.36-.41.98-.44,1.39-.08,11.77,10.46,16.75,23.07,13.65,34.62-2.16,8.03-8,13.94-15.24,15.42-1.14.23-2.28.35-3.42.35Z"/>
                  <path class="cls-5" d="M86.3,240c-.18,0-.36-.05-.52-.15-.46-.29-.6-.9-.31-1.36,1.12-1.8,1.72-3.88,1.72-6.02,0-6.27-5.1-11.38-11.38-11.38-2.54,0-4.94.82-6.94,2.36-.43.34-1.05.25-1.38-.18-.33-.43-.25-1.05.18-1.38,2.35-1.81,5.17-2.77,8.14-2.77,7.36,0,13.35,5.99,13.35,13.35,0,2.51-.7,4.95-2.02,7.06-.19.3-.51.46-.84.46Z"/>
                </g>
              </g>
              <g>
                <g>
                  <path class="cls-5" d="M126.68,281.93c-2.43,0-4.59-1.39-5.79-3.73-1.27-2.49-1.11-5.36.43-7.48.3-.41.86-.53,1.3-.27.7.42,1.53.54,2.33.34.8-.2,1.46-.7,1.88-1.4.47-.79.56-1.75.25-2.62-1.37-3.79-9.46-15.87-9.54-16-.3-.45-.18-1.07.27-1.37.46-.3,1.07-.18,1.37.27.34.51,8.3,12.41,9.76,16.42.52,1.43.37,2.99-.41,4.3-.69,1.16-1.79,1.98-3.09,2.31-.98.25-1.99.2-2.93-.13-.68,1.42-.65,3.2.14,4.74.85,1.66,2.36,2.65,4.03,2.65,3.84,0,6.45-3.53,6.49-8.78.08-10.54-4.05-18.5-8.03-26.19-3.82-7.37-7.77-14.99-7.77-24.63,0-10.42,5.98-19.09,17.3-25.07.49-.25,1.08-.07,1.33.41.25.48.07,1.08-.41,1.33-7.41,3.91-16.25,11.14-16.25,23.32,0,9.16,3.67,16.23,7.55,23.72,4.1,7.91,8.34,16.09,8.25,27.11-.05,7.41-4.29,10.73-8.46,10.73Z"/>
                  <path class="cls-5" d="M132.79,261.47c-.45,0-.86-.31-.96-.78-3.39-15.42-2.74-19.12,14.48-41.67,11.45-14.99,13.54-29.8,6.56-46.59-.21-.5.03-1.08.53-1.29.5-.21,1.08.03,1.29.53,7.17,17.26,4.94,33.14-6.82,48.54-17.31,22.66-17.28,25.69-14.12,40.05.12.53-.22,1.06-.75,1.17-.07.02-.14.02-.21.02Z"/>
                  <path class="cls-5" d="M175.46,148.19c-.06,0-.13,0-.19-.02-.54-.11-.88-.62-.78-1.16l4.36-22.31-22.2,4.84c-.53.12-1.06-.22-1.17-.75-.12-.53.22-1.06.75-1.17l23.67-5.16c.33-.07.67.03.9.26.24.23.34.57.28.89l-4.65,23.79c-.09.47-.5.8-.97.8Z"/>
                  <path class="cls-5" d="M118.35,307.1c-.66-.07-1.05-.57-.98-1.11.41-3.25,1.3-7.55,2.24-12.1,1.05-5.09,2.14-10.35,2.55-14.2.06-.54.55-.9,1.08-.88.54.06.94.54.88,1.08-.41,3.94-1.51,9.25-2.57,14.39-.94,4.51-1.82,8.77-2.21,11.94-.06.5-.49.86-.98.86Z"/>
                  <path class="cls-5" d="M201.16,184.71c-.23,0-.45-.08-.64-.24-.41-.35-.46-.98-.11-1.39,2-2.33,2.83-4.8,2.55-7.52-.6-5.75-6.17-12.61-17.03-20.98-8.79-6.78-16.61-8.8-22.63-5.84-6.31,3.1-9.18,10.96-9.18,16.95,0,.54-.44.99-.99.99s-.99-.44-.99-.99c0-6.58,3.22-15.24,10.28-18.72,4.69-2.31,12.79-3.13,24.7,6.05,11.32,8.71,17.14,16.02,17.79,22.33.34,3.25-.68,6.28-3.01,9.01-.2.23-.47.34-.75.34Z"/>
                  <path class="cls-5" d="M142.12,141.3c-.23,0-.47-.08-.65-.25-11.77-10.46-16.75-23.07-13.65-34.62,2.16-8.03,8-13.94,15.24-15.42,7.44-1.53,15.15,2,21.15,9.66.34.43.26,1.05-.17,1.38-.43.34-1.05.26-1.38-.17-5.61-7.15-12.43-10.32-19.21-8.94-6.51,1.33-11.77,6.69-13.73,14-2.9,10.79,1.86,22.69,13.05,32.63.41.36.44.98.08,1.39-.19.22-.47.33-.74.33Z"/>
                  <path class="cls-5" d="M160.89,112.25c-7.36,0-13.35-5.99-13.35-13.35,0-2.51.7-4.95,2.02-7.06.29-.46.9-.6,1.36-.31.46.29.6.9.31,1.36-1.12,1.8-1.72,3.88-1.72,6.02,0,6.27,5.1,11.38,11.38,11.38,2.54,0,4.94-.82,6.94-2.36.43-.33,1.05-.25,1.38.18.33.43.25,1.05-.18,1.38-2.35,1.81-5.17,2.77-8.14,2.77Z"/>
                </g>
                <g>
                  <path class="cls-5" d="M110.02,281.93c-4.17,0-8.41-3.32-8.46-10.73-.08-11.03,4.16-19.21,8.25-27.11,3.88-7.49,7.55-14.56,7.55-23.72,0-12.19-8.84-19.41-16.25-23.32-.48-.25-.67-.85-.41-1.33.25-.48.85-.67,1.33-.41,11.32,5.98,17.3,14.65,17.3,25.07,0,9.64-3.95,17.26-7.77,24.63-3.99,7.69-8.11,15.65-8.03,26.19.04,5.25,2.65,8.78,6.49,8.78,1.68,0,3.18-.99,4.03-2.65.79-1.54.82-3.32.14-4.74-.93.33-1.94.38-2.93.13-1.31-.33-2.4-1.15-3.09-2.31-.78-1.3-.92-2.87-.41-4.3,1.45-4.01,9.42-15.92,9.76-16.42.3-.45.91-.57,1.37-.27.45.3.57.92.27,1.37-.08.12-8.17,12.2-9.54,16-.31.87-.22,1.82.25,2.62.42.7,1.09,1.2,1.88,1.4.8.2,1.62.08,2.33-.34.44-.26,1.01-.14,1.3.27,1.54,2.13,1.7,4.99.43,7.48-1.19,2.33-3.36,3.73-5.79,3.73Z"/>
                  <path class="cls-5" d="M103.91,261.47c-.07,0-.14,0-.21-.02-.53-.12-.87-.64-.75-1.17,3.16-14.36,3.19-17.39-14.12-40.05-11.76-15.4-13.99-31.27-6.82-48.54.21-.51.79-.74,1.29-.53.5.21.74.79.53,1.29-6.97,16.79-4.89,31.59,6.56,46.59,17.22,22.55,17.87,26.25,14.48,41.67-.1.46-.51.78-.96.78Z"/>
                  <path class="cls-5" d="M61.24,148.19c-.46,0-.87-.33-.97-.8l-4.65-23.79c-.06-.33.04-.66.28-.89.24-.23.57-.33.9-.26l23.67,5.16c.53.12.87.64.75,1.17-.11.53-.64.87-1.17.75l-22.2-4.84,4.36,22.31c.1.53-.24,1.05-.78,1.16-.06.01-.13.02-.19.02Z"/>
                  <path class="cls-5" d="M118.35,307.1c-.49,0-.92-.36-.98-.86-.4-3.17-1.28-7.43-2.21-11.94-1.06-5.14-2.16-10.45-2.57-14.39-.06-.54.34-1.03.88-1.08.54-.03,1.03.34,1.08.88.4,3.84,1.49,9.11,2.55,14.2.94,4.55,1.83,8.85,2.24,12.1.07.54-.32,1.04-.86,1.1-.04,0-.08,0-.12,0Z"/>
                  <path class="cls-5" d="M35.54,184.71c-.28,0-.55-.12-.75-.34-2.33-2.73-3.35-5.76-3.01-9.01.66-6.31,6.47-13.62,17.79-22.33,11.91-9.18,20.01-8.36,24.7-6.05,7.07,3.47,10.28,12.14,10.28,18.72,0,.54-.44.99-.99.99s-.99-.44-.99-.99c0-5.99-2.87-13.85-9.18-16.95-6.01-2.96-13.83-.94-22.63,5.84-10.86,8.37-16.44,15.23-17.03,20.98-.28,2.73.55,5.19,2.55,7.52.35.42.3,1.04-.11,1.39-.19.16-.41.24-.64.24Z"/>
                  <path class="cls-5" d="M94.58,141.3c-.27,0-.54-.11-.74-.33-.36-.41-.32-1.03.08-1.39,11.2-9.94,15.95-21.84,13.05-32.63-1.96-7.3-7.22-12.67-13.73-14-6.77-1.37-13.6,1.79-19.21,8.94-.33.43-.96.5-1.38.17-.43-.34-.5-.96-.17-1.38,6.01-7.65,13.72-11.18,21.15-9.66,7.25,1.48,13.09,7.39,15.24,15.42,3.1,11.54-1.88,24.16-13.65,34.62-.19.17-.42.25-.65.25Z"/>
                  <path class="cls-5" d="M75.81,112.25c-2.98,0-5.79-.96-8.14-2.77-.43-.33-.51-.95-.18-1.38.33-.43.95-.51,1.38-.18,2,1.54,4.4,2.36,6.94,2.36,6.27,0,11.38-5.1,11.38-11.38,0-2.14-.59-4.22-1.72-6.02-.29-.46-.15-1.07.31-1.36.46-.29,1.07-.15,1.36.31,1.32,2.11,2.02,4.56,2.02,7.06,0,7.36-5.99,13.35-13.35,13.35Z"/>
                </g>
              </g>
              <path class="cls-5" d="M68.45,177.26c-.23,0-.46-.08-.65-.24-.05-.05-5.18-4.5-6.85-5.67-1.67-1.17-8.04-4.77-8.1-4.81-.31-.17-.5-.5-.5-.86s.19-.68.5-.86c.06-.04,6.43-3.63,8.11-4.81,1.67-1.17,6.8-5.62,6.85-5.67.37-.32.92-.32,1.29,0,.05.05,5.18,4.5,6.85,5.67,1.67,1.17,8.04,4.76,8.1,4.8.31.17.5.5.5.86s-.19.68-.5.86c-.06.04-6.43,3.63-8.11,4.81-1.67,1.17-6.8,5.62-6.85,5.67-.19.16-.42.24-.65.24ZM55.32,165.69c2.03,1.16,5.52,3.18,6.76,4.05,1.4.98,4.91,3.98,6.37,5.24,1.46-1.26,4.97-4.25,6.37-5.23,1.24-.87,4.73-2.89,6.76-4.05-2.03-1.16-5.52-3.18-6.76-4.05-1.4-.98-4.91-3.98-6.37-5.24-1.46,1.26-4.97,4.25-6.37,5.24-1.24.87-4.73,2.88-6.76,4.05Z"/>
              <path class="cls-5" d="M168.25,177.26c-.23,0-.46-.08-.65-.24-.05-.05-5.18-4.5-6.85-5.67-1.67-1.17-8.04-4.76-8.1-4.8-.31-.17-.5-.5-.5-.86s.19-.68.5-.86c.06-.04,6.43-3.63,8.11-4.81,1.67-1.17,6.8-5.62,6.85-5.67.37-.32.92-.32,1.29,0,.05.05,5.18,4.5,6.85,5.67,1.67,1.17,8.04,4.77,8.1,4.81.31.17.5.5.5.86s-.19.68-.5.86c-.06.04-6.43,3.63-8.11,4.81-1.67,1.17-6.8,5.62-6.85,5.67-.19.16-.42.24-.65.24ZM155.13,165.69c2.03,1.16,5.52,3.18,6.76,4.05,1.4.98,4.91,3.98,6.37,5.24,1.46-1.26,4.97-4.25,6.37-5.24,1.24-.87,4.73-2.88,6.76-4.05-2.03-1.16-5.52-3.18-6.76-4.05-1.4-.98-4.91-3.98-6.37-5.24-1.46,1.26-4.97,4.25-6.37,5.23-1.24.87-4.73,2.89-6.76,4.05Z"/>
            </g>
            <path class="cls-5" d="M118.35,307.1c-.36,0-.69-.19-.86-.5-.34-.6-33.92-60.06-45.03-75.94-11.11-15.87-52.73-63.84-53.15-64.32-.32-.37-.32-.92,0-1.29.42-.48,42.04-48.44,53.15-64.32,11.11-15.88,44.69-75.34,45.03-75.94.35-.62,1.37-.62,1.72,0,.34.6,33.92,60.06,45.03,75.94,11.11,15.87,52.73,63.84,53.15,64.32.32.37.32.92,0,1.29-.42.48-42.04,48.45-53.15,64.32-11.11,15.88-44.69,75.34-45.03,75.94-.17.31-.5.5-.86.5ZM21.36,165.69c5.03,5.81,42.26,48.89,52.72,63.84,10.16,14.52,38.93,65.14,44.27,74.58,5.35-9.44,34.11-60.06,44.27-74.58,10.46-14.94,47.69-58.03,52.72-63.84-5.03-5.81-42.26-48.89-52.72-63.84-10.16-14.52-38.93-65.14-44.27-74.58-5.35,9.44-34.11,60.06-44.27,74.58-10.46,14.95-47.69,58.03-52.72,63.84ZM118.35,201.46c-19.72,0-35.77-16.04-35.77-35.77s16.05-35.77,35.77-35.77,35.77,16.04,35.77,35.77-16.05,35.77-35.77,35.77ZM118.35,131.89c-18.63,0-33.8,15.16-33.8,33.79s15.16,33.79,33.8,33.79,33.8-15.16,33.8-33.79-15.16-33.79-33.8-33.79Z"/>
          </g>
        </g>
        <g>
          <path class="cls-4" d="M118.35,192.98c-.38,0-.73-.22-.89-.56-.03-.07-3.41-7.14-9.23-14.42-5.81-7.26-11.45-11.47-11.5-11.51-.25-.19-.4-.48-.4-.79s.15-.61.4-.8c.06-.04,5.69-4.25,11.51-11.51,5.82-7.27,9.2-14.34,9.23-14.41.16-.34.51-.56.89-.56s.73.22.89.56c.03.07,3.41,7.14,9.23,14.41,5.81,7.26,11.45,11.47,11.5,11.51.25.19.4.48.4.8s-.15.61-.4.79c-.06.04-5.69,4.25-11.5,11.51-5.82,7.28-9.2,14.35-9.23,14.42-.16.34-.51.56-.89.56Z"/>
          <path class="cls-1" d="M140.56,164.1c-.06-.04-5.6-4.19-11.32-11.34-5.74-7.18-9.08-14.15-9.11-14.22-.33-.69-1.02-1.13-1.78-1.13s-1.46.44-1.78,1.13c-.03.07-3.37,7.05-9.11,14.22-5.74,7.18-11.26,11.3-11.32,11.34-.5.37-.8.96-.8,1.59,0,.63.3,1.21.8,1.59.06.04,5.6,4.19,11.32,11.34,5.74,7.18,9.08,14.15,9.11,14.22.33.69,1.02,1.13,1.78,1.13s1.46-.44,1.78-1.13c.03-.07,3.37-7.04,9.11-14.22,5.74-7.18,11.26-11.3,11.32-11.34.5-.37.8-.96.8-1.58,0-.62-.3-1.21-.8-1.59ZM127.7,177.38c-5.97,7.46-9.35,14.61-9.35,14.61,0,0-3.38-7.15-9.35-14.61-5.97-7.46-11.69-11.69-11.69-11.69,0,0,5.72-4.23,11.69-11.69,5.97-7.46,9.35-14.61,9.35-14.61,0,0,3.38,7.15,9.35,14.61,5.97,7.46,11.69,11.69,11.69,11.69,0,0-5.72,4.23-11.69,11.69Z"/>
          <path class="cls-1" d="M110.84,164.7h-9.26c2.29-2.04,5.57-5.23,8.96-9.47,1.93-2.42,3.57-4.76,4.94-6.88-.41,2.05-.95,4.52-1.61,7.03-1.37,5.23-2.7,8.54-3.03,9.32ZM125.86,164.7h9.26c-2.29-2.04-5.57-5.23-8.96-9.47-1.93-2.42-3.57-4.76-4.94-6.88.41,2.05.95,4.52,1.61,7.03,1.37,5.23,2.7,8.54,3.03,9.32ZM123.76,166.62c-.55,1.39-1.62,4.27-2.85,8.88-.81,3.13-1.45,6.21-1.89,8.47-.45,2.29-.68,3.79-.68,3.79,0,0-.92-6-2.58-12.26-1-3.88-2.18-7.24-2.81-8.86-.24-.62-.24-1.28,0-1.89.64-1.64,1.82-5.04,2.81-8.86.82-3.13,1.47-6.21,1.92-8.47.42-2.29.66-3.79.66-3.79,0,0,.95,6,2.58,12.26,1.14,4.32,2.09,6.86,2.85,8.87.23.61.23,1.26,0,1.87ZM121.64,165.69s-1.4-1.58-1.78-2.11c-.38-.53-1.51-2.49-1.51-2.49,0,0-1.13,1.96-1.51,2.49-.38.53-1.78,2.11-1.78,2.11,0,0,1.4,1.58,1.78,2.11.38.53,1.51,2.49,1.51,2.49,0,0,1.13-1.97,1.51-2.49.38-.53,1.78-2.11,1.78-2.11ZM125.86,166.67c-.33.79-1.66,4.1-3.03,9.33-.66,2.51-1.2,4.97-1.61,7.03,1.37-2.12,3.01-4.47,4.94-6.88,3.39-4.24,6.67-7.43,8.96-9.47h-9.26ZM110.84,166.67h-9.26c2.29,2.04,5.57,5.23,8.96,9.47,1.93,2.42,3.57,4.76,4.94,6.88-.41-2.06-.95-4.52-1.61-7.03-1.37-5.23-2.7-8.54-3.03-9.33Z"/>
        </g>
      </g>
      <g id="A">
        <path class="cls-1" d="M215.64,295.21c-.16.76-.23,1.36-.23,1.81,0,1.59.15,1.83.32,3.71.63,6.9,5.49,9.56,7.47,9.56.56,0,.99-.04,1.29-.11.67-2.01,1.01-4.12,1.01-6.31,0-1.94-.1-3.39-.31-4.35-.32-1.44-.82-2.88-1.49-4.33h5.38c-.29.72-.43,2.23-.43,4.54,0,14.98-7.37,20.71-9.29,22.98h-5.66c.52-.59.77-1.41.77-2.46,0-.48-.08-1.26-.23-2.36l-.45-3.27c-1.64-11.31-3.11-17.79-4.4-19.42h6.27ZM223.75,312.1c-.47.18-.96.27-1.47.27-3.37,0-4.73-1.96-4.82-2.07.59,3.08,1.71,8.79,1.71,8.79l1.02-1.22c1.44-1.73,2.62-3.65,3.56-5.77Z"/>
        <path class="cls-1" d="M21.06,36.16c.16-.76.23-1.36.23-1.81,0-1.58-.15-1.82-.32-3.71-.63-6.91-5.49-9.56-7.47-9.56-.56,0-.99.04-1.29.11-.67,2.01-1.01,4.12-1.01,6.31,0,1.94.1,3.39.31,4.35.32,1.44.82,2.88,1.49,4.33h-5.38c.29-.72.43-2.23.43-4.54,0-14.97,7.36-20.71,9.3-22.99h5.66c-.51.59-.77,1.41-.77,2.46,0,.48.08,1.27.23,2.36l.45,3.27c1.64,11.32,3.11,17.79,4.4,19.42h-6.27ZM12.95,19.28c.47-.18.96-.27,1.47-.27,3.37,0,4.73,1.96,4.82,2.07-.59-3.08-1.71-8.79-1.71-8.79l-1.02,1.22c-1.44,1.73-2.62,3.65-3.56,5.77Z"/>
      </g>
      <g id="Diamonds">
        <path class="cls-1" d="M219.82,288.94s3.17-5.61,4.22-7.12c1.06-1.51,4.98-6.03,4.98-6.03,0,0-3.93-4.52-4.98-6.03-1.05-1.51-4.22-7.12-4.22-7.12,0,0-3.17,5.61-4.22,7.12-1.06,1.51-4.98,6.03-4.98,6.03,0,0,3.93,4.52,4.98,6.03,1.05,1.51,4.22,7.12,4.22,7.12Z"/>
        <path class="cls-1" d="M16.88,42.44s-3.17,5.61-4.22,7.12c-1.06,1.51-4.98,6.03-4.98,6.03,0,0,3.93,4.52,4.98,6.03,1.05,1.51,4.22,7.12,4.22,7.12,0,0,3.17-5.61,4.22-7.12,1.06-1.51,4.98-6.03,4.98-6.03,0,0-3.93-4.52-4.98-6.03-1.05-1.51-4.22-7.12-4.22-7.12Z"/>
      </g>
    </g>
  </g>
</svg>