<?xml version="1.0" encoding="UTF-8"?>
<svg id="Layer_2" data-name="Layer 2" xmlns="http://www.w3.org/2000/svg" viewBox="0 0 236.7 331.38">
  <defs>
    <style>
      .cls-1 {
        fill: #ede8da;
      }

      .cls-2 {
        fill: #3a2b0e;
      }

      .cls-3 {
        fill: #fff;
      }

      .cls-4 {
        fill: #3d2b07;
      }
    </style>
  </defs>
  <g id="_Layer_" data-name="&amp;lt;Layer&amp;gt;">
    <g id="Ace_Clubs" data-name="Ace Clubs">
      <path id="BG" class="cls-3" d="M14.2,0h208.3c7.84,0,14.2,6.36,14.2,14.2v302.97c0,7.84-6.36,14.2-14.2,14.2H14.2c-7.84,0-14.2-6.36-14.2-14.2V14.2C0,6.36,6.36,0,14.2,0Z"/>
      <g>
        <path class="cls-1" d="M204.29,172.12l-43.32-3.74,43.32,1.73v-1.98l-43.2-1.86h43.2v-1.97h-43.3l43.3-2.14v-1.97l-43.43,2.28,43.43-4.3v-1.99l-43.54,4.31,43.54-6.35v-1.99l-43.88,6.4,43.88-8.49v-2.01l-44.21,8.56,44.21-10.69v-2.03l-44.51,10.77,44.51-12.96v-2.06l-47.7,13.89,47.7-16.47v-2.09l-51.42,17.75,51.42-20.9v-2.13l-58,23.57,58-28.04v-2.19l-63.82,30.86,63.82-37.33v-2.28l-66.9,39.13,66.9-47.39v-2.41l-68.02,48.18,68.02-57.67v-2.59l-69.3,58.76,69.3-69.97v-2.8l-70.71,71.4,70.71-85.06v-3.09l-72.21,86.87,72.17-104.02c-.02-1.16-.06-2.25-.11-3.31l-73.68,106.2L200.88,23.39c-.38-.72-.78-1.34-1.21-1.86l-70.93,124L190.03,12.79c-.55-.26-1.15-.52-1.82-.76l-61.26,132.66L175.5,9.86c-.66-.04-1.36-.07-2.06-.1l-48.34,134.28L160.65,9.62h-2.04l-35.42,133.91L146.4,9.62h-2l-23.15,133.56,11.33-133.56h-1.98l-11.47,133.41V9.62h-1.97v133.41L105.36,9.62h-1.98l11.97,133.59L91.54,9.62h-2l23.87,133.93L77.3,9.62h-2.04l36.24,134.44L62.43,9.8c-.71.04-1.39.08-2.05.13l49.26,134.81L47.74,12.32c-.66.26-1.26.54-1.79.83l61.91,132.42L36.52,22.22c-.39.58-.77,1.24-1.12,2.01l66.94,115.75L32.83,36.02c-.09,1.01-.17,2.07-.23,3.2l65.71,98.27L32.41,50.15v3.27l61.97,82.13L32.41,61.62v3.07l58.69,70.02-58.69-63.59v2.9l56.29,60.98-56.29-55.59v2.77l54.89,54.22-54.89-49.42v2.65l53.57,48.23-53.57-43.92v2.55l52.29,42.87-52.29-38.98v2.46l51.13,38.12-51.13-34.56v2.38l50.04,33.83-50.04-30.56v2.31l48.96,29.9-48.96-26.87v2.25l48,26.34-48-23.53v2.2l47.21,23.14-47.21-20.5v2.15l46.39,20.14-46.39-17.64v2.11l45.68,17.37-45.68-14.99v2.08l45.05,14.79-45.05-12.51v2.05l44.59,12.38-44.59-10.19v2.02l44.13,10.09-44.13-7.96v2l43.71,7.89-43.71-5.82v1.99l43.48,5.79-43.48-3.76v1.98l43.27,3.74-43.27-1.73v1.98l43.26,1.86h-43.26v1.97h43.3l-43.3,2.14v1.97l43.37-2.28-43.37,4.29v1.98l43.59-4.32-43.59,6.36v2l43.82-6.4-43.82,8.48v2.01l44.26-8.56-44.26,10.7v2.03l44.45-10.75-44.45,12.94v2.06l47.7-13.88-47.7,16.47v2.09l51.46-17.77-51.46,20.91v2.13l57.81-23.49-57.81,27.95v2.19l63.97-30.93-63.97,37.42v2.28l66.9-39.13-66.9,47.39v2.41l68.02-48.18-68.02,57.68v2.59l69.29-58.75-69.29,69.97v2.8l70.7-71.39-70.7,85.04v3.08l72.22-86.88-72.18,104.04c.02,1.15.06,2.25.11,3.31l73.69-106.21-70.42,123.11c.38.72.78,1.34,1.21,1.87l70.92-123.99-61.28,132.73c.55.26,1.15.52,1.82.76l61.26-132.67-48.54,134.84c.66.04,1.36.07,2.06.1l48.34-134.28-35.56,134.42h2.04l35.42-133.91-23.21,133.91h2l23.15-133.57-11.33,133.57h1.98l11.47-133.41v133.41h1.97v-133.4l11.8,133.4h1.98l-11.97-133.59,23.81,133.59h2l-23.87-133.92,36.11,133.92h2.04l-36.25-134.44,49.07,134.27c.71-.04,1.39-.08,2.05-.13l-49.26-134.81,61.91,132.42c.65-.26,1.26-.53,1.79-.83l-61.91-132.43,71.34,123.36c.39-.58.77-1.24,1.12-2.01l-66.92-115.72,69.49,103.93c.09-1.01.17-2.08.23-3.2l-65.74-98.31,65.93,87.38v-3.27l-61.93-82.08,61.93,73.89v-3.07l-58.69-70.02,58.69,63.59v-2.9l-56.29-60.98,56.29,55.59v-2.77l-54.89-54.22,54.89,49.42v-2.65l-53.57-48.23,53.57,43.92v-2.55l-52.32-42.9,52.32,39v-2.46l-51.13-38.12,51.13,34.56v-2.38l-50.01-33.8,50.01,30.53v-2.31l-48.98-29.91,48.98,26.88v-2.25l-48.04-26.37,48.04,23.55v-2.2l-47.15-23.11,47.15,20.47v-2.15l-46.4-20.15,46.4,17.65v-2.11l-45.68-17.37,45.68,14.99v-2.08l-45.09-14.8,45.09,12.53v-2.05l-44.54-12.37,44.54,10.18v-2.02l-44.13-10.09,44.13,7.97v-2.01l-43.76-7.9,43.76,5.83v-1.99l-43.43-5.78,43.43,3.75v-1.98Z"/>
        <path class="cls-2" d="M167.47,322.75h-98.24c-18.14,0-27.24-3.01-28.37-9.44-6.43-1.14-9.44-10.23-9.44-28.37V46.44c0-18.14,3.01-27.24,9.44-28.37,1.13-6.43,10.23-9.44,28.37-9.44h98.24c18.14,0,27.24,3.01,28.37,9.44,6.43,1.13,9.44,10.22,9.44,28.37v238.5c0,18.14-3.01,27.23-9.44,28.37-1.13,6.43-10.23,9.44-28.37,9.44ZM42.85,313.4c.68,2.83,4.53,7.38,26.37,7.38h98.24c21.85,0,25.69-4.55,26.37-7.38-2.16-.24-3.94-1.79-3.94-3.55,0-1.62,1.44-2.48,2.48-2.48,1.76,0,3.32,1.79,3.55,3.94,2.83-.68,7.38-4.53,7.38-26.37V46.44c0-21.85-4.54-25.69-7.38-26.37-.23,2.16-1.79,3.94-3.55,3.94-1.04,0-2.48-.86-2.48-2.48,0-1.76,1.79-3.31,3.94-3.55-.68-2.83-4.53-7.38-26.37-7.38h-98.24c-21.85,0-25.69,4.55-26.37,7.38,2.16.24,3.95,1.79,3.95,3.55,0,1.62-1.44,2.48-2.48,2.48-1.76,0-3.32-1.79-3.55-3.94-2.83.68-7.37,4.53-7.37,26.37v238.5c0,21.85,4.54,25.69,7.37,26.37.24-2.16,1.8-3.94,3.55-3.94,1.04,0,2.48.86,2.48,2.48,0,1.76-1.78,3.32-3.95,3.55ZM192.38,309.34s-.51.07-.51.51c0,.51.78,1.41,2.09,1.58-.17-1.31-1.07-2.09-1.58-2.09ZM44.32,309.34c-.51,0-1.41.78-1.58,2.09,1.31-.17,2.09-1.07,2.09-1.58,0-.43-.51-.51-.51-.51ZM193.96,19.95c-1.31.17-2.09,1.07-2.09,1.58,0,.43.51.51.51.51.51,0,1.41-.78,1.58-2.09ZM42.74,19.95c.17,1.31,1.07,2.09,1.58,2.09,0,0,.51-.07.51-.51,0-.51-.78-1.41-2.09-1.58Z"/>
      </g>
      <g id="Illustration">
        <g id="Frame">
          <path id="Color" class="cls-3" d="M214.07,152.74c-1.66-3.92-4.06-7.45-7.02-10.41-2.97-2.96-6.5-5.36-10.41-7.02-3.92-1.66-8.23-2.57-12.75-2.57-3.05,0-5.99.45-8.8,1.23-5.89-10.57-14.63-19.31-25.2-25.2.78-2.8,1.23-5.75,1.23-8.8,0-4.53-.92-8.84-2.57-12.75-1.66-3.92-4.06-7.45-7.02-10.41-2.96-2.97-6.49-5.37-10.41-7.02-3.92-1.66-8.23-2.58-12.75-2.58s-8.83.92-12.75,2.58c-3.92,1.66-7.45,4.06-10.41,7.02-2.97,2.96-5.36,6.49-7.02,10.41-1.66,3.92-2.57,8.23-2.57,12.75,0,3.05.45,5.99,1.23,8.8-10.57,5.89-19.31,14.63-25.2,25.2-2.8-.78-5.74-1.23-8.8-1.23-4.52,0-8.83.92-12.75,2.57-3.92,1.66-7.45,4.06-10.41,7.02-2.97,2.97-5.36,6.5-7.02,10.41-1.66,3.92-2.57,8.23-2.57,12.75s.92,8.84,2.57,12.75c1.66,3.92,4.06,7.45,7.02,10.41,2.97,2.96,6.5,5.36,10.41,7.02,3.92,1.66,8.23,2.58,12.75,2.58,3.05,0,5.99-.45,8.8-1.23,9.04,16.23,24.83,28.2,43.6,32.06-1.13,5.65-2.58,11.14-4.36,16.62-1.51,4.63-4.36,10.54-10.27,14.23-.47.29-.5,6.86,0,6.84,7.57-.37,19.28-3.3,27.76-3.3s20.2,2.94,27.76,3.3c.5.02.47-6.55,0-6.84-5.9-3.69-8.76-9.6-10.27-14.23-1.78-5.48-3.23-10.97-4.36-16.62,18.76-3.86,34.55-15.82,43.6-32.06,2.8.78,5.75,1.23,8.8,1.23,4.52,0,8.83-.92,12.75-2.58,3.92-1.66,7.45-4.06,10.41-7.02,2.97-2.96,5.36-6.5,7.02-10.41,1.66-3.92,2.57-8.23,2.57-12.75s-.92-8.83-2.57-12.75ZM165.6,137.78c-4.7,2.21-9.27,4.63-13.72,7.26-3.26-5.33-7.74-9.82-13.08-13.08,2.62-4.44,4.98-9.06,7.19-13.76,8.1,4.74,14.85,11.49,19.61,19.58ZM83.57,165.49c0-19.21,15.57-34.78,34.78-34.78s34.78,15.57,34.78,34.78-15.57,34.78-34.78,34.78-34.78-15.57-34.78-34.78ZM90.71,118.2c2.21,4.7,4.56,9.32,7.19,13.76-5.33,3.26-9.82,7.74-13.08,13.08-4.44-2.62-9.02-5.05-13.72-7.26,4.76-8.09,11.51-14.84,19.61-19.58ZM71.1,193.21c4.7-2.21,9.27-4.63,13.72-7.26,5.16,8.44,13.39,14.76,23.15,17.43-.11,5.47-.5,10.67-1.13,15.71-15.23-3.26-28.08-12.85-35.74-25.88ZM129.86,219.09c-.63-5.03-1.02-10.23-1.13-15.71,9.77-2.67,18-9,23.15-17.43,4.44,2.62,9.02,5.05,13.72,7.26-7.66,13.03-20.51,22.62-35.74,25.88Z"/>
          <g id="Line">
            <g>
              <g>
                <g>
                  <path class="cls-2" d="M184.74,177.17c-.72,0-1.55-.14-2.49-.48-.22-.08-.41-.23-.52-.43-1.47-2.51-6.19-2.9-10.61-2.95-6.02-.05-12.13.14-18.15.62-.55.08-1.02-.36-1.06-.91-.04-.54.36-1.02.91-1.06,6.08-.48,12.25-.68,18.32-.62,5.06.05,10,.54,12.09,3.6,2.54.78,3.61-.28,4.54-2.37.36-.79.66-1.68.96-2.56.52-1.54,1.06-3.11,1.91-4.36-.84-1.25-1.38-2.83-1.91-4.36-.3-.88-.6-1.77-.96-2.56-.94-2.09-2-3.14-4.54-2.37-2.09,3.06-7.03,3.54-12.09,3.6-6.1.07-12.29-.15-18.32-.63-.54-.04-.95-.52-.91-1.06.04-.54.53-.94,1.06-.91,5.98.48,12.09.68,18.15.62,4.43-.05,9.15-.44,10.61-2.95.12-.2.3-.36.52-.43,4.51-1.59,6.34,1.13,7.32,3.32.38.85.7,1.78,1.02,2.73.56,1.63,1.13,3.32,2.02,4.35.32.37.32.92,0,1.29-.89,1.04-1.47,2.73-2.02,4.36-.32.94-.64,1.88-1.02,2.73-.78,1.73-2.08,3.79-4.83,3.79Z"/>
                  <path class="cls-4" d="M206.85,166.48h-14.81c-.54,0-.99-.44-.99-.99s.44-.99.99-.99h14.81c.54,0,.99.44.99.99s-.44.99-.99.99Z"/>
                </g>
                <g>
                  <path class="cls-2" d="M51.96,177.17c-2.74,0-4.05-2.06-4.83-3.79-.38-.85-.7-1.79-1.02-2.73-.56-1.63-1.14-3.32-2.02-4.36-.32-.37-.32-.92,0-1.29.89-1.03,1.47-2.72,2.02-4.35.32-.95.64-1.88,1.02-2.73.98-2.19,2.81-4.92,7.32-3.32.22.08.41.23.52.43,1.47,2.51,6.19,2.9,10.61,2.95,6.06.06,12.17-.15,18.15-.62.54-.03,1.02.36,1.06.91.04.54-.36,1.02-.91,1.06-6.04.48-12.2.7-18.32.63-5.06-.05-10-.54-12.09-3.6-2.54-.78-3.61.28-4.54,2.37-.36.79-.66,1.68-.96,2.56-.52,1.53-1.06,3.11-1.91,4.36.84,1.25,1.38,2.83,1.91,4.36.3.88.6,1.77.96,2.56.94,2.09,2,3.15,4.54,2.37,2.09-3.06,7.03-3.54,12.09-3.6,6.08-.07,12.25.15,18.32.62.54.04.95.52.91,1.06-.04.54-.5.94-1.06.91-6.02-.48-12.13-.68-18.15-.62-4.43.05-9.15.44-10.61,2.95-.12.2-.3.36-.52.43-.94.33-1.77.48-2.49.48Z"/>
                  <path class="cls-4" d="M44.66,166.48h-14.81c-.54,0-.99-.44-.99-.99s.44-.99.99-.99h14.81c.54,0,.99.44.99.99s-.44.99-.99.99Z"/>
                </g>
              </g>
              <path class="cls-2" d="M118.35,256.64c-.37,0-.71-.21-.87-.53-1.08-2.07-2.95-3.05-4.94-4.09-2.47-1.29-5.03-2.63-5.66-6.12-.06-.34.06-.69.33-.92,1.76-1.51,2.73-2.35,2.9-6.37.12-2.82.91-22.75,1.33-33.42.09-2.27-.27-4.69-3.6-5.49-.53-.13-.86-.66-.73-1.19.13-.53.66-.86,1.19-.73,5.35,1.29,5.17,5.95,5.11,7.49-.42,10.66-1.21,30.6-1.33,33.42-.18,4.3-1.3,5.77-3.13,7.39.61,2.15,2.35,3.06,4.51,4.19,1.68.88,3.53,1.85,4.9,3.58,1.37-1.73,3.23-2.7,4.9-3.58,2.16-1.13,3.9-2.04,4.51-4.19-1.83-1.62-2.95-3.09-3.13-7.39-.12-2.82-.91-22.76-1.33-33.42-.06-1.53-.24-6.2,5.11-7.49.53-.15,1.06.2,1.19.73.13.53-.2,1.06-.73,1.19-3.33.8-3.69,3.23-3.6,5.49.42,10.66,1.21,30.6,1.33,33.42.17,4.03,1.14,4.86,2.9,6.37.26.23.39.58.33.92-.63,3.49-3.19,4.83-5.66,6.12-1.99,1.04-3.86,2.02-4.94,4.09-.17.33-.51.53-.87.53Z"/>
              <path class="cls-4" d="M146.12,260.92c-3.44-.16-7.57-.82-11.94-1.52-5.48-.88-11.15-1.78-15.82-1.78s-10.34.9-15.82,1.78c-4.37.7-8.5,1.36-11.89,1.52-.5-.03-1.01-.39-1.03-.94-.03-.54.39-1.01.94-1.04,3.28-.16,7.36-.81,11.68-1.5,5.56-.89,11.31-1.81,16.13-1.81s10.57.92,16.13,1.81c4.32.69,8.4,1.34,11.68,1.5.54.03.96.49.94,1.04-.03.53-.46.94-.98.94Z"/>
              <path class="cls-2" d="M126.26,132.22c-.5,0-.93-.38-.98-.89-.59-6.23-.91-12.58-.94-18.89-.03-5.24.53-8.29,3.59-10.14.6-1.13.67-2.3.21-3.38-.63-1.48-2.19-2.64-4.18-3.12-2.71-.64-4.28-1.54-5.46-3.25-1.18,1.71-2.75,2.6-5.46,3.25-1.99.47-3.55,1.64-4.18,3.12-.46,1.08-.39,2.24.21,3.38,3.07,1.85,3.62,4.9,3.6,10.14-.03,6.31-.35,12.66-.95,18.89-.05.54-.56.91-1.08.89-.54-.05-.94-.53-.89-1.08.59-6.16.91-12.45.94-18.71.03-5.39-.61-7.3-2.83-8.55-.15-.08-.28-.21-.37-.36-1.02-1.74-1.19-3.64-.45-5.37.87-2.05,2.95-3.65,5.54-4.26,3.14-.75,4.09-1.76,5.02-3.74.32-.69,1.46-.69,1.79,0,.93,1.99,1.88,3,5.02,3.74,2.6.62,4.67,2.21,5.54,4.26.73,1.73.57,3.63-.45,5.37-.09.15-.21.27-.37.36-2.23,1.25-2.86,3.16-2.83,8.55.03,6.25.35,12.54.94,18.71.05.54-.35,1.02-.89,1.08-.03,0-.06,0-.1,0Z"/>
              <g>
                <g>
                  <path class="cls-4" d="M75.6,191.45c-.19,0-.38-.05-.55-.17-5.08-3.44-13.37-5.49-22.18-5.49-8.23,0-15.9,1.75-21.08,4.78-.47.28-1.07.12-1.35-.35-.27-.47-.12-1.07.35-1.35,5.47-3.21,13.51-5.05,22.05-5.06,9.23,0,17.93,2.18,23.32,5.83.45.31.57.92.26,1.37-.19.28-.5.43-.82.43Z"/>
                  <path class="cls-4" d="M52.77,147.2c-8.52,0-16.55-1.83-22.02-5.03-.47-.27-.63-.88-.35-1.35.27-.47.87-.63,1.35-.35,5.18,3.03,12.84,4.76,21.02,4.76,8.86,0,17.16-2.06,22.24-5.51.45-.31,1.06-.19,1.37.26.31.45.19,1.07-.26,1.37-5.4,3.66-14.11,5.85-23.32,5.85h-.03Z"/>
                </g>
                <g>
                  <path class="cls-4" d="M161.1,191.45c-.32,0-.63-.15-.82-.43-.31-.45-.19-1.06.26-1.37,5.39-3.65,14.1-5.83,23.29-5.83,8.57,0,16.61,1.85,22.08,5.06.47.27.63.88.35,1.35-.28.47-.88.63-1.35.35-5.18-3.04-12.85-4.78-21.05-4.78-8.85,0-17.14,2.05-22.22,5.49-.17.12-.36.17-.55.17Z"/>
                  <path class="cls-4" d="M183.93,147.2c-9.24,0-17.96-2.19-23.35-5.85-.45-.31-.57-.92-.26-1.37.3-.45.92-.57,1.37-.26,5.08,3.45,13.38,5.51,22.21,5.51,8.22,0,15.88-1.74,21.06-4.76.47-.27,1.07-.12,1.35.35.27.47.12,1.08-.35,1.35-5.47,3.2-13.5,5.03-22.02,5.03Z"/>
                </g>
                <g>
                  <path class="cls-4" d="M93.38,123.73c-.19,0-.38-.05-.55-.17-.45-.31-.57-.92-.26-1.37,3.44-5.08,5.5-13.39,5.49-22.22,0-8.2-1.75-15.87-4.79-21.05-.27-.47-.12-1.07.35-1.35.47-.28,1.07-.12,1.35.35,3.21,5.48,5.05,13.51,5.06,22.05,0,9.21-2.18,17.93-5.83,23.32-.19.28-.5.43-.82.43Z"/>
                  <path class="cls-4" d="M143.31,123.7c-.32,0-.63-.15-.82-.43-3.66-5.39-5.85-14.11-5.85-23.32,0-8.53,1.83-16.57,5.03-22.05.27-.47.87-.63,1.35-.35.47.27.63.88.35,1.35-3.03,5.19-4.77,12.86-4.76,21.06,0,8.83,2.06,17.13,5.51,22.21.31.45.19,1.07-.26,1.37-.17.12-.36.17-.55.17Z"/>
                </g>
                <g>
                  <path class="cls-4" d="M24.79,171.22c-3.16,0-5.73-2.57-5.73-5.73s2.57-5.73,5.73-5.73,5.72,2.57,5.72,5.73-2.57,5.73-5.72,5.73ZM24.79,161.74c-2.07,0-3.75,1.68-3.75,3.75s1.68,3.75,3.75,3.75,3.75-1.68,3.75-3.75-1.68-3.75-3.75-3.75Z"/>
                  <path class="cls-4" d="M20.05,166.48c-.54,0-.99-.44-.99-.99,0-4.92,2.76-7.16,5.44-9.33,3.44-2.79,6.69-5.43,5.47-13.92-.08-.54.3-1.04.83-1.12.56-.09,1.04.3,1.12.83,1.38,9.6-2.63,12.86-6.17,15.73-2.53,2.05-4.71,3.82-4.71,7.8,0,.54-.44.99-.99.99Z"/>
                  <path class="cls-4" d="M30.95,189.87s-.09,0-.14-.01c-.54-.08-.91-.58-.83-1.12,1.22-8.49-2.03-11.13-5.46-13.92-2.67-2.17-5.44-4.41-5.44-9.33,0-.54.44-.99.99-.99s.99.44.99.99c0,3.98,2.18,5.75,4.71,7.8,3.54,2.88,7.56,6.13,6.17,15.73-.07.49-.49.85-.97.85Z"/>
                </g>
                <g>
                  <path class="cls-4" d="M211.91,171.22c-3.16,0-5.72-2.57-5.72-5.73s2.57-5.73,5.72-5.73,5.73,2.57,5.73,5.73-2.57,5.73-5.73,5.73ZM211.91,161.74c-2.07,0-3.75,1.68-3.75,3.75s1.68,3.75,3.75,3.75,3.75-1.68,3.75-3.75-1.68-3.75-3.75-3.75Z"/>
                  <path class="cls-4" d="M216.65,166.48c-.54,0-.99-.44-.99-.99,0-3.98-2.18-5.75-4.71-7.8-3.54-2.87-7.56-6.13-6.17-15.73.08-.54.55-.92,1.12-.83.54.08.91.58.83,1.12-1.22,8.49,2.03,11.13,5.47,13.92,2.67,2.17,5.44,4.41,5.44,9.33,0,.54-.44.99-.99.99Z"/>
                  <path class="cls-4" d="M205.75,189.87c-.48,0-.9-.35-.97-.85-1.38-9.6,2.63-12.86,6.17-15.73,2.53-2.05,4.71-3.82,4.71-7.8,0-.54.44-.99.99-.99s.99.44.99.99c0,4.92-2.76,7.16-5.44,9.33-3.44,2.79-6.69,5.43-5.46,13.92.08.54-.3,1.04-.83,1.12-.05,0-.1.01-.14.01Z"/>
                </g>
                <g>
                  <path class="cls-4" d="M118.35,77.66c-3.16,0-5.73-2.57-5.73-5.72s2.57-5.73,5.73-5.73,5.73,2.57,5.73,5.73-2.57,5.72-5.73,5.72ZM118.35,68.18c-2.07,0-3.75,1.68-3.75,3.75s1.68,3.75,3.75,3.75,3.75-1.68,3.75-3.75-1.68-3.75-3.75-3.75Z"/>
                  <path class="cls-4" d="M98.46,79.35c-1.1,0-2.31-.09-3.64-.28-.54-.08-.91-.58-.83-1.12.08-.54.57-.91,1.12-.83,8.49,1.23,11.13-2.02,13.92-5.47,2.17-2.67,4.41-5.44,9.33-5.44.54,0,.99.44.99.99s-.44.99-.99.99c-3.98,0-5.75,2.18-7.8,4.71-2.48,3.05-5.24,6.45-12.09,6.45Z"/>
                  <path class="cls-4" d="M138.24,79.35c-6.85,0-9.61-3.4-12.09-6.45-2.05-2.52-3.82-4.71-7.8-4.71-.54,0-.99-.44-.99-.99s.44-.99.99-.99c4.92,0,7.16,2.76,9.33,5.44,2.79,3.44,5.43,6.68,13.92,5.47.54-.07,1.04.3,1.12.83.08.54-.3,1.04-.83,1.12-1.33.19-2.54.28-3.64.28Z"/>
                </g>
                <path class="cls-4" d="M75.72,190.97c-.08,0-.16-.01-.24-.03-.53-.13-.85-.67-.72-1.2,1.83-7.27.35-12.68-4.52-16.54-.43-.34-.5-.96-.16-1.38.34-.43.96-.5,1.39-.16,5.47,4.33,7.22,10.58,5.21,18.57-.11.45-.51.74-.96.74Z"/>
                <path class="cls-4" d="M70.86,159.55c-.29,0-.58-.13-.77-.37-.34-.43-.27-1.05.16-1.38,4.87-3.86,6.35-9.27,4.52-16.54-.13-.53.19-1.07.72-1.2.52-.13,1.06.19,1.2.71,2.01,7.99.26,14.24-5.21,18.57-.18.14-.4.21-.61.21Z"/>
                <path class="cls-4" d="M160.98,190.97c-.44,0-.84-.3-.96-.74-2.01-7.99-.26-14.24,5.21-18.57.43-.34,1.05-.27,1.39.16.34.43.27,1.05-.16,1.38-4.87,3.86-6.35,9.27-4.52,16.54.13.53-.19,1.07-.72,1.2-.08.02-.16.03-.24.03Z"/>
                <path class="cls-4" d="M165.84,159.55c-.21,0-.43-.07-.61-.21-5.47-4.33-7.22-10.58-5.21-18.57.13-.53.68-.84,1.2-.71.53.13.85.67.72,1.2-1.83,7.27-.35,12.69,4.52,16.54.43.34.5.96.16,1.38-.2.25-.48.37-.77.37Z"/>
                <path class="cls-4" d="M137.04,124.8c-4.96,0-9.04-1.86-12.16-5.56-.35-.42-.3-1.04.12-1.39.41-.35,1.04-.3,1.39.12,3.84,4.55,9.14,5.89,16.21,4.12.53-.13,1.06.19,1.2.71.13.53-.19,1.07-.72,1.2-2.14.54-4.15.81-6.04.81Z"/>
                <path class="cls-4" d="M99.66,124.8c-1.89,0-3.9-.27-6.04-.81-.53-.13-.85-.67-.72-1.2.13-.53.68-.84,1.2-.71,7.27,1.82,12.68.35,16.54-4.52.34-.42.96-.5,1.39-.16.43.34.5.96.16,1.39-3.17,4-7.37,6.01-12.53,6.01Z"/>
                <path class="cls-4" d="M118.5,91.55c-.54,0-.99-.44-.99-.99v-13.89c0-.54.44-.99.99-.99s.99.44.99.99v13.89c0,.54-.44.99-.99.99Z"/>
              </g>
            </g>
            <path class="cls-4" d="M146.11,267.76c-.11,0-.18,0-.25-.01-3.24-.17-7.13-.79-11.26-1.44l-.44-.07c-5.48-.88-11.15-1.78-15.82-1.78s-10.34.9-15.82,1.78c-4.38.7-8.51,1.36-11.89,1.52-.07,0-.14,0-.21-.01-.28-.05-.71-.23-.92-.89-.15-.48-.71-6.97.56-7.76,4.49-2.8,7.8-7.41,9.85-13.7,1.7-5.22,3.08-10.37,4.16-15.55-18.06-3.99-33.66-15.49-42.92-31.64-7.04,1.78-14.72,1.24-21.47-1.62-4.02-1.7-7.63-4.14-10.73-7.23-3.1-3.1-5.53-6.71-7.23-10.73-1.76-4.16-2.65-8.58-2.65-13.14s.89-8.97,2.65-13.14c1.7-4.01,4.13-7.62,7.23-10.73,3.1-3.1,6.71-5.53,10.73-7.24,6.76-2.86,14.43-3.41,21.47-1.62,5.84-10.19,14.29-18.64,24.48-24.48-.69-2.7-1.03-5.49-1.03-8.33,0-4.56.89-8.97,2.65-13.14,1.7-4.02,4.14-7.63,7.23-10.73,3.1-3.1,6.71-5.53,10.73-7.23,8.32-3.52,17.96-3.52,26.27,0,4.02,1.7,7.63,4.13,10.73,7.23,3.1,3.09,5.53,6.7,7.23,10.73,1.76,4.16,2.65,8.58,2.65,13.14,0,2.84-.35,5.63-1.04,8.33,10.19,5.84,18.64,14.3,24.48,24.48,7.04-1.79,14.71-1.24,21.47,1.62,4.02,1.7,7.63,4.14,10.73,7.23,3.1,3.11,5.53,6.71,7.23,10.73,1.76,4.17,2.65,8.59,2.65,13.14s-.89,8.98-2.65,13.14c-1.7,4.02-4.13,7.63-7.23,10.73-3.1,3.1-6.71,5.53-10.73,7.23-6.75,2.85-14.43,3.4-21.47,1.62-9.26,16.15-24.86,27.65-42.92,31.64,1.07,5.18,2.46,10.33,4.16,15.55,2.05,6.28,5.37,10.89,9.85,13.7,1.27.8.71,7.28.56,7.76-.21.68-.67.85-.95.89-.05,0-.09.01-.14.01ZM118.35,262.49c4.82,0,10.57.92,16.13,1.81,3.99.64,7.79,1.24,10.93,1.45.14-1.3.11-4.22-.08-5.14-4.76-3.07-8.26-7.97-10.42-14.59-4.59-14.07-6.86-27.61-7.17-42.61,0-.45.29-.85.73-.97,9.43-2.58,17.45-8.62,22.57-17,.28-.46.88-.61,1.34-.34,6.28,3.71,12.71,6.97,19.13,9.68,7.82,3.31,16.91,3.31,24.74,0,3.78-1.6,7.18-3.89,10.1-6.81,2.92-2.92,5.21-6.32,6.81-10.1,1.66-3.92,2.5-8.08,2.5-12.37s-.84-8.45-2.5-12.37c-1.6-3.78-3.89-7.18-6.81-10.1-2.92-2.92-6.32-5.21-10.1-6.81-7.84-3.31-16.9-3.31-24.74,0-6.41,2.71-12.85,5.97-19.13,9.68-.46.27-1.06.13-1.34-.34-3.16-5.17-7.57-9.58-12.75-12.75-.46-.28-.61-.88-.33-1.34,3.7-6.27,6.96-12.71,9.68-19.13,1.66-3.92,2.5-8.08,2.5-12.37s-.84-8.45-2.5-12.37c-1.6-3.79-3.89-7.19-6.81-10.1-2.92-2.92-6.32-5.21-10.1-6.81-7.83-3.32-16.91-3.32-24.74,0-3.79,1.6-7.18,3.89-10.1,6.81-2.92,2.92-5.21,6.32-6.81,10.1-1.66,3.92-2.5,8.08-2.5,12.37s.84,8.45,2.5,12.37c2.72,6.42,5.98,12.86,9.68,19.13.27.46.13,1.06-.33,1.34-5.18,3.17-9.59,7.58-12.75,12.75-.28.46-.87.61-1.34.34-6.28-3.71-12.71-6.97-19.13-9.68-7.84-3.31-16.9-3.31-24.74,0-3.78,1.6-7.18,3.89-10.1,6.81-2.92,2.92-5.21,6.32-6.81,10.1-1.66,3.92-2.5,8.08-2.5,12.37s.84,8.45,2.5,12.37c1.6,3.79,3.89,7.18,6.81,10.1,2.92,2.92,6.32,5.21,10.1,6.81,7.83,3.31,16.92,3.31,24.74,0,6.41-2.71,12.85-5.97,19.13-9.68.47-.27,1.06-.12,1.34.34,5.13,8.38,13.14,14.42,22.57,17,.44.12.73.52.73.97-.3,15-2.58,28.54-7.17,42.61-2.16,6.62-5.66,11.52-10.42,14.59-.18.92-.22,3.84-.08,5.14,2.91-.2,6.38-.73,10.05-1.32.09-.02.68-.11.87-.14,5.56-.89,11.31-1.81,16.13-1.81ZM130.94,219.86c.36,2.71.79,5.39,1.3,8.06,17.34-3.84,32.35-14.83,41.35-30.27-.96-.31-1.91-.66-2.85-1.06-1.59-.67-3.17-1.38-4.76-2.11-7.81,12.81-20.54,22.03-35.05,25.38ZM63.11,197.65c9,15.44,24.01,26.42,41.35,30.27.52-2.67.95-5.35,1.3-8.06-14.51-3.35-27.24-12.57-35.05-25.38-1.58.74-3.17,1.44-4.76,2.11-.94.4-1.89.75-2.85,1.06ZM72.51,193.64c7.51,12.21,19.65,21,33.5,24.25.53-4.49.84-9.06.96-13.77-9.29-2.73-17.22-8.67-22.48-16.84-3.95,2.3-7.96,4.43-11.98,6.35ZM129.73,204.12c.12,4.71.43,9.28.96,13.77,13.84-3.25,25.99-12.05,33.5-24.25-4.02-1.93-8.03-4.05-11.98-6.35-5.26,8.17-13.19,14.11-22.48,16.84ZM140.14,131.64c4.82,3.11,8.96,7.26,12.07,12.07,3.95-2.3,7.96-4.43,11.98-6.35-4.42-7.18-10.52-13.28-17.69-17.7-1.93,4.03-4.05,8.04-6.36,11.98ZM72.51,137.35c4.02,1.93,8.03,4.05,11.98,6.35,3.11-4.81,7.25-8.96,12.07-12.07-2.3-3.95-4.43-7.95-6.36-11.98-7.18,4.42-13.28,10.52-17.69,17.7ZM63.11,133.34c.96.31,1.91.66,2.85,1.06,1.59.67,3.17,1.38,4.76,2.11,4.63-7.59,11.06-14.02,18.64-18.65-.73-1.58-1.44-3.17-2.11-4.76-.4-.94-.75-1.89-1.06-2.85-9.55,5.58-17.51,13.54-23.09,23.09ZM147.34,117.86c7.58,4.63,14.01,11.06,18.64,18.65,1.59-.73,3.17-1.44,4.76-2.11.94-.4,1.89-.75,2.85-1.06-5.57-9.55-13.53-17.51-23.09-23.09-.31.96-.66,1.91-1.06,2.85-.67,1.58-1.37,3.17-2.11,4.76ZM118.35,201.26c-19.72,0-35.77-16.05-35.77-35.77s16.05-35.77,35.77-35.77,35.77,16.04,35.77,35.77-16.05,35.77-35.77,35.77ZM118.35,131.7c-18.63,0-33.8,15.16-33.8,33.79s15.16,33.8,33.8,33.8,33.8-15.16,33.8-33.8-15.16-33.79-33.8-33.79Z"/>
          </g>
        </g>
        <g>
          <path class="cls-3" d="M123.93,190.35c-.96,0-1.86-.2-2.73-.4-.89-.2-1.81-.41-2.85-.41s-1.95.21-2.85.41c-.87.2-1.77.4-2.73.4-.33,0-.64-.16-.82-.44-.18-.27-.22-.62-.09-.93,2.43-5.75,3.97-11.84,4.57-18.09.1-1.01-.32-1.7-.68-2.1-.54-.6-1.34-.96-2.14-.96-.57,0-1.38.18-2.03,1.03-.84,1.09-1.76,2.13-2.73,3.11-1.68,1.68-3.91,2.6-6.28,2.6-4.91,0-8.88-3.97-8.88-8.88s3.91-8.87,8.88-8.87c2.37,0,4.6.92,6.28,2.6.97.97,1.89,2.02,2.73,3.11.69.89,1.59,1.02,2.07,1.02.65,0,1.3-.23,1.73-.61.52-.46.84-1.26.82-2.04-.02-.55-.21-1.34-1.02-1.97-1.08-.83-2.13-1.75-3.11-2.73-1.67-1.67-2.6-3.9-2.6-6.28,0-4.85,3.91-8.87,8.88-8.87s8.87,4.03,8.87,8.87c0,2.37-.92,4.6-2.6,6.28-.98.98-2.02,1.89-3.11,2.73-.82.63-1.01,1.42-1.03,1.97-.02.78.3,1.58.82,2.04.44.39,1.09.61,1.74.61.48,0,1.38-.13,2.07-1.02.83-1.08,1.75-2.12,2.73-3.11,1.68-1.68,3.91-2.6,6.28-2.6,4.97,0,8.87,4.03,8.87,8.87s-3.97,8.88-8.87,8.88c-2.37,0-4.6-.92-6.28-2.6-.98-.99-1.9-2.03-2.73-3.11-.65-.85-1.47-1.03-2.03-1.03-.8,0-1.6.35-2.14.96-.36.4-.78,1.09-.68,2.1.6,6.26,2.14,12.34,4.57,18.09.13.31.09.65-.09.93-.18.28-.49.44-.82.44Z"/>
          <path class="cls-2" d="M134.13,155.83c-2.63,0-5.11,1.03-6.97,2.89-1,1.01-1.95,2.08-2.82,3.21-.33.43-.76.64-1.29.64-.41,0-.82-.14-1.09-.37-.25-.22-.5-.7-.48-1.26.02-.5.23-.91.64-1.23,1.12-.87,2.2-1.82,3.2-2.82,1.86-1.86,2.89-4.34,2.89-6.97,0-5.45-4.41-9.86-9.86-9.86s-9.86,4.41-9.86,9.86c0,2.64,1.03,5.11,2.89,6.97,1,1,2.08,1.95,3.2,2.82.41.32.63.73.64,1.23.02.56-.23,1.04-.48,1.26-.26.23-.68.37-1.09.37-.53,0-.96-.22-1.29-.64-.87-1.12-1.81-2.2-2.82-3.21-1.86-1.86-4.34-2.89-6.97-2.89-5.45,0-9.86,4.41-9.86,9.86s4.41,9.86,9.86,9.86c2.64,0,5.11-1.02,6.97-2.89,1-1,1.95-2.08,2.81-3.2.33-.43.75-.64,1.25-.64s1.06.24,1.41.63c.33.37.48.82.43,1.35-.59,6.15-2.1,12.14-4.5,17.8-.26.61-.19,1.31.17,1.86.37.55.98.88,1.64.88,1.07,0,2.03-.21,2.95-.42.88-.2,1.71-.38,2.63-.38s1.75.18,2.63.38c.92.21,1.87.42,2.95.42.66,0,1.28-.33,1.64-.88.37-.55.43-1.25.17-1.86-2.39-5.66-3.9-11.64-4.49-17.8-.05-.52.09-.98.43-1.35.35-.39.89-.63,1.41-.63s.92.22,1.25.64c.86,1.12,1.81,2.2,2.81,3.2,1.86,1.86,4.34,2.89,6.97,2.89,5.45,0,9.86-4.41,9.86-9.86s-4.41-9.86-9.86-9.86ZM134.13,173.58c-2.18,0-4.15-.88-5.58-2.31-.95-.95-1.83-1.95-2.65-3.01-.76-.98-1.79-1.41-2.81-1.41-2.03,0-4.04,1.69-3.8,4.14.62,6.46,2.21,12.64,4.64,18.37-1.79,0-3.4-.81-5.58-.81s-3.79.81-5.58.81c2.43-5.74,4.02-11.91,4.64-18.37.24-2.45-1.77-4.14-3.8-4.14-1.03,0-2.06.43-2.81,1.41-.82,1.06-1.7,2.07-2.65,3.01-1.43,1.43-3.4,2.31-5.58,2.31-4.36,0-7.89-3.53-7.89-7.89s3.53-7.89,7.89-7.89c2.18,0,4.15.88,5.58,2.31.95.95,1.83,1.95,2.65,3.01.77.99,1.83,1.41,2.85,1.41.9,0,1.77-.32,2.38-.86,1.4-1.23,1.76-3.98-.26-5.53-1.06-.82-2.06-1.71-3.01-2.65-1.43-1.43-2.31-3.4-2.31-5.58,0-4.36,3.53-7.89,7.89-7.89s7.89,3.53,7.89,7.89c0,2.18-.88,4.15-2.31,5.58-.95.95-1.95,1.83-3.01,2.65-2.01,1.55-1.66,4.3-.25,5.53.61.54,1.48.86,2.38.86,1.02,0,2.09-.42,2.85-1.41.82-1.06,1.7-2.07,2.65-3.01,1.43-1.43,3.4-2.31,5.58-2.31,4.36,0,7.89,3.53,7.89,7.89s-3.53,7.89-7.89,7.89Z"/>
          <path class="cls-2" d="M118.35,178.02c.61,3,1.44,5.95,2.48,8.83-.74-.14-1.56-.26-2.48-.26s-1.74.12-2.48.26c1.04-2.88,1.86-5.83,2.48-8.83ZM106.21,166.68c-2.35,0-4.24-.44-4.24-.99s1.9-.99,4.24-.99c1.5,0,2.45.15,3.69.44-1.96-2-3.69-3.96-5.18-4.59-.67-.28-1.4-.44-2.17-.44-3.08,0-5.58,2.5-5.58,5.58s2.49,5.58,5.58,5.58c.77,0,1.5-.15,2.17-.44,1.49-.63,3.22-2.59,5.18-4.59-1.21.28-2.18.43-3.68.43ZM118.35,162.82c-.51,1.5-1.36,2.36-2.87,2.87,1.51.51,2.36,1.36,2.87,2.87.51-1.5,1.36-2.36,2.87-2.87-1.51-.51-2.36-1.36-2.87-2.87ZM118.35,144.3c-3.08,0-5.58,2.5-5.58,5.58,0,.77.16,1.5.44,2.17.63,1.49,2.59,3.22,4.59,5.18-.28-1.23-.44-2.19-.44-3.68,0-2.34.44-4.24.99-4.24s.99,1.9.99,4.24c0,1.5-.16,2.47-.44,3.68,2-1.96,3.96-3.69,4.59-5.18.28-.67.44-1.4.44-2.17,0-3.09-2.5-5.58-5.58-5.58ZM134.16,160.11c-.77,0-1.5.15-2.17.44-1.49.63-3.22,2.59-5.19,4.59,1.24-.28,2.19-.44,3.69-.44,2.34,0,4.24.44,4.24.99s-1.89.99-4.24.99c-1.5,0-2.47-.16-3.68-.43,1.96,2,3.69,3.96,5.18,4.59.67.28,1.4.44,2.17.44,3.09,0,5.58-2.5,5.58-5.58s-2.5-5.58-5.58-5.58Z"/>
        </g>
      </g>
      <g id="A">
        <path class="cls-4" d="M215.64,295.21c-.16.75-.23,1.36-.23,1.81,0,1.59.15,1.83.32,3.71.63,6.91,5.49,9.56,7.47,9.56.56,0,.99-.04,1.29-.11.67-2.01,1.01-4.12,1.01-6.31,0-1.94-.1-3.39-.31-4.35-.32-1.44-.82-2.88-1.49-4.33h5.38c-.29.72-.43,2.23-.43,4.54,0,14.98-7.37,20.71-9.29,22.98h-5.66c.52-.59.77-1.41.77-2.46,0-.48-.08-1.26-.23-2.36l-.45-3.27c-1.64-11.31-3.11-17.79-4.4-19.42h6.27ZM223.75,312.1c-.47.18-.96.27-1.47.27-3.37,0-4.73-1.96-4.82-2.07.59,3.08,1.71,8.79,1.71,8.79l1.02-1.22c1.44-1.73,2.62-3.65,3.56-5.77Z"/>
        <path class="cls-4" d="M21.06,36.17c.16-.75.23-1.36.23-1.81,0-1.58-.15-1.82-.32-3.71-.63-6.91-5.49-9.56-7.47-9.56-.56,0-.99.04-1.29.11-.67,2.01-1.01,4.12-1.01,6.31,0,1.94.1,3.39.31,4.35.32,1.44.82,2.88,1.49,4.33h-5.38c.29-.72.43-2.23.43-4.54,0-14.98,7.36-20.71,9.3-22.99h5.66c-.51.59-.77,1.41-.77,2.46,0,.48.08,1.27.23,2.36l.45,3.27c1.64,11.32,3.11,17.79,4.4,19.42h-6.27ZM12.95,19.28c.47-.18.96-.27,1.47-.27,3.37,0,4.73,1.96,4.82,2.07-.59-3.08-1.71-8.79-1.71-8.79l-1.02,1.22c-1.44,1.73-2.62,3.65-3.56,5.77Z"/>
      </g>
      <g id="Clubs">
        <path class="cls-2" d="M216.19,282.15c-.2.47-.31.99-.31,1.54,0,2.18,1.77,3.94,3.94,3.94s3.95-1.77,3.95-3.94c0-.55-.11-1.07-.31-1.54-.39-.92-.85-1.81-1.37-2.66-.35-.57-.52-1.25-.17-1.61.35-.35,1.03-.19,1.61.17.85.52,1.73.98,2.65,1.37.47.2.99.31,1.54.31,2.18,0,3.94-1.77,3.94-3.94s-1.77-3.95-3.94-3.95c-.54,0-1.06.11-1.54.31-.92.39-1.81.85-2.65,1.37-1.17.72-2.4.11-2.45-1.26,0-.21-.01-.42-.01-.63,0-2.72.55-5.32,1.55-7.68-.9,0-1.7.4-2.79.4s-1.99-.4-2.79-.4c1,2.36,1.55,4.95,1.55,7.68,0,.21,0,.43-.01.63-.05,1.38-1.28,1.99-2.45,1.26-.85-.52-1.73-.98-2.65-1.37-.47-.2-.99-.31-1.54-.31-2.18,0-3.95,1.77-3.95,3.95s1.77,3.94,3.95,3.94c.54,0,1.06-.11,1.54-.31.92-.39,1.81-.85,2.65-1.37.57-.35,1.25-.52,1.61-.17.36.35.18,1.04-.17,1.61-.52.84-.98,1.73-1.37,2.66Z"/>
        <path class="cls-2" d="M20.51,49.23c.2-.47.31-.99.31-1.54,0-2.18-1.77-3.95-3.94-3.95s-3.94,1.77-3.94,3.95c0,.55.11,1.07.31,1.54.39.92.85,1.81,1.37,2.66.35.57.52,1.25.17,1.61-.35.35-1.04.19-1.61-.17-.84-.52-1.73-.98-2.65-1.37-.47-.2-.99-.31-1.54-.31-2.18,0-3.94,1.77-3.94,3.94s1.77,3.94,3.94,3.94c.54,0,1.06-.11,1.54-.31.92-.39,1.81-.85,2.65-1.37,1.17-.72,2.4-.11,2.45,1.26,0,.21.01.42.01.63,0,2.72-.55,5.32-1.55,7.68.9,0,1.7-.4,2.79-.4s1.99.4,2.79.4c-1-2.36-1.55-4.95-1.55-7.68,0-.21,0-.43.01-.63.05-1.38,1.28-1.99,2.45-1.26.85.52,1.73.98,2.65,1.37.47.2.99.31,1.54.31,2.18,0,3.95-1.77,3.95-3.94s-1.77-3.94-3.95-3.94c-.54,0-1.06.11-1.54.31-.92.39-1.81.85-2.65,1.37-.57.35-1.25.52-1.61.17-.36-.35-.18-1.04.17-1.61.52-.84.98-1.73,1.37-2.66Z"/>
      </g>
    </g>
  </g>
</svg>