<?xml version="1.0" encoding="UTF-8"?>
<svg id="Layer_2" data-name="Layer 2" xmlns="http://www.w3.org/2000/svg" viewBox="0 0 236.7 331.38">
  <defs>
    <style>
      .cls-1 {
        fill: #fb212e;
      }

      .cls-2 {
        fill: #ede8da;
      }

      .cls-3 {
        fill: #3a2b0e;
      }

      .cls-4 {
        fill: #fff;
      }

      .cls-5 {
        fill: #3d2b07;
      }
    </style>
  </defs>
  <g id="_Layer_" data-name="&amp;lt;Layer&amp;gt;">
    <g id="Ace_Hearts" data-name="Ace Hearts">
      <path id="BG" class="cls-4" d="M14.2,0h208.3c7.84,0,14.2,6.36,14.2,14.2v302.97c0,7.84-6.36,14.2-14.2,14.2H14.2c-7.84,0-14.2-6.36-14.2-14.2V14.2C0,6.36,6.36,0,14.2,0Z"/>
      <g>
        <path class="cls-2" d="M204.29,172.12l-43.32-3.74,43.32,1.73v-1.98l-43.2-1.86h43.2v-1.97h-43.3l43.3-2.14v-1.97l-43.43,2.28,43.43-4.3v-1.98l-43.54,4.31,43.54-6.35v-1.99l-43.88,6.4,43.88-8.49v-2.01l-44.21,8.56,44.21-10.69v-2.03l-44.51,10.76,44.51-12.96v-2.06l-47.7,13.89,47.7-16.47v-2.09l-51.42,17.75,51.42-20.9v-2.13l-58,23.57,58-28.04v-2.19l-63.82,30.86,63.82-37.33v-2.28l-66.9,39.13,66.9-47.38v-2.42l-68.02,48.18,68.02-57.67v-2.59l-69.3,58.76,69.3-69.97v-2.8l-70.71,71.4,70.71-85.06v-3.08l-72.21,86.87,72.17-104.02c-.02-1.16-.06-2.25-.11-3.31l-73.68,106.2L200.88,23.39c-.38-.72-.78-1.34-1.21-1.86l-70.93,124L190.03,12.79c-.55-.27-1.15-.52-1.82-.76l-61.26,132.66L175.5,9.86c-.66-.04-1.36-.07-2.06-.1l-48.34,134.28L160.65,9.62h-2.04l-35.42,133.91L146.4,9.62h-2l-23.15,133.56,11.33-133.56h-1.98l-11.47,133.41V9.62h-1.97v133.41L105.36,9.62h-1.98l11.97,133.59L91.54,9.62h-2l23.87,133.93L77.3,9.62h-2.04l36.24,134.44L62.43,9.79c-.71.04-1.39.08-2.05.13l49.26,134.81L47.74,12.32c-.66.26-1.26.54-1.79.83l61.91,132.42L36.52,22.22c-.39.58-.77,1.24-1.12,2.01l66.94,115.75L32.83,36.02c-.09,1.01-.17,2.07-.23,3.2l65.71,98.27L32.41,50.15v3.28l61.97,82.12L32.41,61.62v3.07l58.69,70.02-58.69-63.58v2.9l56.29,60.98-56.29-55.59v2.77l54.89,54.22-54.89-49.42v2.65l53.57,48.23-53.57-43.92v2.55l52.29,42.87-52.29-38.98v2.46l51.13,38.12-51.13-34.56v2.38l50.04,33.83-50.04-30.56v2.31l48.96,29.9-48.96-26.87v2.25l48,26.34-48-23.53v2.2l47.21,23.14-47.21-20.5v2.15l46.39,20.14-46.39-17.64v2.11l45.68,17.37-45.68-15v2.08l45.05,14.78-45.05-12.51v2.05l44.59,12.39-44.59-10.19v2.02l44.13,10.09-44.13-7.96v2l43.71,7.89-43.71-5.82v1.99l43.48,5.79-43.48-3.76v1.98l43.27,3.74-43.27-1.73v1.98l43.26,1.86h-43.26v1.97h43.3l-43.3,2.14v1.97l43.37-2.28-43.37,4.29v1.98l43.59-4.32-43.59,6.36v1.99l43.82-6.4-43.82,8.48v2.01l44.26-8.56-44.26,10.7v2.03l44.45-10.75-44.45,12.94v2.06l47.7-13.88-47.7,16.47v2.09l51.46-17.77-51.46,20.91v2.13l57.81-23.49-57.81,27.95v2.19l63.97-30.93-63.97,37.42v2.28l66.9-39.13-66.9,47.38v2.42l68.02-48.18-68.02,57.68v2.59l69.29-58.75-69.29,69.97v2.8l70.7-71.39-70.7,85.04v3.08l72.22-86.88-72.18,104.04c.02,1.15.06,2.25.11,3.31l73.69-106.21-70.42,123.11c.38.72.78,1.34,1.21,1.87l70.92-123.99-61.28,132.72c.55.26,1.15.52,1.82.76l61.26-132.66-48.54,134.84c.66.04,1.36.07,2.06.1l48.34-134.28-35.56,134.41h2.04l35.42-133.91-23.21,133.91h2l23.15-133.57-11.33,133.57h1.98l11.47-133.41v133.41h1.97v-133.4l11.8,133.4h1.98l-11.97-133.59,23.81,133.59h2l-23.87-133.92,36.11,133.92h2.04l-36.25-134.44,49.07,134.27c.71-.04,1.39-.08,2.05-.13l-49.26-134.81,61.91,132.42c.65-.26,1.26-.53,1.79-.83l-61.91-132.43,71.34,123.36c.39-.58.77-1.24,1.12-2.01l-66.92-115.72,69.49,103.93c.09-1.01.17-2.07.23-3.19l-65.74-98.31,65.93,87.38v-3.27l-61.93-82.08,61.93,73.89v-3.07l-58.69-70.02,58.69,63.58v-2.9l-56.29-60.98,56.29,55.59v-2.77l-54.89-54.22,54.89,49.42v-2.65l-53.57-48.23,53.57,43.92v-2.55l-52.32-42.9,52.32,39v-2.46l-51.13-38.12,51.13,34.56v-2.38l-50.01-33.8,50.01,30.53v-2.31l-48.98-29.91,48.98,26.88v-2.25l-48.04-26.37,48.04,23.55v-2.2l-47.15-23.11,47.15,20.47v-2.15l-46.4-20.14,46.4,17.65v-2.11l-45.68-17.37,45.68,14.99v-2.08l-45.09-14.8,45.09,12.52v-2.05l-44.54-12.37,44.54,10.18v-2.02l-44.13-10.09,44.13,7.96v-2.01l-43.76-7.9,43.76,5.82v-1.99l-43.43-5.78,43.43,3.75v-1.98Z"/>
        <path class="cls-3" d="M167.47,322.74h-98.24c-18.14,0-27.24-3.01-28.37-9.44-6.43-1.13-9.44-10.23-9.44-28.37V46.44c0-18.14,3.01-27.24,9.44-28.37,1.13-6.43,10.23-9.44,28.37-9.44h98.24c18.14,0,27.24,3.01,28.37,9.44,6.43,1.13,9.44,10.23,9.44,28.37v238.5c0,18.14-3.01,27.24-9.44,28.37-1.13,6.43-10.23,9.44-28.37,9.44ZM42.85,313.4c.68,2.83,4.53,7.38,26.37,7.38h98.24c21.85,0,25.69-4.54,26.37-7.38-2.16-.24-3.94-1.8-3.94-3.55,0-1.62,1.44-2.48,2.48-2.48,1.76,0,3.32,1.78,3.55,3.94,2.83-.68,7.38-4.53,7.38-26.37V46.44c0-21.85-4.54-25.69-7.38-26.37-.23,2.16-1.79,3.95-3.55,3.95-1.04,0-2.48-.86-2.48-2.48,0-1.76,1.79-3.31,3.94-3.55-.68-2.83-4.53-7.38-26.37-7.38h-98.24c-21.85,0-25.69,4.54-26.37,7.38,2.16.23,3.95,1.79,3.95,3.55,0,1.62-1.44,2.48-2.48,2.48-1.76,0-3.32-1.79-3.55-3.95-2.83.68-7.37,4.53-7.37,26.37v238.5c0,21.85,4.54,25.69,7.37,26.37.24-2.16,1.8-3.94,3.55-3.94,1.04,0,2.48.86,2.48,2.48,0,1.76-1.78,3.32-3.95,3.55ZM192.38,309.34s-.51.07-.51.5c0,.51.78,1.41,2.09,1.58-.17-1.31-1.07-2.09-1.58-2.09ZM44.32,309.34c-.51,0-1.41.78-1.58,2.09,1.31-.17,2.09-1.07,2.09-1.58,0-.43-.51-.5-.51-.5ZM193.96,19.95c-1.31.17-2.09,1.07-2.09,1.58,0,.43.51.51.51.51.51,0,1.41-.78,1.58-2.09ZM42.74,19.95c.17,1.31,1.07,2.09,1.58,2.09,0,0,.51-.07.51-.51,0-.51-.78-1.41-2.09-1.58Z"/>
      </g>
      <g id="Illustration">
        <g id="Frame">
          <path id="Color" class="cls-4" d="M165.48,79.53c-38.18,0-43.49,34.92-47.13,38.92-3.73-4.1-8.86-38.92-47.13-38.92-29.2,0-51.17,33.27-51.17,62.03,0,51.53,53.95,44.53,98.3,122.27,44.3-77.67,98.3-70.83,98.3-122.27,0-28.75-21.96-62.03-51.17-62.03ZM118.35,200.47c-19.21,0-34.78-15.57-34.78-34.78s15.57-34.78,34.78-34.78,34.78,15.57,34.78,34.78-15.57,34.78-34.78,34.78Z"/>
          <g id="Line">
            <g>
              <path class="cls-5" d="M183.98,193.95c-17.17-1.82-30.56-14.93-31.95-31.18-.2-2.29-.14-4.62.15-6.92,1.04-8.14,5.33-15.58,11.79-20.42,5.89-4.41,13.05-6.22,20.17-5.09,6.54,1.04,12.4,4.71,16.07,10.05,3.24,4.72,4.39,10.32,3.23,15.79-1.04,4.9-4.17,9.29-8.38,11.74-3.55,2.07-7.59,2.53-11.38,1.33-3.3-1.05-6.28-3.84-7.4-6.95-.87-2.4-.62-4.76.7-6.85,1.01-1.59,3.25-2.77,5.14-2.6,1.19.08,2.09.66,2.54,1.63.97,2.1-.41,5.69-4.1,10.68,1.07.99,2.36,1.77,3.72,2.21,4.17,1.33,7.63.11,9.79-1.15,3.73-2.17,6.51-6.07,7.44-10.44,1.05-4.93,0-9.99-2.93-14.26-3.32-4.83-8.84-8.28-14.76-9.22-6.58-1.04-13.22.63-18.67,4.72-6.03,4.52-10.05,11.48-11.02,19.09-.28,2.17-.32,4.36-.14,6.51,1.31,15.31,13.97,27.67,30.09,29.38.54.06.93.54.88,1.09-.05.51-.48.88-.98.88ZM181.82,154.8c-1.14,0-2.59.76-3.18,1.7-1.25,1.96-.97,3.87-.51,5.12.26.7.63,1.39,1.09,2.03,4.25-5.85,3.88-7.86,3.65-8.35-.06-.12-.2-.44-.88-.49-.05,0-.11,0-.16,0Z"/>
              <path class="cls-5" d="M52.72,193.95c-.5,0-.93-.37-.98-.88-.06-.54.34-1.03.88-1.09,16.13-1.71,28.78-14.07,30.09-29.38.18-2.15.14-4.34-.14-6.5-.97-7.62-4.99-14.57-11.02-19.1-5.46-4.09-12.09-5.76-18.67-4.72-5.92.94-11.44,4.39-14.76,9.22-2.93,4.27-3.97,9.33-2.93,14.26.93,4.37,3.71,8.27,7.44,10.44,2.16,1.26,5.62,2.49,9.79,1.15,1.36-.43,2.65-1.21,3.72-2.21-3.69-4.99-5.07-8.58-4.1-10.68.45-.97,1.35-1.55,2.54-1.63,1.88-.17,4.13,1.01,5.14,2.6,1.33,2.09,1.57,4.45.7,6.85-1.13,3.11-4.1,5.9-7.4,6.95-3.79,1.21-7.83.74-11.38-1.33-4.21-2.45-7.34-6.83-8.38-11.74-1.16-5.46-.01-11.07,3.23-15.79,3.67-5.34,9.53-9.01,16.07-10.05,7.12-1.13,14.28.67,20.17,5.09,6.46,4.84,10.76,12.28,11.79,20.42.29,2.31.34,4.63.15,6.92-1.39,16.25-14.78,29.36-31.85,31.17-.03,0-.07,0-.11,0ZM54.88,154.8c-.06,0-.11,0-.16,0-.68.05-.82.37-.88.49-.22.49-.6,2.51,3.65,8.35.46-.64.83-1.33,1.09-2.03.45-1.25.73-3.16-.51-5.12-.6-.94-2.05-1.7-3.18-1.7Z"/>
              <path class="cls-5" d="M86.49,140.95c-5.7,0-11.27-1.86-16.01-5.41-6.46-4.84-10.76-12.28-11.79-20.42-.29-2.32-.34-4.65-.15-6.92,1.07-12.55,9.38-23.51,21.69-28.59.51-.21,1.08.03,1.29.53.21.5-.03,1.08-.54,1.29-11.62,4.8-19.47,15.12-20.48,26.94-.18,2.14-.14,4.33.14,6.51.97,7.61,4.99,14.57,11.02,19.09,5.46,4.09,12.09,5.76,18.67,4.72,5.92-.94,11.44-4.39,14.76-9.22,2.93-4.27,3.97-9.33,2.93-14.26-.93-4.37-3.71-8.27-7.44-10.44-2.17-1.26-5.63-2.48-9.79-1.15-1.36.43-2.65,1.21-3.72,2.21,3.69,4.99,5.07,8.58,4.11,10.68-.45.97-1.35,1.55-2.54,1.63-1.9.15-4.13-1.01-5.14-2.6-1.33-2.09-1.57-4.45-.7-6.85,1.13-3.1,4.1-5.9,7.4-6.95,3.79-1.2,7.83-.73,11.38,1.33,4.21,2.45,7.34,6.83,8.38,11.74,1.16,5.46.01,11.07-3.23,15.79-3.67,5.34-9.53,9.01-16.08,10.05-1.39.22-2.78.33-4.16.33ZM85.74,107.31c-.46.64-.83,1.33-1.09,2.03-.45,1.25-.73,3.16.51,5.12.62.98,2.23,1.76,3.35,1.7.68-.05.83-.38.88-.49.22-.49.6-2.51-3.65-8.35Z"/>
              <path class="cls-5" d="M150.57,107.17c-.19,0-.38-.05-.55-.17-.45-.3-.58-.91-.27-1.37,1.67-2.5,1.8-5.59.36-8.47-1.75-3.48-5.44-5.95-9.2-6.15-4.12-.21-8.04,2.22-11.02,6.87-.29.46-.9.59-1.36.3-.46-.29-.59-.9-.3-1.36,3.37-5.27,7.89-8.04,12.78-7.77,4.51.24,8.77,3.08,10.86,7.24,1.77,3.53,1.59,7.34-.48,10.45-.19.29-.5.44-.82.44Z"/>
              <path class="cls-5" d="M86.13,107.17c-.32,0-.63-.15-.82-.44-2.08-3.11-2.25-6.92-.48-10.45,2.09-4.16,6.35-7,10.86-7.24,4.9-.28,9.41,2.51,12.78,7.77.29.46.16,1.07-.3,1.36-.46.3-1.07.16-1.36-.3-2.97-4.64-6.92-7.08-11.02-6.87-3.76.2-7.46,2.67-9.2,6.15-1.44,2.88-1.31,5.96.36,8.47.3.45.18,1.07-.27,1.37-.17.11-.36.17-.55.17Z"/>
              <path class="cls-5" d="M150.21,140.95c-1.38,0-2.77-.11-4.16-.33-6.54-1.04-12.4-4.71-16.08-10.05-3.24-4.72-4.39-10.32-3.23-15.79,1.04-4.9,4.17-9.29,8.38-11.74,3.55-2.06,7.6-2.53,11.38-1.33,3.3,1.05,6.27,3.84,7.4,6.95.87,2.4.63,4.76-.7,6.85-1.01,1.59-3.26,2.75-5.14,2.6-1.19-.08-2.09-.66-2.54-1.63-.97-2.1.42-5.7,4.11-10.68-1.07-.99-2.36-1.77-3.72-2.21-4.17-1.33-7.63-.11-9.79,1.15-3.73,2.17-6.51,6.07-7.44,10.44-1.05,4.93,0,9.99,2.93,14.26,3.32,4.83,8.84,8.28,14.76,9.22,6.59,1.04,13.22-.63,18.67-4.72,6.03-4.52,10.05-11.48,11.02-19.1.28-2.18.32-4.36.14-6.5-1.01-11.82-8.86-22.14-20.48-26.94-.5-.21-.74-.79-.54-1.29.21-.5.79-.74,1.29-.53,12.31,5.08,20.62,16.04,21.69,28.59.2,2.28.15,4.61-.15,6.92-1.04,8.14-5.34,15.58-11.79,20.43-4.74,3.55-10.3,5.41-16.01,5.41ZM150.96,107.31c-4.25,5.84-3.88,7.86-3.65,8.35.05.11.2.44.88.49,1.14.07,2.72-.71,3.35-1.7,1.25-1.96.97-3.87.51-5.12-.25-.7-.63-1.39-1.09-2.03Z"/>
              <g>
                <path class="cls-5" d="M210.31,114.62c-.37,0-.72-.21-.89-.57-5.75-12.13-21.4-19.92-36.39-18.1-.54.06-1.03-.32-1.1-.86-.06-.54.32-1.03.86-1.1,15.81-1.88,32.31,6.36,38.41,19.22.23.49.02,1.08-.47,1.31-.14.06-.28.1-.42.1Z"/>
                <path class="cls-5" d="M26.39,114.62c-.14,0-.28-.03-.42-.1-.49-.23-.7-.82-.47-1.31,6.09-12.86,22.61-21.12,38.41-19.22.54.06.93.55.86,1.1-.07.54-.57.92-1.1.86-15-1.82-30.64,5.98-36.39,18.1-.17.36-.52.57-.89.57Z"/>
                <path class="cls-5" d="M66.98,133.53c-.08,0-.16-.01-.24-.03-21.08-5.3-33.76-11.77-36.65-18.7-1.22-2.93-.47-5.25.37-6.68,1.07-1.42,2.97-2.89,6.1-2.97,7.51.05,18.31,9.32,31.21,26.82.25.33.26.79.03,1.14-.19.28-.5.44-.82.44ZM32.13,109.17c-.6,1.05-1.12,2.73-.22,4.87,1.46,3.49,7.66,10.23,32.6,16.85-15.59-20.56-24.17-23.75-27.96-23.77-2.34,0-3.68,1.1-4.42,2.05Z"/>
                <path class="cls-5" d="M60.33,123.77c-.25,0-.49-.09-.68-.27-13.29-12.67-15.56-19.65-15.13-23.27.2-1.7,1.06-3.07,2.41-3.85,1.55-.67,3.19-.54,4.71.33,3.2,1.84,7.48,7.83,9.67,25.95.05.41-.16.81-.54,1-.14.07-.29.11-.44.11ZM47.87,98.12c-.78.47-1.26,1.28-1.39,2.34-.29,2.46,1.01,8.21,12.5,19.63-2.28-15.93-6.15-20.42-8.33-21.67-1.2-.7-2.17-.55-2.79-.31Z"/>
                <path class="cls-5" d="M34.71,135.69c-2.72,0-4.85-.49-6.36-1.48-1.85-1.2-2.32-2.84-2.4-3.99.06-1.27.51-2.91,2.34-4.14,4.2-2.82,13.25-1.83,26.87,2.96.39.14.66.51.66.92,0,.42-.26.79-.65.93-8.72,3.19-15.56,4.79-20.46,4.79ZM27.93,130.15c.08,1,.59,1.81,1.5,2.41,1.96,1.29,7.46,2.56,22.4-2.56-15.01-4.93-20.49-3.58-22.44-2.28-.91.61-1.4,1.43-1.47,2.43Z"/>
                <path class="cls-5" d="M78.79,212.59c-.19,0-.37,0-.54-.02-1.7-.32-3.87-1.26-5.22-4.02-3.18-6.53.21-19.85,9.8-38.51.19-.37.58-.59,1.01-.53.41.05.75.36.83.77,4.46,20.51,4.3,34.25-.46,39.74-1.8,2.07-3.86,2.57-5.42,2.57ZM78.45,210.6c1.15.05,2.82-.2,4.27-1.88,2.39-2.75,5.54-10.97.6-35.28-11.04,22.21-10.12,30.97-8.52,34.24.97,2,2.51,2.69,3.64,2.92Z"/>
                <path class="cls-5" d="M65.49,201.95c-.81,0-1.6-.22-2.31-.66-1.22-.96-1.82-2.28-1.78-3.79.12-4.35,5.27-10.16,15.33-17.26.34-.24.79-.24,1.14,0,.34.24.49.67.39,1.07-3.25,11.88-6.94,18.71-10.99,20.3-.59.23-1.18.35-1.76.35ZM64.26,199.64c.69.4,1.45.45,2.27.13,1.81-.71,5.29-3.8,9.03-16.25-10.43,7.76-12.14,12.09-12.19,14.04-.02.87.28,1.58.9,2.09Z"/>
                <path class="cls-5" d="M77.29,182.03c-.17,0-.34-.04-.5-.13-.47-.27-.63-.88-.36-1.35l3.97-6.81c.27-.47.88-.62,1.35-.36.47.27.63.88.36,1.35l-3.97,6.81c-.18.32-.51.49-.85.49Z"/>
                <path class="cls-5" d="M159.41,182.03c-.34,0-.67-.17-.85-.49l-3.97-6.81c-.27-.47-.11-1.07.36-1.35.48-.27,1.08-.11,1.35.36l3.97,6.81c.27.47.11,1.07-.36,1.35-.16.09-.33.13-.5.13Z"/>
                <path class="cls-5" d="M94.15,205.48c-.93,0-1.85-.3-2.68-.9-3.54-2.53-5.47-10.05-5.75-22.36,0-.42.24-.79.63-.94.39-.16.83-.04,1.1.27,8.03,9.33,11.63,16.21,10.69,20.46-.33,1.47-1.23,2.61-2.54,3.2-.55.18-1.01.25-1.45.25ZM87.79,185.02c.61,12.98,3.24,16.82,4.82,17.95.71.51,1.46.65,2.23.43.72-.35,1.18-.95,1.37-1.81.42-1.9-.2-6.51-8.43-16.57Z"/>
                <path class="cls-5" d="M157.91,212.59c-1.56,0-3.62-.5-5.42-2.57-4.76-5.48-4.92-19.22-.46-39.74.09-.41.42-.71.83-.77.43-.06.82.16,1.01.53,9.6,18.67,12.99,31.98,9.8,38.51-1.35,2.76-3.52,3.7-5.1,4-.29.03-.47.04-.66.04ZM153.38,173.44c-4.94,24.31-1.79,32.53.6,35.28,1.46,1.68,3.11,1.94,4.27,1.88,1.14-.23,2.67-.92,3.64-2.92,1.6-3.27,2.52-12.03-8.52-34.24Z"/>
                <path class="cls-5" d="M171.21,201.95c-.58,0-1.18-.12-1.76-.35-4.05-1.6-7.75-8.43-10.99-20.3-.11-.4.04-.83.39-1.07.34-.24.79-.24,1.14,0,10.05,7.11,15.21,12.91,15.33,17.26.04,1.51-.56,2.83-1.69,3.72-.81.51-1.59.73-2.4.73ZM161.14,183.52c3.74,12.45,7.22,15.54,9.03,16.25.81.32,1.58.28,2.27-.13.62-.51.92-1.21.9-2.09-.05-1.95-1.77-6.27-12.19-14.04Z"/>
                <path class="cls-5" d="M142.55,205.48c-.45,0-.9-.07-1.35-.21-1.42-.63-2.32-1.77-2.65-3.24-.94-4.25,2.66-11.13,10.69-20.46.27-.31.71-.43,1.1-.27.39.15.64.52.63.94-.27,12.31-2.2,19.83-5.75,22.36-.83.59-1.75.9-2.68.9ZM141.85,203.4c.77.23,1.52.08,2.23-.43,1.58-1.13,4.21-4.97,4.82-17.95-8.23,10.06-8.85,14.67-8.43,16.57.19.86.65,1.46,1.37,1.81Z"/>
                <path class="cls-5" d="M201.99,135.69c-4.9,0-11.75-1.6-20.46-4.79-.39-.14-.65-.52-.65-.93,0-.42.27-.79.66-.92,13.62-4.79,22.65-5.78,26.87-2.96,1.83,1.23,2.29,2.87,2.34,4.02-.07,1.27-.55,2.9-2.4,4.11-1.52.99-3.64,1.48-6.36,1.48ZM184.87,129.99c14.95,5.12,20.44,3.85,22.4,2.56.92-.6,1.42-1.4,1.5-2.41-.07-1-.56-1.82-1.47-2.43-1.95-1.3-7.43-2.65-22.44,2.28Z"/>
                <path class="cls-5" d="M176.41,123.73c-.15,0-.3-.03-.44-.11-.37-.18-.59-.59-.54-1,2.19-18.11,6.45-24.09,9.63-25.92,1.51-.87,3.15-1,4.6-.38,1.46.83,2.32,2.2,2.52,3.91.43,3.62-1.84,10.58-15.1,23.22-.19.18-.43.27-.68.27ZM187.78,97.91c-.5,0-1.08.13-1.73.5-2.16,1.25-6.01,5.72-8.29,21.64,11.46-11.39,12.76-17.13,12.47-19.58-.16-1.34-.84-2.02-1.4-2.36-.28-.12-.64-.21-1.05-.21Z"/>
                <path class="cls-5" d="M169.72,133.53c-.32,0-.63-.16-.82-.44-.23-.35-.22-.8.03-1.14,12.9-17.5,23.7-26.77,31.21-26.82,3.23.05,5.03,1.56,6.04,2.88.91,1.53,1.66,3.85.44,6.78-2.9,6.93-15.57,13.4-36.65,18.7-.08.02-.16.03-.24.03ZM200.2,107.12c-3.83.02-12.42,3.21-28.01,23.77,24.94-6.62,31.14-13.36,32.6-16.85.89-2.14.38-3.82-.22-4.87-.73-.95-2.08-2.05-4.37-2.05Z"/>
                <path class="cls-5" d="M101.43,238.65c-.26,0-.53-.11-.72-.32-.37-.4-.35-1.02.05-1.39,7.95-7.38,12.51-17.83,12.51-28.68,0-2.53-.24-5.07-.72-7.54-.1-.53.25-1.05.78-1.16.53-.11,1.05.24,1.16.78.5,2.59.76,5.25.76,7.91,0,11.39-4.79,22.37-13.15,30.12-.19.18-.43.26-.67.26Z"/>
                <path class="cls-5" d="M118.35,233.98c-.35,0-.67-.18-.85-.49-5.52-9.33-16.69-20.25-38.53-19.13-.56,0-1.01-.4-1.03-.94-.03-.54.39-1.01.94-1.03,17.22-.8,31.17,5.79,39.47,18.73,8.3-12.94,22.26-19.52,39.47-18.73.54.03.96.49.94,1.03-.03.54-.5.93-1.03.94-21.85-1.11-33.01,9.81-38.53,19.13-.18.3-.5.49-.85.49Z"/>
                <path class="cls-5" d="M135.27,238.65c-.24,0-.48-.09-.67-.26-8.36-7.75-13.15-18.73-13.15-30.12,0-2.66.26-5.32.76-7.91.11-.54.62-.87,1.16-.78.53.11.88.62.78,1.16-.48,2.47-.73,5.01-.73,7.54,0,10.84,4.56,21.3,12.52,28.68.4.37.42.99.05,1.39-.19.21-.46.32-.72.32Z"/>
                <path class="cls-5" d="M64.75,189.01c-1.72,0-3.49-.43-5.2-1.29-4.04-2.04-6.66-6.07-6.68-10.27,0-.51.39-.94.89-.99,1.58-.15,3.02-.9,4.03-2.13,1.02-1.23,1.49-2.77,1.34-4.36-.14-1.54-.87-2.94-2.03-3.95-.41-.36-.46-.98-.1-1.39.36-.41.98-.46,1.39-.1,1.56,1.34,2.52,3.21,2.71,5.25.2,2.11-.44,4.17-1.79,5.8-1.15,1.38-2.69,2.32-4.43,2.69.33,3.15,2.44,6.11,5.55,7.68,3.1,1.57,6.44,1.41,8.95-.42.44-.32,1.05-.23,1.38.22.32.44.22,1.06-.22,1.38-1.71,1.25-3.72,1.88-5.8,1.88Z"/>
                <path class="cls-5" d="M171.95,189.01c-2.09,0-4.1-.63-5.8-1.88-.44-.32-.54-.94-.22-1.38.32-.44.94-.54,1.38-.22,2.51,1.83,5.86,1.99,8.95.42,3.11-1.57,5.21-4.52,5.55-7.68-1.73-.37-3.28-1.3-4.43-2.69-1.35-1.63-1.99-3.69-1.79-5.8.19-2.04,1.15-3.91,2.71-5.25.41-.36,1.04-.31,1.39.1.36.41.31,1.03-.1,1.39-1.17,1.01-1.89,2.41-2.03,3.95-.15,1.58.33,3.13,1.34,4.36,1.02,1.23,2.45,1.98,4.03,2.13.51.05.9.47.89.99-.02,4.19-2.64,8.23-6.68,10.27-1.7.86-3.48,1.29-5.2,1.29Z"/>
                <path class="cls-5" d="M128.6,242.35c-1.14,0-2.32-.19-3.5-.57-3.03-.98-5.43-3.03-6.75-5.64-1.31,2.61-3.72,4.66-6.75,5.64-3.84,1.24-7.72.41-10.35-2.22-.39-.39-.39-1.01,0-1.39.39-.39,1.01-.39,1.39,0,2.1,2.1,5.23,2.76,8.35,1.74,3.41-1.1,5.86-3.81,6.38-7.08.15-.96,1.79-.96,1.95,0,.53,3.26,2.97,5.97,6.38,7.08,3.13,1.02,6.25.36,8.35-1.74.39-.39,1.01-.39,1.39,0,.39.38.39,1.01,0,1.39-1.83,1.83-4.25,2.79-6.85,2.79Z"/>
                <path class="cls-5" d="M46.59,169.7c-.06,0-.12,0-.18-.02-7.92-1.44-14.9-6.69-19.65-14.78-6.2-10.56-7.58-24.31-3.61-35.88.18-.51.75-.78,1.25-.61.51.18.79.74.61,1.25-3.79,11.04-2.46,24.16,3.45,34.25,4.45,7.59,10.95,12.51,18.3,13.84.54.1.89.61.79,1.15-.09.47-.5.81-.97.81Z"/>
                <path class="cls-5" d="M190.11,169.7c-.47,0-.88-.33-.97-.81-.1-.54.26-1.05.79-1.15,7.35-1.33,13.84-6.25,18.3-13.84,5.91-10.08,7.24-23.2,3.45-34.25-.18-.52.1-1.08.61-1.25.51-.17,1.08.1,1.25.61,3.97,11.57,2.58,25.32-3.61,35.88-4.75,8.1-11.72,13.35-19.65,14.78-.06.01-.12.02-.18.02Z"/>
                <path class="cls-5" d="M118.35,130.83c-4.42,0-8.5-2.58-10.4-6.58-.23-.49-.02-1.08.47-1.31.5-.23,1.08-.02,1.31.47,1.57,3.31,4.95,5.45,8.61,5.45s7.04-2.14,8.61-5.45c.23-.49.82-.7,1.31-.47.49.23.7.82.47,1.31-1.89,4-5.97,6.58-10.39,6.58Z"/>
                <path class="cls-5" d="M98.45,216.7c-.13,0-.26-.03-.38-.08-.5-.21-.74-.79-.53-1.29,2.85-6.8,7.99-12.52,14.45-16.1.48-.26,1.08-.09,1.34.39.26.47.09,1.08-.39,1.34-6.08,3.37-10.91,8.75-13.59,15.14-.16.38-.52.6-.91.6Z"/>
                <path class="cls-5" d="M138.25,216.7c-.39,0-.75-.23-.91-.6-2.68-6.4-7.51-11.77-13.59-15.14-.48-.26-.65-.87-.39-1.34.26-.48.86-.65,1.34-.39,6.47,3.58,11.6,9.3,14.45,16.1.21.5-.03,1.08-.53,1.29-.12.05-.25.08-.38.08Z"/>
                <path class="cls-5" d="M118.35,263.83c-.54,0-.99-.45-.99-.99v-26.86c0-.54.44-.99.99-.99s.99.44.99.99v26.86c0,.54-.44.99-.99.99Z"/>
              </g>
            </g>
            <path class="cls-5" d="M118.35,264.82c-.35,0-.68-.19-.86-.5-21.23-37.22-44.57-54.84-63.32-69.01-20.38-15.39-35.11-26.52-35.11-53.76,0-14.44,5.55-30.29,14.84-42.4,10.2-13.29,23.46-20.62,37.32-20.62,31.7,0,41.06,23.22,45.56,34.37.58,1.43,1.1,2.74,1.56,3.67.44-.91.96-2.18,1.51-3.56,4.52-11.19,13.92-34.48,45.62-34.48,13.86,0,27.12,7.32,37.32,20.62,9.29,12.11,14.84,27.96,14.84,42.4,0,27.19-14.73,38.33-35.13,53.75-18.75,14.18-42.09,31.83-63.3,69.01-.18.31-.5.5-.86.5ZM71.22,80.51c-28.26,0-50.18,32.81-50.18,61.04,0,26.26,14.4,37.13,34.32,52.18,18.64,14.08,41.79,31.56,62.99,68.12,21.18-36.52,44.32-54.02,62.97-68.12,19.94-15.08,34.34-25.97,34.34-52.18,0-28.23-21.92-61.04-50.18-61.04-30.37,0-39.43,22.45-43.79,33.24-1.09,2.7-1.81,4.48-2.61,5.36-.37.41-1.08.41-1.46,0-.82-.9-1.56-2.72-2.66-5.47-4.34-10.75-13.36-33.13-43.73-33.13ZM118.35,201.46c-19.72,0-35.77-16.04-35.77-35.77s16.05-35.77,35.77-35.77,35.77,16.04,35.77,35.77-16.05,35.77-35.77,35.77ZM118.35,131.89c-18.63,0-33.8,15.16-33.8,33.79s15.16,33.79,33.8,33.79,33.8-15.16,33.8-33.79-15.16-33.79-33.8-33.79Z"/>
          </g>
        </g>
        <g id="Hearts_L" data-name="Hearts L">
          <path class="cls-4" d="M118.35,189.03c-.4,0-.75-.23-.91-.6-2.96-6.92-6.87-9.24-11.01-11.7-2.33-1.39-4.75-2.83-7.04-5.12-5.38-5.39-5.89-14.45-1.1-19.78,2.45-2.72,5.64-4.23,8.97-4.23,5.14,0,8.68,3.25,11.08,7.73,3.04-5.66,7.01-7.73,11.09-7.73,3.33,0,6.52,1.5,8.97,4.23,4.78,5.33,4.28,14.38-1.1,19.78-2.29,2.29-4.7,3.73-7.04,5.12-4.14,2.46-8.05,4.79-11.01,11.7-.16.36-.51.6-.91.6Z"/>
          <path class="cls-1" d="M139.14,151.17c-2.64-2.93-6.09-4.55-9.71-4.55-4.85,0-8.43,2.62-11.08,6.77-2.65-4.15-6.23-6.77-11.08-6.77-3.62,0-7.07,1.62-9.71,4.55-5.13,5.7-4.6,15.38,1.14,21.14,2.37,2.38,4.84,3.85,7.23,5.27,4.17,2.48,7.77,4.62,10.61,11.25.31.73,1.02,1.2,1.81,1.2s1.5-.47,1.81-1.2c2.84-6.62,6.44-8.77,10.61-11.25,2.39-1.42,4.86-2.89,7.23-5.27,5.74-5.76,6.26-15.43,1.14-21.14ZM136.61,170.91c-6.19,6.21-13.46,5.95-18.26,17.13-4.79-11.18-12.07-10.92-18.26-17.13-5-5.01-5.51-13.48-1.07-18.42,2.47-2.74,5.44-3.9,8.24-3.9,7.96,0,10.83,8.8,11.08,9.06.26-.26,3.09-9.06,11.08-9.06,2.8,0,5.77,1.16,8.24,3.9,4.44,4.94,3.93,13.41-1.07,18.42Z"/>
          <path class="cls-1" d="M114.25,166.68c-3.33,0-6.04,2.73-6.05,6.09-6.81-5.15-4.34-12.42-3.81-13.7.35-.85.83-1.15.92-1.18.23,3.15,3,5.54,6.13,5.31,2.52-.18,4.51-1.99,5.11-4.32,1.03,2.81,1.33,5.82.92,8.74-.93-.59-2.03-.95-3.22-.95ZM122.45,168.65c-1.11,0-2.11.45-2.85,1.18.21,2.58.86,4.64,1.27,5.77-1.1,1.42-2.52,3.6-2.52,3.6,0,0-1.42-2.19-2.52-3.6.42-1.13,1.06-3.19,1.27-5.77-.74-.73-1.74-1.18-2.85-1.18-2.3,0-4.08,1.91-4.08,4.14s1.12,3.46,2.49,4.44c2,1.44,3.99,3.17,5.69,6.46,1.71-3.29,3.69-5.02,5.69-6.46,1.37-.98,2.49-2.15,2.49-4.44s-1.78-4.14-4.08-4.14ZM102.78,157.9c.68-1.32,1.7-1.92,2.39-1.97,1.09-.08,2.03.74,2.11,1.83.15,2.07,1.95,3.63,4.02,3.48,2.07-.15,3.63-1.95,3.49-4.02-.3-4.11-3.79-6.65-7.52-6.65-1.76,0-4.36.56-6.77,3.25-3.7,4.12-3.24,11.46,1,15.71.96.96,1.98,1.74,3.02,2.47-3.48-4.16-3.72-10.24-1.73-14.09ZM122.45,166.68c3.33,0,6.04,2.73,6.05,6.09,6.81-5.15,4.34-12.42,3.81-13.7-.35-.85-.83-1.15-.92-1.18-.23,3.15-3,5.54-6.13,5.31-2.52-.18-4.52-1.99-5.11-4.32-1.03,2.81-1.33,5.82-.92,8.74.93-.59,2.03-.95,3.21-.95ZM132.19,171.99c1.04-.73,2.06-1.5,3.02-2.47,4.23-4.24,4.7-11.59,1-15.71-2.41-2.68-5.01-3.25-6.77-3.25-3.72,0-7.22,2.55-7.52,6.65-.15,2.07,1.41,3.87,3.49,4.02,2.07.15,3.87-1.41,4.02-3.48.08-1.09,1.02-1.9,2.11-1.83.69.05,1.7.65,2.39,1.97,2,3.85,1.75,9.93-1.73,14.09Z"/>
        </g>
      </g>
      <g id="A">
        <path class="cls-1" d="M215.64,295.21c-.16.75-.23,1.36-.23,1.81,0,1.59.15,1.83.32,3.71.63,6.9,5.49,9.56,7.47,9.56.56,0,.99-.04,1.29-.11.67-2.01,1.01-4.12,1.01-6.31,0-1.94-.1-3.39-.31-4.35-.32-1.44-.82-2.88-1.49-4.33h5.38c-.29.72-.43,2.23-.43,4.54,0,14.98-7.37,20.71-9.29,22.98h-5.66c.52-.59.77-1.41.77-2.46,0-.48-.08-1.26-.23-2.36l-.45-3.27c-1.64-11.31-3.11-17.79-4.4-19.42h6.27ZM223.75,312.1c-.47.18-.96.27-1.47.27-3.37,0-4.73-1.96-4.82-2.07.59,3.08,1.71,8.79,1.71,8.79l1.02-1.22c1.44-1.73,2.62-3.65,3.56-5.77Z"/>
        <path class="cls-1" d="M21.06,36.16c.16-.75.23-1.36.23-1.81,0-1.58-.15-1.82-.32-3.71-.63-6.91-5.49-9.56-7.47-9.56-.56,0-.99.04-1.29.11-.67,2.01-1.01,4.12-1.01,6.31,0,1.94.1,3.39.31,4.35.32,1.44.82,2.88,1.49,4.33h-5.38c.29-.72.43-2.23.43-4.54,0-14.97,7.36-20.71,9.3-22.99h5.66c-.51.59-.77,1.41-.77,2.46,0,.48.08,1.27.23,2.36l.45,3.27c1.64,11.32,3.11,17.79,4.4,19.42h-6.27ZM12.95,19.28c.47-.18.96-.27,1.47-.27,3.37,0,4.73,1.96,4.82,2.07-.59-3.08-1.71-8.79-1.71-8.79l-1.02,1.22c-1.44,1.73-2.62,3.65-3.56,5.77Z"/>
      </g>
      <g id="Hearts">
        <path class="cls-1" d="M219.82,266.38c-4.74,8.31-10.52,7.58-10.52,13.09,0,3.08,2.35,6.64,5.48,6.64,4.09,0,4.65-3.74,5.04-4.16.4.44.95,4.16,5.04,4.16,3.12,0,5.48-3.56,5.48-6.64,0-5.52-5.77-4.77-10.52-13.09Z"/>
        <path class="cls-1" d="M16.88,65c4.74-8.31,10.52-7.58,10.52-13.09,0-3.08-2.35-6.64-5.48-6.64-4.09,0-4.65,3.74-5.04,4.16-.4-.44-.95-4.16-5.04-4.16-3.12,0-5.48,3.56-5.48,6.64,0,5.52,5.77,4.77,10.52,13.09Z"/>
      </g>
    </g>
  </g>
</svg>